# Blender v2.69 (sub 0) OBJ File: 'turret2.blend'
# www.blender.org
mtllib turret.mtl
o Cylinder
v 0.000000 -6.763758 -1.269627
v 0.000000 -1.046266 -1.269627
v 0.485865 -6.763758 -1.172982
v 0.485865 -1.046266 -1.172982
v 0.897762 -6.763758 -0.897762
v 0.897762 -1.046266 -0.897762
v 1.172983 -6.763758 -0.485865
v 1.172983 -1.046266 -0.485865
v 1.269627 -6.763758 0.000000
v 1.269627 -1.046266 0.000000
v 1.172983 -6.763758 0.485865
v 1.172983 -1.046266 0.485865
v 0.897762 -6.763758 0.897762
v 0.897762 -1.046266 0.897762
v 0.485865 -6.763758 1.172982
v 0.485865 -1.046266 1.172982
v 0.000000 -6.763758 1.269627
v 0.000000 -1.046266 1.269627
v -0.485865 -6.763758 1.172983
v -0.485865 -1.046266 1.172983
v -0.897762 -6.763758 0.897762
v -0.897762 -1.046266 0.897762
v -1.172982 -6.763758 0.485866
v -1.172982 -1.046266 0.485866
v -1.269627 -6.763758 -0.000000
v -1.269627 -1.046266 -0.000000
v -1.172982 -6.763758 -0.485866
v -1.172982 -1.046266 -0.485866
v -0.897762 -6.763758 -0.897762
v -0.897762 -1.046266 -0.897762
v -0.485865 -6.763758 -1.172983
v -0.485865 -1.046266 -1.172983
v -2.453574 -0.444447 3.233014
v -2.453574 -0.444447 -3.233014
v 2.453574 -0.444447 -3.233014
v 2.453574 -0.444447 3.233014
v -2.453574 3.255286 3.233014
v -2.453574 3.255286 -3.233014
v 2.453574 3.255286 -3.233014
v 2.453574 3.255286 3.233014
v -2.453574 3.255286 0.757513
v -2.453574 3.255286 -0.757513
v -2.453574 -0.444447 -0.757513
v -2.453574 -0.444447 0.757513
v 2.453574 3.255286 -0.757513
v 2.453574 3.255286 0.757513
v 2.453574 -0.444447 0.757513
v 2.453574 -0.444447 -0.757513
v -0.872176 1.520164 0.757513
v -0.872176 1.520164 -0.757513
v -0.872176 0.489728 -0.757513
v -0.872176 0.489728 0.757513
v 0.872176 1.520164 -0.757513
v 0.872176 1.520164 0.757513
v 0.872176 0.489728 0.757513
v 0.872176 0.489728 -0.757513
v -0.872176 -1.434292 -0.757513
v -0.872176 -1.434292 0.757513
v 0.872176 -1.434292 0.757513
v 0.872176 -1.434292 -0.757513
v -2.453574 -0.138502 2.971743
v -2.453574 -0.138502 -2.971743
v -2.453574 2.949341 2.971743
v -2.453574 2.949341 -2.971743
v -2.453574 2.949341 1.018783
v -2.453574 2.949341 -1.018783
v -2.453574 -0.138502 -1.018783
v -2.453574 -0.138502 1.018783
v -1.309585 -0.138502 2.971743
v -1.309585 -0.138502 -2.971743
v -1.309585 2.949341 2.971743
v -1.309585 2.949341 -2.971743
v -1.309585 2.949341 1.018783
v -1.309585 2.949341 -1.018783
v -1.309585 -0.138502 -1.018783
v -1.309585 -0.138502 1.018783
vt 0.760611 0.776375
vt 0.468288 0.776375
vt 0.468288 0.751534
vt 0.760611 0.751534
vt 0.468288 0.730475
vt 0.760611 0.730475
vt 0.697951 0.164671
vt 0.697951 0.456993
vt 0.676892 0.456993
vt 0.676892 0.164671
vt 0.652051 0.456993
vt 0.652051 0.164671
vt 0.627209 0.456993
vt 0.627209 0.164671
vt 0.606150 0.456993
vt 0.606150 0.164671
vt 0.435832 0.822276
vt 0.143509 0.822276
vt 0.143509 0.801216
vt 0.435832 0.801216
vt 0.143509 0.776375
vt 0.435832 0.776375
vt 0.143509 0.751534
vt 0.435832 0.751534
vt 0.143509 0.730475
vt 0.435832 0.730475
vt 0.267834 0.005648
vt 0.560157 0.005648
vt 0.560157 0.026707
vt 0.267834 0.026707
vt 0.560157 0.051548
vt 0.267834 0.051548
vt 0.560157 0.076389
vt 0.267834 0.076389
vt 0.560157 0.097449
vt 0.267834 0.097449
vt 0.799508 0.848114
vt 0.781598 0.830204
vt 0.771906 0.806805
vt 0.771906 0.781477
vt 0.781598 0.758077
vt 0.799508 0.740167
vt 0.822908 0.730475
vt 0.848236 0.730475
vt 0.871636 0.740167
vt 0.889545 0.758077
vt 0.899238 0.781477
vt 0.899238 0.806805
vt 0.889545 0.830204
vt 0.871635 0.848114
vt 0.848236 0.857807
vt 0.822908 0.857807
vt 0.760611 0.801216
vt 0.468288 0.801216
vt 0.760611 0.822276
vt 0.468288 0.822276
vt 0.870579 0.468288
vt 0.870579 0.657447
vt 0.857221 0.641805
vt 0.857221 0.483930
vt 0.256539 0.194807
vt 0.005648 0.194807
vt 0.005648 0.005648
vt 0.256539 0.005648
vt 0.898473 0.194807
vt 0.771906 0.194807
vt 0.771906 0.005648
vt 0.898473 0.005648
vt 0.456993 0.395261
vt 0.206102 0.395261
vt 0.206102 0.206102
vt 0.456993 0.206102
vt 0.594855 0.456993
vt 0.468288 0.456993
vt 0.468288 0.206102
vt 0.594855 0.206102
vt 0.468288 0.468288
vt 0.594855 0.468288
vt 0.594855 0.719180
vt 0.468288 0.719180
vt 0.744012 0.657447
vt 0.744012 0.468288
vt 0.757370 0.483930
vt 0.757370 0.641805
vt 0.395261 0.406556
vt 0.395261 0.657447
vt 0.347498 0.576594
vt 0.347498 0.487409
vt 0.571452 0.132214
vt 0.571452 0.005648
vt 0.760611 0.005648
vt 0.760611 0.132214
vt 0.005648 0.206102
vt 0.194807 0.206102
vt 0.147044 0.286955
vt 0.094360 0.286955
vt 0.732717 0.719180
vt 0.606150 0.719180
vt 0.606150 0.468288
vt 0.732717 0.468288
vt 0.194807 0.456993
vt 0.147044 0.376140
vt 0.005648 0.468288
vt 0.132214 0.468288
vt 0.132214 0.719180
vt 0.005648 0.719180
vt 0.005648 0.456993
vt 0.094360 0.376140
vt 0.132214 0.881529
vt 0.054754 0.881529
vt 0.054754 0.828846
vt 0.132214 0.828846
vt 0.924568 0.456993
vt 0.847108 0.456993
vt 0.847108 0.404309
vt 0.924568 0.404309
vt 0.705481 0.931942
vt 0.616297 0.931942
vt 0.616297 0.833571
vt 0.705481 0.833571
vt 0.437004 0.186204
vt 0.437004 0.108744
vt 0.526188 0.108744
vt 0.526188 0.186204
vt 0.206102 0.657447
vt 0.294815 0.576594
vt 0.206102 0.406556
vt 0.294815 0.487409
vt 0.054754 0.730475
vt 0.132214 0.730475
vt 0.312679 0.833571
vt 0.401864 0.833571
vt 0.401864 0.931942
vt 0.312679 0.931942
vt 0.847108 0.305938
vt 0.924568 0.305938
vt 0.940363 0.468288
vt 0.940363 0.626163
vt 0.881874 0.626163
vt 0.881874 0.468288
vt 0.871756 0.927591
vt 0.771906 0.927591
vt 0.771906 0.869102
vt 0.871756 0.869101
vt 0.709246 0.456993
vt 0.709246 0.267834
vt 0.722604 0.283476
vt 0.722604 0.441351
vt 0.835813 0.267834
vt 0.835813 0.456993
vt 0.822455 0.441351
vt 0.822455 0.283476
vt 0.605002 0.833571
vt 0.605002 0.933421
vt 0.447127 0.933421
vt 0.447127 0.833571
vt 0.301384 0.833571
vt 0.301384 0.933421
vt 0.143509 0.933421
vt 0.143509 0.833571
vt 0.909768 0.163522
vt 0.909768 0.005648
vt 0.968257 0.005648
vt 0.968257 0.163522
vt 0.946958 0.294643
vt 0.847108 0.294643
vt 0.847108 0.236154
vt 0.946958 0.236154
vt 0.132214 0.951314
vt 0.032364 0.951314
vt 0.032364 0.892824
vt 0.132214 0.892824
vt 0.267834 0.108744
vt 0.425709 0.108744
vt 0.425709 0.167233
vt 0.267834 0.167233
vt 0.994353 0.305938
vt 0.994353 0.405789
vt 0.935863 0.405789
vt 0.935863 0.305938
vt 0.969022 0.730475
vt 0.969022 0.888349
vt 0.910533 0.888349
vt 0.910533 0.730475
vn 0.195091 0.000000 -0.980785
vn 0.555570 0.000000 -0.831470
vn 0.831470 0.000000 -0.555570
vn 0.980785 0.000000 -0.195091
vn 0.980785 0.000000 0.195091
vn 0.831470 0.000000 0.555570
vn 0.555570 0.000000 0.831470
vn 0.195091 0.000000 0.980785
vn -0.195090 0.000000 0.980785
vn -0.555570 0.000000 0.831470
vn -0.831470 0.000000 0.555570
vn -0.980785 0.000000 0.195090
vn -0.980785 0.000000 -0.195091
vn -0.831469 0.000000 -0.555570
vn 0.000000 1.000000 -0.000000
vn -0.195090 0.000000 -0.980785
vn -0.555570 0.000000 -0.831470
vn -1.000000 0.000000 0.000000
vn 0.000000 0.000000 -1.000000
vn 1.000000 0.000000 0.000000
vn 0.000000 0.000000 1.000000
vn 0.000000 -1.000000 0.000000
usemtl batchbake_AOComp
s off
f 1/1/1 2/2/1 4/3/1 3/4/1
f 3/4/2 4/3/2 6/5/2 5/6/2
f 5/7/3 6/8/3 8/9/3 7/10/3
f 7/10/4 8/9/4 10/11/4 9/12/4
f 9/12/5 10/11/5 12/13/5 11/14/5
f 11/14/6 12/13/6 14/15/6 13/16/6
f 13/17/7 14/18/7 16/19/7 15/20/7
f 15/20/8 16/19/8 18/21/8 17/22/8
f 17/22/9 18/21/9 20/23/9 19/24/9
f 19/24/10 20/23/10 22/25/10 21/26/10
f 21/27/11 22/28/11 24/29/11 23/30/11
f 23/30/12 24/29/12 26/31/12 25/32/12
f 25/32/13 26/31/13 28/33/13 27/34/13
f 27/34/14 28/33/14 30/35/14 29/36/14
f 4/37/15 2/38/15 32/39/15 30/40/15 28/41/15 26/42/15 24/43/15 22/44/15 20/45/15 18/46/15 16/47/15 14/48/15 12/49/15 10/50/15 8/51/15 6/52/15
f 31/53/16 32/54/16 2/2/16 1/1/16
f 29/55/17 30/56/17 32/54/17 31/53/17
f 43/57/18 42/58/18 66/59/18 67/60/18
f 38/61/19 39/62/19 35/63/19 34/64/19
f 46/65/20 40/66/20 36/67/20 47/68/20
f 40/69/21 37/70/21 33/71/21 36/72/21
f 43/73/22 34/74/22 35/75/22 48/76/22
f 45/77/15 39/78/15 38/79/15 42/80/15
f 38/81/18 34/82/18 62/83/18 64/84/18
f 47/85/19 44/86/19 52/87/19 55/88/19
f 39/89/20 45/90/20 48/91/20 35/92/20
f 42/93/21 43/94/21 51/95/21 50/96/21
f 33/97/22 44/98/22 47/99/22 36/100/22
f 43/94/21 48/101/21 56/102/21 51/95/21
f 40/103/15 46/104/15 41/105/15 37/106/15
f 48/101/21 45/107/21 53/108/21 56/102/21
f 49/109/18 50/110/18 51/111/18 52/112/18
f 53/113/20 54/114/20 55/115/20 56/116/20
f 55/117/21 52/118/21 58/119/21 59/120/21
f 54/121/15 53/122/15 50/123/15 49/124/15
f 45/107/21 42/93/21 50/96/21 53/108/21
f 44/86/19 41/125/19 49/126/19 52/87/19
f 46/127/19 47/85/19 55/88/19 54/128/19
f 41/125/19 46/127/19 54/128/19 49/126/19
f 52/112/18 51/111/18 57/129/18 58/130/18
f 51/131/19 56/132/19 60/133/19 57/134/19
f 56/116/20 55/115/20 59/135/20 60/136/20
f 61/137/19 63/138/19 71/139/19 69/140/19
f 66/141/22 64/142/22 72/143/22 74/144/22
f 34/82/18 43/57/18 67/60/18 62/83/18
f 42/58/18 38/81/18 64/84/18 66/59/18
f 41/145/18 44/146/18 68/147/18 65/148/18
f 33/149/18 37/150/18 63/151/18 61/152/18
f 44/146/18 33/149/18 61/152/18 68/147/18
f 37/150/18 41/145/18 65/148/18 63/151/18
f 74/153/18 72/154/18 70/155/18 75/156/18
f 71/157/18 73/158/18 76/159/18 69/160/18
f 65/161/21 68/162/21 76/163/21 73/164/21
f 68/165/15 61/166/15 69/167/15 76/168/15
f 62/169/15 67/170/15 75/171/15 70/172/15
f 64/173/21 62/174/21 70/175/21 72/176/21
f 63/177/22 65/178/22 73/179/22 71/180/22
f 67/181/19 66/182/19 74/183/19 75/184/19
