# Blender v2.69 (sub 0) OBJ File: ''
# www.blender.org
o Text_Mesh
v 0.144974 0.491648 5.380723
v -0.040142 0.491648 5.236127
v -0.302466 0.491647 4.975554
v -1.260278 0.491648 4.407410
v 0.243779 0.491648 4.886167
v 0.226280 0.491648 4.407410
v 1.429085 0.491648 2.212900
v 1.206450 0.491648 2.953398
v 0.541363 0.491648 3.506492
v -0.353898 0.491648 3.507384
v -1.275274 0.491648 2.480549
v -1.191186 0.491648 1.471156
v 0.898783 0.491648 2.743414
v -0.268104 0.491648 1.133454
v -0.856110 0.491648 1.634387
v 0.752255 0.491648 0.047092
v -1.247281 0.491648 0.125458
v -0.114390 0.491648 -1.116854
v 1.379910 0.491648 -1.496235
v 0.269052 0.491648 -0.533906
v 1.021203 0.491648 -0.561008
v 0.226279 0.491648 -1.116854
v 0.845147 0.491648 -2.306538
v 0.271589 0.491648 -2.377717
v -1.247665 0.491648 -1.815911
v -0.114390 0.491648 -3.455085
v 0.243778 0.491648 -2.976328
v 1.039240 0.491648 -5.398449
v 0.241764 0.491648 -4.318372
v -0.098905 0.491648 -4.318372
v -0.919609 0.491648 -5.398449
v -1.260278 0.491648 -5.777831
v 1.379910 0.491648 -5.777831
v 1.108679 -0.491648 5.419192
v -1.260277 -0.491648 5.615238
v -0.114390 -0.491648 4.407410
v 1.018715 -0.491648 4.980350
v 1.054726 -0.491648 4.407410
v 1.286801 -0.491648 2.852642
v 0.647136 -0.491648 3.443139
v -0.238837 -0.491648 3.556318
v -0.974917 -0.491648 3.101304
v -1.286439 -0.491648 2.422999
v -0.358085 -0.491648 0.748792
v 1.012872 -0.491648 2.535344
v 0.000816 -0.491648 -0.329468
v -0.082122 -0.491648 -1.075011
v -1.260278 -0.491648 -1.116853
v -1.260278 -0.491648 -1.496235
v 1.379910 -0.491648 -1.496235
v 0.241733 -0.491648 -0.659666
v 1.054726 -0.491648 -1.116854
v 1.303344 -0.491648 -2.638018
v -0.019839 -0.491648 -2.703525
v -1.224995 -0.491648 -2.221078
v -0.114390 -0.491648 -3.455085
v -1.260278 -0.491648 -3.834466
v 1.379910 -0.491648 -3.834466
v 0.248929 -0.491648 -2.958287
v 1.027136 -0.491648 -2.915061
v 1.054725 -0.491648 -3.455085
v 1.039240 -0.491648 -5.398449
v 0.241764 -0.491648 -5.398449
v -0.098905 -0.491648 -4.318372
v -0.098905 -0.491648 -5.398449
v -0.919609 -0.491648 -5.398449
v -1.260278 -0.491648 -5.777831
v 1.379910 -0.491648 -5.777831
v 1.039240 -0.491648 -4.279660
v 0.241764 0.491648 -5.398449
v 0.241764 -0.491648 -4.318372
v -0.098905 0.491648 -5.398449
v -0.919609 -0.491648 -4.244819
v -0.919609 0.491648 -4.244819
v -1.260278 -0.491648 -4.244819
v -1.260278 0.491648 -4.244819
v 1.379910 -0.491648 -4.279660
v 1.379910 0.491648 -4.279660
v 1.039240 0.491648 -4.279660
v 1.331782 0.491648 -2.721834
v 0.551112 -0.491648 -2.269517
v 0.002252 0.491648 -2.671020
v -0.299606 -0.491648 -2.431688
v -1.254526 -0.491648 -1.810477
v -1.247280 0.491648 -2.212775
v -0.135343 -0.491648 -3.096875
v -0.139599 0.491648 -3.086385
v -1.260278 -0.491648 -3.455085
v -1.260278 0.491648 -3.455085
v -1.260278 0.491648 -3.834466
v 1.379910 0.491648 -3.834466
v 0.603939 -0.491648 -2.657680
v 0.579024 0.491648 -2.660366
v 1.021204 0.491648 -2.899239
v 1.054725 0.491648 -3.455085
v 0.226279 -0.491648 -3.455085
v 0.226279 0.491648 -3.455085
v 1.303345 -0.491648 -0.299787
v 1.316230 0.491648 -0.326690
v 0.802013 -0.491648 0.030145
v 0.278859 -0.491648 -0.029864
v 0.306022 0.491648 -0.033078
v -0.001279 0.491648 -0.336041
v -1.244681 0.491648 0.518445
v -1.254523 -0.491648 0.527754
v -1.260278 -0.491648 0.090974
v -0.284913 -0.491648 -0.564790
v -0.139598 0.491648 -0.748154
v -1.260278 0.491648 -1.116853
v -1.260278 0.491648 -1.496235
v 0.452156 -0.491648 -0.373422
v 0.691309 0.491648 -0.337323
v 0.989515 -0.491648 -0.461562
v 1.054726 0.491648 -1.116854
v 0.226279 -0.491648 -1.116854
v -0.941269 0.491648 3.139223
v -1.165411 -0.491648 1.419241
v -0.411188 0.491648 0.766399
v 0.614808 -0.491648 0.809506
v 0.394851 0.491648 0.751182
v 1.148570 0.491648 1.189846
v 1.360743 -0.491648 1.560617
v -0.933371 -0.491648 2.372641
v -0.940882 0.491648 2.333199
v -0.567260 -0.491648 2.997507
v -0.553999 0.491648 3.020132
v 0.437321 -0.491648 3.145353
v 0.389794 0.491648 3.140323
v 1.083722 0.491648 2.157479
v 1.012238 -0.491648 1.689820
v 0.919094 0.491648 1.560905
v 0.450645 -0.491648 1.163550
v 0.487787 0.491648 1.178978
v -0.307982 -0.491648 1.147055
v -0.874277 -0.491648 1.672224
v 1.358809 -0.491648 4.989414
v 1.316231 0.491648 5.197574
v 0.670058 0.491648 5.587831
v 0.707187 -0.491648 5.565706
v 0.253658 -0.491648 5.473818
v 0.000817 -0.491648 5.194794
v -1.254509 -0.491648 6.052014
v -1.260161 0.491648 6.066959
v -1.260277 0.491648 5.615238
v -0.156177 -0.491648 4.839786
v -0.085882 0.491648 4.495037
v -1.260278 -0.491648 4.407410
v -1.260278 -0.491648 4.028028
v -1.260278 0.491648 4.028028
v 1.379910 -0.491648 4.028028
v 1.379910 0.491648 4.028028
v 0.277050 -0.491648 5.005112
v 0.487067 0.491648 5.163752
v 0.676513 -0.491648 5.183137
v 0.991743 0.491648 5.050065
v 1.054726 0.491648 4.407410
v 0.226280 -0.491648 4.407410
vn -0.000000 1.000000 -0.000000
vn -0.000001 1.000000 0.000001
vn 0.000002 -1.000000 0.000000
vn 0.000000 -1.000000 0.000001
vn 0.000000 -1.000000 0.000000
vn 0.666176 0.002324 -0.745791
vn 0.994755 -0.001371 0.102279
vn 0.000000 0.000000 -1.000000
vn -0.740895 -0.018328 0.671371
vn 0.999058 0.017423 0.039749
vn 0.000000 0.000000 1.000000
vn -0.000000 1.000000 0.000001
vn -0.000001 1.000000 0.000000
vn -0.000000 1.000000 -0.000001
vn 0.000001 1.000000 0.000000
vn 0.000001 -1.000000 0.000000
vn -0.000001 -1.000000 0.000000
vn 1.000000 0.000000 -0.000000
vn -1.000000 0.000000 0.000000
vn 0.556305 0.016077 0.830823
vn 0.437839 -0.097277 0.893775
vn -0.603013 -0.084128 0.793283
vn 0.696330 -0.039334 0.716643
vn -0.999284 -0.007783 -0.037023
vn -0.622857 -0.000930 -0.782335
vn -0.997988 -0.001822 -0.063375
vn 0.998472 -0.012140 0.053919
vn -0.497463 -0.002009 -0.867483
vn -0.998445 -0.002564 -0.055678
vn 0.999152 0.002240 -0.041120
vn 0.551117 0.014557 0.834301
vn -0.999883 0.011483 0.010067
vn -0.113929 -0.022883 0.993225
vn -0.732986 0.002985 0.680237
vn 0.563923 0.002173 0.825824
vn -0.017997 0.020974 0.999618
vn -0.557577 0.036454 -0.829324
vn -0.927119 0.068297 -0.368491
vn 0.998231 -0.005731 0.059171
vn -0.996623 0.011950 -0.081245
vn 0.804575 0.053292 -0.591455
vn -0.161401 0.075381 -0.984006
vn 0.998384 -0.010295 -0.055888
vn 0.659135 -0.000373 0.752025
vn -0.528083 -0.017106 0.849020
vn 0.126556 -0.050216 0.990688
vn -0.900528 -0.000587 0.434797
vn -0.994848 -0.001749 -0.101363
vn -0.654801 0.000455 -0.755801
vn 0.025564 -0.017145 -0.999526
vn 0.867255 -0.006793 -0.497819
vn 0.705091 -0.111894 -0.700233
vn 0.992669 -0.106679 0.056810
vn -0.674748 0.023354 0.737679
vn 0.145573 0.020796 -0.989129
vn -0.726010 0.060713 -0.684999
vn -0.997393 0.072153 0.000747
vn -0.040915 0.000674 0.999162
vn 0.664384 -0.000061 0.747392
vn -0.999974 -0.002925 0.006623
vn 0.862228 -0.068896 0.501813
vn 0.342801 -0.008192 0.939373
vn -0.198487 -0.029537 0.979658
vn 0.563892 -0.011224 0.825772
vn -0.565807 0.014826 -0.824404
vn -0.037702 -0.043936 0.998323
vn -0.994666 0.037404 -0.096131
vn -0.996642 -0.010792 -0.081163
vn 0.406326 0.060310 -0.911736
vn -0.509242 0.046959 -0.859341
vn 0.997910 0.013055 -0.063288
vn -0.219346 -0.061456 -0.973710
vn 0.648463 0.046016 0.759854
vn -0.122820 0.073987 0.989667
vn -0.736545 -0.005811 0.676364
vn -0.176822 0.008101 0.984210
vn -0.701897 0.021717 0.711947
vn 0.566357 0.006715 0.824133
vn -0.618331 -0.054821 -0.784003
vn -0.997038 -0.035620 -0.068169
vn 0.421045 -0.069202 -0.904396
vn -0.560002 -0.065480 -0.825899
vn 0.956517 0.048694 0.287582
vn 0.000995 0.049821 0.998758
vn 0.502069 0.061141 -0.862664
vn 0.958789 0.107756 -0.262893
vn 0.126330 0.001032 -0.991988
vn -0.614584 -0.033737 -0.788130
vn -0.952577 -0.046903 -0.300661
vn -0.962438 -0.056349 0.265591
vn 0.515174 0.083512 0.853007
vn -0.366505 0.047464 0.929205
vn -0.614510 -0.058668 0.786724
vn 0.562850 -0.009327 0.826506
vn -0.908847 -0.078651 -0.409647
vn 0.750932 -0.054205 -0.658151
s off
f 146//1 5//1 6//1
f 146//1 1//1 5//1
f 128//1 9//1 13//1
f 112//1 16//1 21//1
f 18//1 20//1 22//1
f 18//2 102//2 20//2
f 93//1 24//1 23//1
f 32//1 28//1 33//1
f 37//3 38//3 34//3
f 41//4 127//4 40//4
f 52//5 49//5 50//5
f 61//5 57//5 58//5
f 53//5 61//5 58//5
f 54//5 56//5 59//5
f 62//5 67//5 68//5
f 63//5 67//5 62//5
f 65//5 67//5 63//5
f 66//5 67//5 65//5
f 27//6 93//6 92//6 59//6
f 15//7 124//7 123//7 135//7
f 149//8 151//8 150//8 148//8
f 1//9 141//9 140//9
f 151//10 137//10 136//10 150//10
f 28//11 70//11 63//11 62//11
f 149//1 156//1 151//1
f 156//1 137//1 151//1
f 156//1 155//1 137//1
f 149//1 6//1 156//1
f 155//1 138//1 137//1
f 153//1 138//1 155//1
f 153//1 1//1 138//1
f 5//1 1//1 153//1
f 149//12 146//12 6//12
f 146//13 2//13 1//13
f 149//1 4//1 146//1
f 74//11 76//11 75//11 73//11
f 3//13 2//13 146//13
f 144//14 2//14 3//14
f 144//1 143//1 2//1
f 121//13 8//13 7//13
f 129//15 8//15 121//15
f 13//15 8//15 129//15
f 121//13 131//13 129//13
f 13//1 9//1 8//1
f 121//12 133//12 131//12
f 120//1 133//1 121//1
f 118//1 133//1 120//1
f 118//1 14//1 133//1
f 126//1 9//1 128//1
f 126//1 10//1 9//1
f 118//1 15//1 14//1
f 126//1 116//1 10//1
f 12//1 15//1 118//1
f 124//1 116//1 126//1
f 12//1 124//1 15//1
f 12//1 116//1 124//1
f 12//15 11//15 116//15
f 110//1 114//1 19//1
f 114//1 99//1 19//1
f 114//13 21//13 99//13
f 110//1 22//1 114//1
f 21//1 16//1 99//1
f 20//1 16//1 112//1
f 20//13 102//13 16//13
f 110//14 18//14 22//14
f 18//15 103//15 102//15
f 18//1 108//1 103//1
f 110//1 109//1 18//1
f 17//1 103//1 108//1
f 17//14 104//14 103//14
f 90//1 95//1 91//1
f 95//1 80//1 91//1
f 95//1 94//1 80//1
f 94//1 23//1 80//1
f 90//1 97//1 95//1
f 93//1 23//1 94//1
f 27//1 24//1 93//1
f 90//1 26//1 97//1
f 26//1 27//1 97//1
f 26//1 24//1 27//1
f 26//1 82//1 24//1
f 26//1 87//1 82//1
f 90//1 89//1 26//1
f 85//1 82//1 87//1
f 85//1 25//1 82//1
f 28//1 78//1 33//1
f 28//1 79//1 78//1
f 32//1 70//1 28//1
f 32//1 72//1 70//1
f 72//1 29//1 70//1
f 72//1 30//1 29//1
f 32//1 31//1 72//1
f 32//1 74//1 31//1
f 32//1 76//1 74//1
f 38//5 148//5 150//5
f 136//5 38//5 150//5
f 34//5 38//5 136//5
f 157//5 148//5 38//5
f 139//5 37//5 34//5
f 139//5 154//5 37//5
f 140//5 154//5 139//5
f 140//5 152//5 154//5
f 36//5 148//5 157//5
f 152//5 36//5 157//5
f 140//5 36//5 152//5
f 141//16 36//16 140//16
f 145//17 36//17 141//17
f 147//5 148//5 36//5
f 142//5 145//5 141//5
f 142//5 35//5 145//5
f 39//5 130//5 122//5
f 39//5 45//5 130//5
f 40//5 45//5 39//5
f 130//5 119//5 122//5
f 40//4 127//4 45//4
f 132//5 119//5 130//5
f 132//5 44//5 119//5
f 134//5 44//5 132//5
f 41//5 125//5 127//5
f 135//5 44//5 134//5
f 42//5 125//5 41//5
f 135//5 117//5 44//5
f 42//5 123//5 125//5
f 123//5 117//5 135//5
f 42//17 117//17 123//17
f 43//16 117//16 42//16
f 98//5 52//5 50//5
f 113//5 52//5 98//5
f 115//5 49//5 52//5
f 100//5 113//5 98//5
f 100//5 111//5 113//5
f 101//5 111//5 100//5
f 101//17 51//17 111//17
f 47//5 49//5 115//5
f 51//5 47//5 115//5
f 101//5 47//5 51//5
f 46//5 47//5 101//5
f 48//5 49//5 47//5
f 46//5 107//5 47//5
f 105//5 107//5 46//5
f 105//5 106//5 107//5
f 60//5 61//5 53//5
f 96//5 57//5 61//5
f 81//5 60//5 53//5
f 81//5 92//5 60//5
f 81//5 59//5 92//5
f 54//5 59//5 81//5
f 56//5 57//5 96//5
f 59//5 56//5 96//5
f 86//5 56//5 54//5
f 83//5 86//5 54//5
f 88//5 57//5 56//5
f 83//5 55//5 86//5
f 84//5 55//5 83//5
f 77//5 62//5 68//5
f 69//5 62//5 77//5
f 71//5 65//5 63//5
f 64//5 65//5 71//5
f 73//5 67//5 66//5
f 75//5 67//5 73//5
f 70//18 29//18 71//18 63//18
f 29//11 30//11 64//11 71//11
f 30//19 72//19 65//19 64//19
f 72//11 31//11 66//11 65//11
f 31//18 74//18 73//18 66//18
f 76//19 32//19 67//19 75//19
f 32//8 33//8 68//8 67//8
f 33//18 78//18 77//18 68//18
f 78//11 79//11 69//11 77//11
f 79//19 28//19 62//19 69//19
f 82//20 25//20 84//20 83//20
f 23//21 81//21 53//21
f 24//22 54//22 81//22
f 82//23 83//23 54//23
f 25//24 85//24 55//24 84//24
f 85//25 87//25 86//25 55//25
f 87//26 26//26 56//26 86//26
f 26//11 89//11 88//11 56//11
f 89//19 90//19 57//19 88//19
f 90//8 91//8 58//8 57//8
f 91//27 80//27 53//27 58//27
f 93//28 94//28 60//28 92//28
f 94//29 95//29 61//29 60//29
f 95//11 97//11 96//11 61//11
f 97//30 27//30 59//30 96//30
f 99//31 16//31 100//31 98//31
f 104//32 17//32 106//32 105//32
f 16//33 101//33 100//33
f 103//34 46//34 101//34
f 104//35 105//35 46//35
f 18//36 109//36 48//36 47//36
f 17//37 107//37 106//37
f 108//38 47//38 107//38
f 109//19 110//19 49//19 48//19
f 110//8 19//8 50//8 49//8
f 19//39 99//39 98//39 50//39
f 21//40 114//40 52//40 113//40
f 20//41 111//41 51//41
f 112//42 113//42 111//42
f 114//11 22//11 115//11 52//11
f 22//43 20//43 51//43 115//43
f 8//44 9//44 40//44 39//44
f 10//45 116//45 42//45 41//45
f 9//46 41//46 40//46
f 116//47 11//47 43//47 42//47
f 11//48 12//48 117//48 43//48
f 12//49 118//49 44//49 117//49
f 118//50 120//50 119//50 44//50
f 124//51 126//51 125//51 123//51
f 121//52 122//52 119//52
f 7//53 39//53 122//53
f 131//54 133//54 132//54 130//54
f 126//55 127//55 125//55
f 13//56 45//56 127//56
f 129//57 130//57 45//57
f 133//58 14//58 134//58 132//58
f 14//59 15//59 135//59 134//59
f 143//60 144//60 35//60 142//60
f 137//61 34//61 136//61
f 138//62 139//62 34//62
f 138//63 140//63 139//63
f 2//64 142//64 141//64
f 144//65 3//65 145//65 35//65
f 146//66 4//66 147//66 36//66
f 146//67 36//67 145//67
f 4//19 149//19 148//19 147//19
f 155//68 156//68 38//68 37//68
f 153//69 154//69 152//69
f 155//70 37//70 154//70
f 156//11 6//11 157//11 38//11
f 6//71 5//71 152//71 157//71
f 153//72 155//72 154//72
f 80//73 23//73 53//73
f 23//74 24//74 81//74
f 24//75 82//75 54//75
f 16//76 102//76 101//76
f 102//77 103//77 101//77
f 103//78 104//78 46//78
f 17//79 108//79 107//79
f 108//80 18//80 47//80
f 20//81 112//81 111//81
f 112//82 21//82 113//82
f 7//83 8//83 39//83
f 9//84 10//84 41//84
f 120//85 121//85 119//85
f 121//86 7//86 122//86
f 126//87 128//87 127//87
f 128//88 13//88 127//88
f 13//89 129//89 45//89
f 129//90 131//90 130//90
f 137//91 138//91 34//91
f 138//92 1//92 140//92
f 1//93 2//93 141//93
f 2//94 143//94 142//94
f 3//95 146//95 145//95
f 5//96 153//96 152//96
