# Blender v2.69 (sub 0) OBJ File: ''
# www.blender.org
mtllib shield.mtl
o Icosphere_Icosphere.001
v 0.000000 -7.056384 -0.000001
v 1.433723 -6.830224 1.041647
v -0.547622 -6.830224 1.685436
v 5.106051 -3.155753 3.709719
v 4.301196 -4.639707 3.124964
v 5.734930 -3.544427 2.083310
v -1.772190 -6.830220 -0.000001
v -0.547622 -6.830223 -1.685438
v 1.433723 -6.830224 -1.041649
v 6.073414 -1.772218 3.124973
v -1.950300 -3.155756 6.002507
v -0.209146 -3.544436 6.098015
v -1.095257 -1.772223 6.741824
v -6.311414 -3.155725 -0.000001
v -5.864213 -3.544412 1.685441
v -6.750318 -1.772207 1.041652
v -1.950300 -3.155754 -6.002508
v -3.415088 -3.544433 -5.056355
v -3.076631 -1.772225 -6.098042
v 5.106051 -3.155752 -3.709720
v 3.753580 -3.544433 -4.810425
v 4.848855 -1.772223 -4.810446
v 4.848854 -1.772225 4.810445
v -3.076631 -1.772227 6.098041
v -6.750318 -1.772207 -1.041652
v -1.095257 -1.772221 -6.741825
v 6.073414 -1.772217 -3.124973
v 1.950300 3.155754 6.002508
v 3.415088 3.544433 5.056355
v 1.642878 4.639708 5.056345
v -5.106051 3.155752 3.709720
v -3.753580 3.544433 4.810425
v -4.301196 4.639706 3.124966
v -5.106051 3.155753 -3.709719
v -5.734930 3.544427 -2.083310
v -4.301196 4.639707 -3.124964
v 1.950300 3.155756 -6.002507
v 0.209146 3.544436 -6.098015
v 1.642878 4.639709 -5.056344
v 6.311414 3.155725 0.000001
v 5.864213 3.544412 -1.685441
v 5.316574 4.639677 0.000001
v -1.642878 -4.639709 5.056344
v -1.146349 -6.002545 3.528159
v 0.372509 -5.106084 4.856100
v 0.975183 -6.311436 3.001226
v 1.854903 -3.709808 5.708697
v 2.553035 -5.106077 4.147595
v 3.753580 -3.544434 4.810424
v 3.001240 -6.002543 2.180502
v 5.734930 -3.544426 -2.083311
v 4.301196 -4.639706 -3.124966
v 6.002499 -3.709794 -0.000001
v 4.733543 -5.106075 -1.146358
v 4.733546 -5.106070 1.146363
v 3.001240 -6.002542 -2.180504
v 3.155693 -6.311431 0.000004
v -5.316574 -4.639677 -0.000001
v -3.709752 -6.002524 -0.000001
v -4.503346 -5.106065 1.854867
v -2.553009 -6.311430 1.854871
v -4.856128 -3.709797 3.528170
v -3.155690 -5.106074 3.709743
v -3.415088 -3.544434 5.056355
v -1.642878 -4.639707 -5.056345
v -1.146349 -6.002544 -3.528161
v -3.155690 -5.106081 -3.709734
v -2.553009 -6.311433 -1.854861
v -4.856128 -3.709796 -3.528171
v -4.503347 -5.106066 -1.854862
v -5.864213 -3.544412 -1.685442
v 2.553025 -5.106081 -4.147597
v 0.975170 -6.311435 -3.001232
v 1.854903 -3.709807 -5.708698
v 0.372500 -5.106077 -4.856108
v -0.209146 -3.544435 -6.098016
v 6.750318 1.772207 1.041652
v 6.750318 1.772207 -1.041652
v 6.711030 -0.000000 2.180512
v 7.056384 -0.000000 0.000001
v 6.683900 -1.950356 1.146362
v 6.711030 0.000000 -2.180511
v 6.683900 -1.950356 -1.146363
v 1.095257 1.772221 6.741825
v 3.076631 1.772225 6.098042
v 0.000000 -0.000001 7.056384
v 2.180544 -0.000001 6.711020
v 0.975186 -1.950369 6.711008
v 4.147641 -0.000001 5.708733
v 3.155725 -1.950370 6.002500
v -6.073414 1.772217 3.124973
v -4.848855 1.772223 4.810446
v -6.711030 -0.000000 2.180511
v -5.708745 -0.000001 4.147624
v -6.081214 -1.950359 3.001249
v -4.147642 -0.000001 5.708733
v -4.733557 -1.950367 4.856137
v -4.848854 1.772225 -4.810445
v -6.073414 1.772218 -3.124973
v -4.147641 0.000001 -5.708733
v -5.708745 0.000001 -4.147624
v -4.733557 -1.950365 -4.856138
v -6.711030 0.000000 -2.180512
v -6.081214 -1.950359 -3.001250
v 3.076631 1.772227 -6.098041
v 1.095257 1.772223 -6.741824
v 4.147642 0.000001 -5.708733
v 2.180545 0.000001 -6.711020
v 3.155725 -1.950367 -6.002502
v 0.000000 0.000001 -7.056384
v 0.975186 -1.950366 -6.711009
v 4.733566 1.950356 4.856132
v 5.708746 -0.000014 4.147623
v 4.856128 3.709796 3.528171
v 6.081221 1.950345 3.001244
v 5.864213 3.544412 1.685442
v -3.155727 1.950362 6.002503
v -2.180544 -0.000007 6.711020
v -1.854903 3.709807 5.708698
v -0.975187 1.950361 6.711010
v 0.209146 3.544435 6.098016
v -6.683900 1.950355 -1.146363
v -7.056384 0.000005 0.000002
v -6.002499 3.709794 0.000001
v -6.683898 1.950361 1.146365
v -5.734930 3.544426 2.083311
v -0.975182 1.950365 -6.711010
v -2.180539 -0.000003 -6.711021
v -1.854903 3.709808 -5.708697
v -3.155721 1.950366 -6.002504
v -3.753580 3.544434 -4.810424
v 6.081222 1.950358 -3.001235
v 5.708751 0.000001 -4.147616
v 4.856128 3.709797 -3.528170
v 4.733568 1.950367 -4.856126
v 3.415088 3.544434 -5.056355
v 0.547622 6.830225 1.685438
v 1.772190 6.830220 0.000001
v 0.000000 7.056384 0.000001
v 1.146349 6.002544 3.528160
v 2.553002 6.311436 1.854863
v 3.155679 5.106081 3.709741
v 3.709752 6.002524 0.000001
v 4.503338 5.106070 1.854871
v -1.433723 6.830224 1.041649
v -3.001240 6.002542 2.180504
v -0.975173 6.311440 3.001219
v -2.553025 5.106085 4.147591
v -0.372504 5.106086 4.856098
v -1.433723 6.830224 -1.041647
v -3.001240 6.002543 -2.180502
v -3.155685 6.311435 0.000001
v -4.733540 5.106076 -1.146358
v -4.733540 5.106076 1.146360
v 0.547622 6.830226 -1.685436
v 1.146349 6.002545 -3.528158
v -0.975173 6.311441 -3.001217
v -0.372504 5.106088 -4.856096
v -2.553025 5.106086 -4.147589
v 2.553002 6.311437 -1.854861
v 4.503338 5.106071 -1.854870
v 3.155679 5.106082 -3.709739
vn 0.000000 -1.000000 0.000000
vn 0.210944 -0.965392 0.153233
vn -0.080569 -0.965392 0.247963
vn 0.723594 -0.447218 0.525712
vn 0.604205 -0.664968 0.438978
vn 0.815180 -0.503800 0.285714
vn -0.260750 -0.965392 0.000000
vn -0.080569 -0.965392 -0.247963
vn 0.210944 -0.965392 -0.153264
vn 0.864986 -0.243049 0.438978
vn -0.276376 -0.447218 0.850642
vn -0.019837 -0.503800 0.863552
vn -0.150212 -0.243049 0.958281
vn -0.894406 -0.447188 0.000000
vn -0.827448 -0.503800 0.247963
vn -0.957823 -0.243049 0.153264
vn -0.276376 -0.447218 -0.850642
vn -0.491531 -0.503800 -0.710288
vn -0.441725 -0.243049 -0.863582
vn 0.723594 -0.447218 -0.525712
vn 0.523637 -0.503800 -0.686972
vn 0.684805 -0.243049 -0.686972
vn 0.684805 -0.243049 0.686972
vn -0.441725 -0.243049 0.863582
vn -0.957823 -0.243049 -0.153264
vn -0.150212 -0.243049 -0.958281
vn 0.864986 -0.243049 -0.438978
vn 0.276376 0.447218 0.850642
vn 0.491531 0.503800 0.710288
vn 0.230781 0.664968 0.710288
vn -0.723594 0.447218 0.525712
vn -0.523637 0.503800 0.686972
vn -0.604205 0.664968 0.438978
vn -0.723594 0.447218 -0.525712
vn -0.815180 0.503800 -0.285714
vn -0.604205 0.664968 -0.438978
vn 0.276376 0.447218 -0.850642
vn 0.019837 0.503800 -0.863552
vn 0.230781 0.664968 -0.710288
vn 0.894406 0.447188 0.000000
vn 0.827448 0.503800 -0.247963
vn 0.746849 0.664968 0.000000
vn -0.230781 -0.664968 0.710288
vn -0.162450 -0.850642 0.499985
vn 0.059206 -0.727531 0.683493
vn 0.140629 -0.890408 0.432844
vn 0.262856 -0.525712 0.808985
vn 0.353832 -0.727531 0.587756
vn 0.523637 -0.503800 0.686972
vn 0.425306 -0.850642 0.309000
vn 0.815180 -0.503800 -0.285714
vn 0.604205 -0.664968 -0.438978
vn 0.850642 -0.525712 0.000000
vn 0.668325 -0.727531 -0.154881
vn 0.668325 -0.727531 0.154881
vn 0.425306 -0.850642 -0.309000
vn 0.455123 -0.890408 0.000000
vn -0.746849 -0.664968 0.000000
vn -0.525712 -0.850642 0.000000
vn -0.631733 -0.727531 0.267495
vn -0.368206 -0.890408 0.267495
vn -0.688162 -0.525712 0.499985
vn -0.449629 -0.727531 0.518143
vn -0.491531 -0.503800 0.710288
vn -0.230781 -0.664968 -0.710288
vn -0.162450 -0.850642 -0.499985
vn -0.449629 -0.727531 -0.518143
vn -0.368206 -0.890408 -0.267495
vn -0.688162 -0.525712 -0.499985
vn -0.631733 -0.727531 -0.267495
vn -0.827448 -0.503800 -0.247963
vn 0.353832 -0.727531 -0.587756
vn 0.140629 -0.890408 -0.432844
vn 0.262856 -0.525712 -0.808985
vn 0.059206 -0.727531 -0.683493
vn -0.019837 -0.503800 -0.863552
vn 0.957823 0.243049 0.153264
vn 0.957823 0.243049 -0.153264
vn 0.951048 0.000000 0.309000
vn 0.999939 -0.008850 0.000000
vn 0.949614 -0.272408 0.154881
vn 0.951048 0.000000 -0.309000
vn 0.949614 -0.272408 -0.154881
vn 0.150212 0.243049 0.958281
vn 0.441725 0.243049 0.863582
vn 0.000000 0.000000 1.000000
vn 0.309000 -0.008850 0.951018
vn 0.146123 -0.272408 0.950987
vn 0.587756 0.000000 0.809015
vn 0.440748 -0.272408 0.855251
vn -0.864986 0.243049 0.438978
vn -0.684805 0.243049 0.686972
vn -0.951048 0.000000 0.309000
vn -0.808985 -0.008850 0.587756
vn -0.859310 -0.272408 0.432844
vn -0.587756 0.000000 0.809015
vn -0.677206 -0.272408 0.683493
vn -0.684805 0.243049 -0.686972
vn -0.864986 0.243049 -0.438978
vn -0.587756 0.000000 -0.809015
vn -0.808985 -0.008850 -0.587756
vn -0.677206 -0.272408 -0.683493
vn -0.951048 0.000000 -0.309000
vn -0.859310 -0.272408 -0.432844
vn 0.441725 0.243049 -0.863582
vn 0.150212 0.243049 -0.958281
vn 0.587756 0.000000 -0.809015
vn 0.309000 -0.008850 -0.951018
vn 0.440748 -0.272408 -0.855251
vn 0.000000 0.000000 -1.000000
vn 0.146123 -0.272408 -0.950987
vn 0.677206 0.272408 0.683493
vn 0.808985 0.008850 0.587756
vn 0.688162 0.525712 0.499985
vn 0.859310 0.272408 0.432844
vn 0.827448 0.503800 0.247963
vn -0.440748 0.272408 0.855251
vn -0.309000 0.008850 0.951018
vn -0.262856 0.525712 0.808985
vn -0.146123 0.272408 0.950987
vn 0.019837 0.503800 0.863552
vn -0.949614 0.272408 -0.154881
vn -0.999939 0.008850 0.000000
vn -0.850642 0.525712 0.000000
vn -0.949614 0.272408 0.154881
vn -0.815180 0.503800 0.285714
vn -0.146123 0.272408 -0.950987
vn -0.309000 0.008850 -0.951018
vn -0.262856 0.525712 -0.808985
vn -0.440748 0.272408 -0.855251
vn -0.523637 0.503800 -0.686972
vn 0.859310 0.272408 -0.432844
vn 0.808985 0.008850 -0.587756
vn 0.688162 0.525712 -0.499985
vn 0.677206 0.272408 -0.683493
vn 0.491531 0.503800 -0.710288
vn 0.080569 0.965392 0.247963
vn 0.260750 0.965392 0.000000
vn 0.000000 1.000000 0.000000
vn 0.162450 0.850642 0.499985
vn 0.368206 0.890408 0.267495
vn 0.449629 0.727531 0.518143
vn 0.525712 0.850642 0.000000
vn 0.631733 0.727531 0.267495
vn -0.210944 0.965392 0.153264
vn -0.425306 0.850642 0.309000
vn -0.140629 0.890408 0.432844
vn -0.353832 0.727531 0.587725
vn -0.059206 0.727531 0.683493
vn -0.210944 0.965392 -0.153264
vn -0.425306 0.850642 -0.309000
vn -0.455123 0.890408 0.000000
vn -0.668325 0.727531 -0.154881
vn -0.668325 0.727531 0.154881
vn 0.080569 0.965392 -0.247963
vn 0.162450 0.850642 -0.499985
vn -0.140629 0.890408 -0.432844
vn -0.059206 0.727531 -0.683493
vn -0.353832 0.727531 -0.587725
vn 0.368206 0.890408 -0.267495
vn 0.631733 0.727531 -0.267495
vn 0.449629 0.727531 -0.518143
usemtl Material.001
s 1
f 1//1 2//2 3//3
f 4//4 5//5 6//6
f 1//1 3//3 7//7
f 1//1 7//7 8//8
f 1//1 8//8 9//9
f 4//4 6//6 10//10
f 11//11 12//12 13//13
f 14//14 15//15 16//16
f 17//17 18//18 19//19
f 20//20 21//21 22//22
f 4//4 10//10 23//23
f 11//11 13//13 24//24
f 14//14 16//16 25//25
f 17//17 19//19 26//26
f 20//20 22//22 27//27
f 28//28 29//29 30//30
f 31//31 32//32 33//33
f 34//34 35//35 36//36
f 37//37 38//38 39//39
f 40//40 41//41 42//42
f 43//43 12//12 11//11
f 44//44 45//45 43//43
f 3//3 46//46 44//44
f 43//43 45//45 12//12
f 45//45 47//47 12//12
f 44//44 46//46 45//45
f 46//46 48//48 45//45
f 45//45 48//48 47//47
f 48//48 49//49 47//47
f 3//3 2//2 46//46
f 2//2 50//50 46//46
f 46//46 50//50 48//48
f 50//50 5//5 48//48
f 48//48 5//5 49//49
f 5//5 4//4 49//49
f 51//51 52//52 20//20
f 53//53 54//54 51//51
f 6//6 55//55 53//53
f 51//51 54//54 52//52
f 54//54 56//56 52//52
f 53//53 55//55 54//54
f 55//55 57//57 54//54
f 54//54 57//57 56//56
f 57//57 9//9 56//56
f 6//6 5//5 55//55
f 5//5 50//50 55//55
f 55//55 50//50 57//57
f 50//50 2//2 57//57
f 57//57 2//2 9//9
f 2//2 1//1 9//9
f 58//58 15//15 14//14
f 59//59 60//60 58//58
f 7//7 61//61 59//59
f 58//58 60//60 15//15
f 60//60 62//62 15//15
f 59//59 61//61 60//60
f 61//61 63//63 60//60
f 60//60 63//63 62//62
f 63//63 64//64 62//62
f 7//7 3//3 61//61
f 3//3 44//44 61//61
f 61//61 44//44 63//63
f 44//44 43//43 63//63
f 63//63 43//43 64//64
f 43//43 11//11 64//64
f 65//65 18//18 17//17
f 66//66 67//67 65//65
f 8//8 68//68 66//66
f 65//65 67//67 18//18
f 67//67 69//69 18//18
f 66//66 68//68 67//67
f 68//68 70//70 67//67
f 67//67 70//70 69//69
f 70//70 71//71 69//69
f 8//8 7//7 68//68
f 7//7 59//59 68//68
f 68//68 59//59 70//70
f 59//59 58//58 70//70
f 70//70 58//58 71//71
f 58//58 14//14 71//71
f 52//52 21//21 20//20
f 56//56 72//72 52//52
f 9//9 73//73 56//56
f 52//52 72//72 21//21
f 72//72 74//74 21//21
f 56//56 73//73 72//72
f 73//73 75//75 72//72
f 72//72 75//75 74//74
f 75//75 76//76 74//74
f 9//9 8//8 73//73
f 8//8 66//66 73//73
f 73//73 66//66 75//75
f 66//66 65//65 75//75
f 75//75 65//65 76//76
f 65//65 17//17 76//76
f 77//77 78//78 40//40
f 79//79 80//80 77//77
f 10//10 81//81 79//79
f 77//77 80//80 78//78
f 80//80 82//82 78//78
f 79//79 81//81 80//80
f 81//81 83//83 80//80
f 80//80 83//83 82//82
f 83//83 27//27 82//82
f 10//10 6//6 81//81
f 6//6 53//53 81//81
f 81//81 53//53 83//83
f 53//53 51//51 83//83
f 83//83 51//51 27//27
f 51//51 20//20 27//27
f 84//84 85//85 28//28
f 86//86 87//87 84//84
f 13//13 88//88 86//86
f 84//84 87//87 85//85
f 87//87 89//89 85//85
f 86//86 88//88 87//87
f 88//88 90//90 87//87
f 87//87 90//90 89//89
f 90//90 23//23 89//89
f 13//13 12//12 88//88
f 12//12 47//47 88//88
f 88//88 47//47 90//90
f 47//47 49//49 90//90
f 90//90 49//49 23//23
f 49//49 4//4 23//23
f 91//91 92//92 31//31
f 93//93 94//94 91//91
f 16//16 95//95 93//93
f 91//91 94//94 92//92
f 94//94 96//96 92//92
f 93//93 95//95 94//94
f 95//95 97//97 94//94
f 94//94 97//97 96//96
f 97//97 24//24 96//96
f 16//16 15//15 95//95
f 15//15 62//62 95//95
f 95//95 62//62 97//97
f 62//62 64//64 97//97
f 97//97 64//64 24//24
f 64//64 11//11 24//24
f 98//98 99//99 34//34
f 100//100 101//101 98//98
f 19//19 102//102 100//100
f 98//98 101//101 99//99
f 101//101 103//103 99//99
f 100//100 102//102 101//101
f 102//102 104//104 101//101
f 101//101 104//104 103//103
f 104//104 25//25 103//103
f 19//19 18//18 102//102
f 18//18 69//69 102//102
f 102//102 69//69 104//104
f 69//69 71//71 104//104
f 104//104 71//71 25//25
f 71//71 14//14 25//25
f 105//105 106//106 37//37
f 107//107 108//108 105//105
f 22//22 109//109 107//107
f 105//105 108//108 106//106
f 108//108 110//110 106//106
f 107//107 109//109 108//108
f 109//109 111//111 108//108
f 108//108 111//111 110//110
f 111//111 26//26 110//110
f 22//22 21//21 109//109
f 21//21 74//74 109//109
f 109//109 74//74 111//111
f 74//74 76//76 111//111
f 111//111 76//76 26//26
f 76//76 17//17 26//26
f 85//85 29//29 28//28
f 89//89 112//112 85//85
f 23//23 113//113 89//89
f 85//85 112//112 29//29
f 112//112 114//114 29//29
f 89//89 113//113 112//112
f 113//113 115//115 112//112
f 112//112 115//115 114//114
f 115//115 116//116 114//114
f 23//23 10//10 113//113
f 10//10 79//79 113//113
f 113//113 79//79 115//115
f 79//79 77//77 115//115
f 115//115 77//77 116//116
f 77//77 40//40 116//116
f 92//92 32//32 31//31
f 96//96 117//117 92//92
f 24//24 118//118 96//96
f 92//92 117//117 32//32
f 117//117 119//119 32//32
f 96//96 118//118 117//117
f 118//118 120//120 117//117
f 117//117 120//120 119//119
f 120//120 121//121 119//119
f 24//24 13//13 118//118
f 13//13 86//86 118//118
f 118//118 86//86 120//120
f 86//86 84//84 120//120
f 120//120 84//84 121//121
f 84//84 28//28 121//121
f 99//99 35//35 34//34
f 103//103 122//122 99//99
f 25//25 123//123 103//103
f 99//99 122//122 35//35
f 122//122 124//124 35//35
f 103//103 123//123 122//122
f 123//123 125//125 122//122
f 122//122 125//125 124//124
f 125//125 126//126 124//124
f 25//25 16//16 123//123
f 16//16 93//93 123//123
f 123//123 93//93 125//125
f 93//93 91//91 125//125
f 125//125 91//91 126//126
f 91//91 31//31 126//126
f 106//106 38//38 37//37
f 110//110 127//127 106//106
f 26//26 128//128 110//110
f 106//106 127//127 38//38
f 127//127 129//129 38//38
f 110//110 128//128 127//127
f 128//128 130//130 127//127
f 127//127 130//130 129//129
f 130//130 131//131 129//129
f 26//26 19//19 128//128
f 19//19 100//100 128//128
f 128//128 100//100 130//130
f 100//100 98//98 130//130
f 130//130 98//98 131//131
f 98//98 34//34 131//131
f 78//78 41//41 40//40
f 82//82 132//132 78//78
f 27//27 133//133 82//82
f 78//78 132//132 41//41
f 132//132 134//134 41//41
f 82//82 133//133 132//132
f 133//133 135//135 132//132
f 132//132 135//135 134//134
f 135//135 136//136 134//134
f 27//27 22//22 133//133
f 22//22 107//107 133//133
f 133//133 107//107 135//135
f 107//107 105//105 135//135
f 135//135 105//105 136//136
f 105//105 37//37 136//136
f 137//137 138//138 139//139
f 140//140 141//141 137//137
f 30//30 142//142 140//140
f 137//137 141//141 138//138
f 141//141 143//143 138//138
f 140//140 142//142 141//141
f 142//142 144//144 141//141
f 141//141 144//144 143//143
f 144//144 42//42 143//143
f 30//30 29//29 142//142
f 29//29 114//114 142//142
f 142//142 114//114 144//144
f 114//114 116//116 144//144
f 144//144 116//116 42//42
f 116//116 40//40 42//42
f 145//145 137//137 139//139
f 146//146 147//147 145//145
f 33//33 148//148 146//146
f 145//145 147//147 137//137
f 147//147 140//140 137//137
f 146//146 148//148 147//147
f 148//148 149//149 147//147
f 147//147 149//149 140//140
f 149//149 30//30 140//140
f 33//33 32//32 148//148
f 32//32 119//119 148//148
f 148//148 119//119 149//149
f 119//119 121//121 149//149
f 149//149 121//121 30//30
f 121//121 28//28 30//30
f 150//150 145//145 139//139
f 151//151 152//152 150//150
f 36//36 153//153 151//151
f 150//150 152//152 145//145
f 152//152 146//146 145//145
f 151//151 153//153 152//152
f 153//153 154//154 152//152
f 152//152 154//154 146//146
f 154//154 33//33 146//146
f 36//36 35//35 153//153
f 35//35 124//124 153//153
f 153//153 124//124 154//154
f 124//124 126//126 154//154
f 154//154 126//126 33//33
f 126//126 31//31 33//33
f 155//155 150//150 139//139
f 156//156 157//157 155//155
f 39//39 158//158 156//156
f 155//155 157//157 150//150
f 157//157 151//151 150//150
f 156//156 158//158 157//157
f 158//158 159//159 157//157
f 157//157 159//159 151//151
f 159//159 36//36 151//151
f 39//39 38//38 158//158
f 38//38 129//129 158//158
f 158//158 129//129 159//159
f 129//129 131//131 159//159
f 159//159 131//131 36//36
f 131//131 34//34 36//36
f 138//138 155//155 139//139
f 143//143 160//160 138//138
f 42//42 161//161 143//143
f 138//138 160//160 155//155
f 160//160 156//156 155//155
f 143//143 161//161 160//160
f 161//161 162//162 160//160
f 160//160 162//162 156//156
f 162//162 39//39 156//156
f 42//42 41//41 161//161
f 41//41 134//134 161//161
f 161//161 134//134 162//162
f 134//134 136//136 162//162
f 162//162 136//136 39//39
f 136//136 37//37 39//39
