# Blender v2.69 (sub 0) OBJ File: 'T2_AO.blend'
# www.blender.org
mtllib turret_1_canon_bot.mtl
o Cylinder.000
v 1.425461 -4.532125 -2.520914
v 1.028729 -1.486403 -1.833756
v 2.815547 -4.532125 -0.113216
v 2.022084 -1.486403 -0.113216
v 1.425461 -4.532125 2.294483
v 1.028729 -1.486403 1.607324
v -1.354710 -4.532125 2.294483
v -0.957979 -1.486403 1.607324
v -2.744796 -4.532125 -0.113216
v -1.951333 -1.486403 -0.113216
v -1.354710 -4.532125 -2.520914
v -0.957979 -1.486403 -1.833756
v 1.028729 -3.339317 -1.833756
v 2.022084 -3.339317 -0.113216
v 1.028729 -3.339317 1.607324
v -0.957979 -3.339317 1.607324
v -1.951333 -3.339317 -0.113216
v -0.957979 -3.339317 -1.833756
v 1.206392 -4.532125 1.299060
v 1.833837 -4.532125 0.212294
v -1.762897 -4.532125 0.213000
v -1.173359 -4.532124 1.234110
v -0.505564 -4.532125 -1.836023
v 0.611544 -4.532125 -1.836023
v 0.030184 -4.708434 -4.501725
v 0.030184 -4.555955 -4.044827
v 2.607583 -4.708434 -3.664278
v 2.339025 -4.555955 -3.294639
v 4.200503 -4.708434 -1.471811
v 3.765968 -4.555955 -1.330622
v 4.200503 -4.708434 1.238227
v 3.765967 -4.555955 1.097038
v 2.607583 -4.708434 3.430694
v 2.339025 -4.555955 3.061055
v 0.030184 -4.708434 4.268141
v 0.030184 -4.555955 3.811243
v -2.547215 -4.708434 3.430693
v -2.278657 -4.555955 3.061055
v -4.140134 -4.708434 1.238227
v -3.705599 -4.555955 1.097038
v -4.140134 -4.708434 -1.471812
v -3.705599 -4.555955 -1.330622
v -2.547214 -4.708434 -3.664279
v -2.278656 -4.555955 -3.294640
v 0.030184 -4.555955 -0.116793
v 0.030184 -4.708435 -0.116793
vt 0.679653 0.566835
vt 0.601950 0.566820
vt 0.601874 0.502959
vt 0.679577 0.502974
vt 0.601936 0.424691
vt 0.679639 0.424706
vt 0.679446 0.719861
vt 0.601874 0.719861
vt 0.601874 0.636547
vt 0.679446 0.636547
vt 0.282979 0.429179
vt 0.360673 0.429188
vt 0.360008 0.501640
vt 0.282315 0.501631
vt 0.281753 0.644222
vt 0.359403 0.644549
vt 0.359403 0.727325
vt 0.281753 0.726998
vt 0.360673 0.573488
vt 0.282979 0.573479
vt 0.729649 0.598104
vt 0.729543 0.508738
vt 0.729649 0.438736
vt 0.729630 0.399210
vt 0.731055 0.736499
vt 0.731055 0.619911
vt 0.802024 0.442407
vt 0.751455 0.433528
vt 0.802024 0.401222
vt 0.232833 0.740051
vt 0.231770 0.709395
vt 0.231770 0.501866
vt 0.232699 0.602409
vt 0.729610 0.488174
vt 0.984612 0.010903
vt 0.984612 0.070910
vt 0.949913 0.033072
vt 0.232426 0.487888
vt 0.232821 0.444889
vt 0.232699 0.400478
vt 0.232833 0.624216
vt 0.231770 0.662851
vt 0.557364 0.377404
vt 0.557357 0.358840
vt 0.654179 0.327498
vt 0.665448 0.342416
vt 0.714019 0.245425
vt 0.732248 0.250796
vt 0.714019 0.143970
vt 0.732248 0.137541
vt 0.654179 0.061887
vt 0.665448 0.045910
vt 0.557357 0.030528
vt 0.557363 0.010903
vt 0.460534 0.061871
vt 0.449279 0.045892
vt 0.400695 0.143944
vt 0.382479 0.137511
vt 0.400695 0.245398
vt 0.382479 0.250766
vt 0.077703 0.046022
vt 0.185788 0.010903
vt 0.185788 0.194788
vt 0.449279 0.342397
vt 0.460534 0.327481
vt 0.557357 0.194684
vt 0.293873 0.046022
vt 0.360673 0.137964
vt 0.360673 0.251611
vt 0.293873 0.343553
vt 0.185788 0.378672
vt 0.077703 0.343553
vt 0.010903 0.251611
vt 0.010903 0.137964
vn 0.866025 0.000000 -0.500000
vn 0.866025 0.000000 0.500000
vn -0.000000 0.000000 1.000000
vn -0.866025 0.000000 0.500000
vn 0.000000 0.000000 -1.000000
vn -0.866025 -0.000000 -0.500000
vn 0.750411 0.499177 -0.433250
vn 0.957477 0.197068 -0.210718
vn 0.000000 0.499177 0.866500
vn -0.308571 0.205264 0.928790
vn -0.627928 0.221037 -0.746223
vn -0.750411 0.499178 -0.433250
vn 0.866026 -0.000228 0.500000
vn 0.308046 0.204914 0.929041
vn -0.866025 -0.000069 0.500000
vn -0.960455 0.224821 -0.164263
vn 0.610526 0.233002 -0.756947
vn 0.000000 0.001900 -0.999998
vn 0.102317 0.943593 -0.314901
vn 0.267871 0.943594 -0.194619
vn 0.331106 0.943594 0.000000
vn 0.267870 0.943594 0.194619
vn 0.102317 0.943594 0.314900
vn -0.102317 0.943594 0.314900
vn -0.267871 0.943593 0.194619
vn -0.331107 0.943593 0.000000
vn -0.000000 -1.000000 -0.000000
vn -0.102317 0.943594 -0.314901
vn -0.267870 0.943594 -0.194619
vn -0.000000 1.000000 -0.000000
usemtl batchbake_AOComp
s off
f 13/1/1 2/2/1 4/3/1 14/4/1
f 14/4/2 4/3/2 6/5/2 15/6/2
f 15/7/3 6/8/3 8/9/3 16/10/3
f 16/11/4 8/12/4 10/13/4 17/14/4
f 18/15/5 12/16/5 2/17/5 13/18/5
f 17/14/6 10/13/6 12/19/6 18/20/6
f 1/21/7 13/1/7 14/4/7 3/22/7
f 19/23/8 15/6/8 5/24/8
f 5/25/9 15/7/9 16/10/9 7/26/9
f 21/27/10 17/28/10 9/29/10
f 13/18/11 1/30/11 24/31/11
f 9/32/12 17/14/12 18/20/12 11/33/12
f 14/4/13 15/6/13 19/23/13 20/34/13
f 3/35/14 14/36/14 20/37/14
f 16/11/15 17/14/15 21/38/15 22/39/15
f 7/40/16 16/11/16 22/39/16
f 11/41/17 18/15/17 23/42/17
f 18/15/18 13/18/18 24/31/18 23/42/18
f 25/43/19 26/44/19 28/45/19 27/46/19
f 27/46/20 28/45/20 30/47/20 29/48/20
f 29/48/21 30/47/21 32/49/21 31/50/21
f 31/50/22 32/49/22 34/51/22 33/52/22
f 33/52/23 34/51/23 36/53/23 35/54/23
f 35/54/24 36/53/24 38/55/24 37/56/24
f 37/56/25 38/55/25 40/57/25 39/58/25
f 39/58/26 40/57/26 42/59/26 41/60/26
f 43/61/27 25/62/27 46/63/27
f 43/64/28 44/65/28 26/44/28 25/43/28
f 41/60/29 42/59/29 44/65/29 43/64/29
f 26/44/30 44/65/30 45/66/30
f 44/65/30 42/59/30 45/66/30
f 42/59/30 40/57/30 45/66/30
f 40/57/30 38/55/30 45/66/30
f 38/55/30 36/53/30 45/66/30
f 36/53/30 34/51/30 45/66/30
f 34/51/30 32/49/30 45/66/30
f 32/49/30 30/47/30 45/66/30
f 30/47/30 28/45/30 45/66/30
f 28/45/30 26/44/30 45/66/30
f 25/62/27 27/67/27 46/63/27
f 27/67/27 29/68/27 46/63/27
f 29/68/27 31/69/27 46/63/27
f 31/69/27 33/70/27 46/63/27
f 33/70/27 35/71/27 46/63/27
f 35/71/27 37/72/27 46/63/27
f 37/72/27 39/73/27 46/63/27
f 39/73/27 41/74/27 46/63/27
f 41/74/27 43/61/27 46/63/27
