# Blender v2.69 (sub 0) OBJ File: ''
# www.blender.org
mtllib piece3.mtl
o Box001.009
v -0.303405 0.737880 0.688950
v -0.303405 0.737880 -0.758235
v 0.168630 0.000000 -0.758235
v 0.168630 -0.000000 0.688950
v 0.429780 1.080780 0.688950
v 1.207830 0.380100 0.688950
v 1.207830 0.380100 -0.758235
v 0.429780 1.080780 -0.758235
vt 1.000000 0.000000
vt 1.000000 1.000000
vt 0.000000 0.000000
vt 0.000000 1.000000
vn -0.842379 -0.538885 -0.000000
vn 0.669194 0.743087 0.000000
vn 0.000000 -0.000000 1.000000
vn 0.343506 -0.939151 -0.000000
vn 0.000000 0.000000 -1.000000
vn -0.423643 0.905829 0.000000
vn 0.669194 0.743088 0.000000
usemtl None.003
s off
f 1/1/1 2/2/1 4/3/1
f 5/3/2 6/1/2 8/4/2
f 1/3/3 4/1/3 6/2/3
f 4/3/4 3/1/4 6/4/4
f 3/3/5 2/1/5 7/4/5
f 2/3/6 1/1/6 8/4/6
f 2/2/1 3/4/1 4/3/1
f 6/1/7 7/2/7 8/4/7
f 5/4/3 1/3/3 6/2/3
f 3/1/4 7/2/4 6/4/4
f 2/1/5 8/2/5 7/4/5
f 1/1/6 5/2/6 8/4/6
