# 3ds Max Wavefront OBJ Exporter v0.97b - (c)2007 guruware
# File Created: 14.03.2014 20:40:22

mtllib old_ray.mtl

#
# object Box001
#

v  -1.8155 -3.4070 39.9447
v  -2.5911 -4.6086 25.6590
v  -0.5911 -3.9330 25.6590
v  0.1845 -3.7997 39.9447
v  1.4089 -2.6316 25.6590
v  2.1845 -2.6079 39.9447
v  3.4089 -2.6381 25.6590
v  4.1845 -2.2596 39.9447
v  -3.0943 0.2990 11.3733
v  -1.0943 1.2662 11.3733
v  0.9057 0.6718 11.3733
v  2.9057 1.4520 11.3733
v  -2.0430 -0.0375 -2.9124
v  -0.0430 1.3804 -2.9124
v  1.9570 1.8467 -2.9124
v  3.9570 2.6052 -2.9124
v  -1.2069 0.6792 -17.1982
v  0.7931 1.6409 -17.1982
v  2.7931 1.6213 -17.1982
v  4.7931 1.8214 -17.1982
v  -1.0866 3.6421 -31.4839
v  0.9134 3.7974 -31.4839
v  2.9134 3.5488 -31.4839
v  4.9134 2.5019 -31.4839
v  -0.8193 2.5713 -45.7696
v  1.1807 1.4812 -45.7696
v  3.1807 -1.2717 -45.7696
v  5.1807 -2.8562 -45.7696
v  -0.9965 0.7294 -60.0553
v  1.0035 1.9733 -60.0553
v  3.0035 3.6698 -60.0553
v  5.0035 3.0715 -60.0553
v  -1.8542 -1.4070 39.9447
v  0.1458 -1.7997 39.9447
v  -0.7098 -1.9330 25.6590
v  -2.7098 -2.6086 25.6590
v  2.1458 -0.6079 39.9447
v  1.2902 -0.6316 25.6590
v  4.1458 -0.2596 39.9447
v  3.2902 -0.6381 25.6590
v  -1.0275 3.2662 11.3733
v  -3.0275 2.2990 11.3733
v  0.9725 2.6718 11.3733
v  2.9725 3.4520 11.3733
v  -0.1633 3.3804 -2.9124
v  -2.1633 1.9625 -2.9124
v  1.8367 3.8467 -2.9124
v  3.8367 4.6052 -2.9124
v  0.9492 3.6409 -17.1982
v  -1.0508 2.6792 -17.1982
v  2.9492 3.6213 -17.1982
v  4.9492 3.8214 -17.1982
v  0.7863 5.7974 -31.4839
v  -1.2137 5.6421 -31.4839
v  2.7863 5.5488 -31.4839
v  4.7863 4.5019 -31.4839
v  1.0448 3.4812 -45.7696
v  -0.9552 4.5713 -45.7696
v  3.0448 0.7283 -45.7696
v  5.0448 -0.8562 -45.7696
v  0.7847 3.9733 -60.0553
v  -1.2153 2.7294 -60.0553
v  2.7847 5.6698 -60.0553
v  4.7847 5.0715 -60.0553
v  0.2341 -3.1330 39.9447
v  -1.7659 -2.7403 39.9447
v  2.2341 -1.9412 39.9447
v  4.2341 -1.5929 39.9447
v  0.1965 -2.4663 39.9447
v  -1.8035 -2.0736 39.9447
v  2.1965 -1.2746 39.9447
v  4.1965 -0.9263 39.9447
v  3.3491 -1.9715 25.6590
v  2.9062 2.1186 11.3733
v  3.9157 3.2719 -2.9124
v  4.8671 2.4881 -17.1982
v  4.8668 3.1685 -31.4839
v  5.0779 -2.1895 -45.7696
v  4.9513 3.7382 -60.0553
v  3.3102 -1.3048 25.6590
v  2.9181 2.7853 11.3733
v  3.8602 3.9385 -2.9124
v  4.9428 3.1548 -17.1982
v  4.8391 3.8352 -31.4839
v  5.0724 -1.5229 -45.7696
v  4.8605 4.4048 -60.0553
v  2.9513 4.3364 -60.0553
v  0.9513 2.6399 -60.0553
v  -1.0487 1.3961 -60.0553
v  2.8605 5.0031 -60.0553
v  0.8605 3.3066 -60.0553
v  -1.1395 2.0627 -60.0553
v  -0.9221 3.2380 -45.7696
v  -1.1332 4.3088 -31.4839
v  -1.1329 1.3459 -17.1982
v  -2.0843 0.6291 -2.9124
v  -3.0938 0.9657 11.3733
v  -2.6509 -3.9419 25.6590
v  -0.9276 3.9046 -45.7696
v  -1.1609 4.9754 -31.4839
v  -1.0572 2.0126 -17.1982
v  -2.1398 1.2958 -2.9124
v  -3.0819 1.6324 11.3733
v  -2.6898 -3.2753 25.6590
# 104 vertices

vn -0.1479 -0.9887 0.0237
vn 0.3224 -0.9364 -0.1386
vn 0.4019 -0.9060 -0.1330
vn 0.1853 -0.9827 -0.0042
vn 0.2953 -0.9460 -0.1336
vn 0.3346 -0.9424 -0.0048
vn 0.0047 -0.9911 -0.1334
vn 0.1715 -0.9850 0.0168
vn 0.4383 -0.8861 -0.1509
vn 0.0984 -0.9787 -0.1801
vn 0.0515 -0.9811 -0.1864
vn 0.3461 -0.9285 -0.1343
vn 0.5712 -0.8198 0.0393
vn 0.4013 -0.9156 0.0275
vn 0.2761 -0.9611 0.0100
vn 0.3550 -0.9348 0.0133
vn 0.4181 -0.9052 -0.0761
vn 0.2173 -0.9730 -0.0781
vn 0.0375 -0.9983 -0.0453
vn 0.1118 -0.9937 -0.0108
vn 0.0501 -0.9984 -0.0269
vn -0.0396 -0.9988 0.0282
vn -0.2917 -0.9524 0.0883
vn -0.4401 -0.8914 0.1081
vn -0.4384 -0.8985 0.0235
vn -0.6364 -0.7711 -0.0186
vn -0.6907 -0.7222 -0.0360
vn -0.6131 -0.7896 -0.0245
vn 0.5253 -0.8447 0.1024
vn 0.5532 -0.8325 0.0301
vn 0.1199 -0.9701 -0.2110
vn -0.3050 -0.8996 -0.3124
vn 0.1481 0.9887 -0.0245
vn -0.1865 0.9824 0.0053
vn -0.4014 0.9064 0.1320
vn -0.3225 0.9366 0.1372
vn -0.3340 0.9425 0.0066
vn -0.2969 0.9457 0.1323
vn -0.1715 0.9850 -0.0158
vn -0.0046 0.9910 0.1338
vn -0.0957 0.9789 0.1807
vn -0.4382 0.8861 0.1510
vn -0.0542 0.9811 0.1857
vn -0.3460 0.9285 0.1348
vn -0.4029 0.9148 -0.0289
vn -0.5712 0.8198 -0.0406
vn -0.2754 0.9613 -0.0109
vn -0.3550 0.9348 -0.0148
vn -0.2146 0.9736 0.0782
vn -0.4182 0.9052 0.0754
vn -0.0381 0.9983 0.0445
vn -0.1119 0.9937 0.0106
vn 0.0390 0.9988 -0.0282
vn -0.0499 0.9984 0.0265
vn 0.2906 0.9525 -0.0910
vn 0.4401 0.8911 -0.1109
vn 0.6367 0.7710 0.0167
vn 0.4384 0.8984 -0.0247
vn 0.6907 0.7224 0.0341
vn 0.6131 0.7897 0.0222
vn -0.5530 0.8327 -0.0271
vn -0.5255 0.8450 -0.0994
vn -0.1214 0.9699 0.2112
vn 0.3051 0.9002 0.3108
vn 0.0000 0.0000 1.0000
vn 0.9958 -0.0694 -0.0596
vn 0.9956 0.0879 -0.0336
vn 0.9967 0.0735 -0.0339
vn 0.9981 -0.0078 -0.0617
vn 0.9999 0.0002 0.0120
vn 0.9998 -0.0085 0.0162
vn 0.9957 0.0592 0.0706
vn 0.9949 0.0708 0.0722
vn 0.9938 -0.1076 0.0297
vn 0.9936 -0.1091 0.0297
vn 0.9975 0.0707 -0.0012
vn 0.9986 0.0523 0.0013
vn 0.9885 0.1512 0.0067
vn 0.9952 0.0980 0.0058
vn 0.9967 0.0781 0.0200
vn 0.9927 0.1145 0.0374
vn 0.9983 0.0447 -0.0377
vn 0.9959 0.0654 -0.0625
vn 0.9987 -0.0502 0.0076
vn 0.9957 0.0568 0.0729
vn 0.9977 -0.0607 0.0310
vn 0.9981 0.0613 -0.0039
vn 0.9998 0.0215 0.0001
vn 0.9921 0.1196 0.0370
vn 0.9989 0.0307 -0.0363
vn 0.9952 0.0757 -0.0616
vn 0.9968 -0.0797 0.0085
vn 0.9969 0.0333 0.0719
vn 0.9994 -0.0089 0.0322
vn 0.9970 0.0774 -0.0072
vn 0.9991 0.0417 -0.0003
vn 0.9934 0.1105 0.0310
vn -0.0000 -0.0000 -1.0000
vn 0.0000 -0.0000 -1.0000
vn -0.0000 0.0000 -1.0000
vn 0.0000 0.0000 -1.0000
vn -0.9966 -0.0804 0.0193
vn -0.9884 -0.1512 0.0153
vn -0.9969 -0.0791 0.0054
vn -0.9944 -0.1024 0.0247
vn -0.9976 -0.0674 -0.0136
vn -0.9985 -0.0539 -0.0095
vn -0.9938 0.1077 -0.0263
vn -0.9938 0.1088 -0.0236
vn -0.9960 -0.0608 -0.0652
vn -0.9954 -0.0700 -0.0661
vn -0.9999 -0.0004 -0.0168
vn -0.9998 0.0093 -0.0199
vn -0.9955 -0.0865 0.0394
vn -0.9965 -0.0751 0.0376
vn -0.9961 0.0742 0.0478
vn -0.9983 0.0031 0.0581
vn -0.9997 -0.0263 0.0002
vn -0.9918 -0.1238 0.0322
vn -0.9981 -0.0610 -0.0071
vn -0.9977 0.0622 -0.0283
vn -0.9961 -0.0572 -0.0677
vn -0.9986 0.0516 -0.0130
vn -0.9982 -0.0458 0.0392
vn -0.9955 -0.0665 0.0673
vn -0.9991 -0.0424 0.0016
vn -0.9931 -0.1129 0.0326
vn -0.9969 -0.0783 -0.0079
vn -0.9995 0.0084 -0.0308
vn -0.9971 -0.0344 -0.0685
vn -0.9967 0.0793 -0.0151
vn -0.9988 -0.0288 0.0385
vn -0.9949 -0.0743 0.0679
# 133 vertex normals

vt 1.0000 0.0000 0.0000
vt 1.0000 0.1429 0.0000
vt 0.6667 0.1429 0.0000
vt 0.6667 0.0000 0.0000
vt 0.3333 0.1429 0.0000
vt 0.3333 0.0000 0.0000
vt 0.0000 0.1429 0.0000
vt 0.0000 0.0000 0.0000
vt 1.0000 0.2857 0.0000
vt 0.6667 0.2857 0.0000
vt 0.3333 0.2857 0.0000
vt 0.0000 0.2857 0.0000
vt 1.0000 0.4286 0.0000
vt 0.6667 0.4286 0.0000
vt 0.3333 0.4286 0.0000
vt 0.0000 0.4286 0.0000
vt 1.0000 0.5714 0.0000
vt 0.6667 0.5714 0.0000
vt 0.3333 0.5714 0.0000
vt 0.0000 0.5714 0.0000
vt 1.0000 0.7143 0.0000
vt 0.6667 0.7143 0.0000
vt 0.3333 0.7143 0.0000
vt 0.0000 0.7143 0.0000
vt 1.0000 0.8571 0.0000
vt 0.6667 0.8571 0.0000
vt 0.3333 0.8571 0.0000
vt 0.0000 0.8571 0.0000
vt 1.0000 1.0000 0.0000
vt 0.6667 1.0000 0.0000
vt 0.3333 1.0000 0.0000
vt 0.0000 1.0000 0.0000
vt 0.3333 0.3333 0.0000
vt 0.0000 0.3333 0.0000
vt 0.6667 0.3333 0.0000
vt 1.0000 0.3333 0.0000
vt 0.3333 0.6667 0.0000
vt 0.0000 0.6667 0.0000
vt 0.6667 0.6667 0.0000
vt 1.0000 0.6667 0.0000
vt 0.1429 0.0000 0.0000
vt 0.1429 0.3333 0.0000
vt 0.2857 0.0000 0.0000
vt 0.2857 0.3333 0.0000
vt 0.4286 0.0000 0.0000
vt 0.4286 0.3333 0.0000
vt 0.5714 0.0000 0.0000
vt 0.5714 0.3333 0.0000
vt 0.7143 0.0000 0.0000
vt 0.7143 0.3333 0.0000
vt 0.8571 0.0000 0.0000
vt 0.8571 0.3333 0.0000
vt 0.1429 0.6667 0.0000
vt 0.2857 0.6667 0.0000
vt 0.4286 0.6667 0.0000
vt 0.5714 0.6667 0.0000
vt 0.7143 0.6667 0.0000
vt 0.8571 0.6667 0.0000
vt 0.1429 1.0000 0.0000
vt 0.2857 1.0000 0.0000
vt 0.4286 1.0000 0.0000
vt 0.5714 1.0000 0.0000
vt 0.7143 1.0000 0.0000
vt 0.8571 1.0000 0.0000
# 64 texture coords

g Box001
usemtl wire_229166215
s 2
f 1/1/1 2/2/2 3/3/3 4/4/4
f 4/4/4 3/3/3 5/5/5 6/6/6
f 6/6/6 5/5/5 7/7/7 8/8/8
f 2/2/2 9/9/9 10/10/10 3/3/3
f 3/3/3 10/10/10 11/11/11 5/5/5
f 5/5/5 11/11/11 12/12/12 7/7/7
f 9/9/9 13/13/13 14/14/14 10/10/10
f 10/10/10 14/14/14 15/15/15 11/11/11
f 11/11/11 15/15/15 16/16/16 12/12/12
f 13/13/13 17/17/17 18/18/18 14/14/14
f 14/14/14 18/18/18 19/19/19 15/15/15
f 15/15/15 19/19/19 20/20/20 16/16/16
f 17/17/17 21/21/21 22/22/22 18/18/18
f 18/18/18 22/22/22 23/23/23 19/19/19
f 19/19/19 23/23/23 24/24/24 20/20/20
f 21/21/21 25/25/25 26/26/26 22/22/22
f 22/22/22 26/26/26 27/27/27 23/23/23
f 23/23/23 27/27/27 28/28/28 24/24/24
f 25/25/25 29/29/29 30/30/30 26/26/26
f 26/26/26 30/30/30 31/31/31 27/27/27
f 27/27/27 31/31/31 32/32/32 28/28/28
s 4
f 33/8/33 34/6/34 35/5/35 36/7/36
f 34/6/34 37/4/37 38/3/38 35/5/35
f 37/4/37 39/1/39 40/2/40 38/3/38
f 36/7/36 35/5/35 41/11/41 42/12/42
f 35/5/35 38/3/38 43/10/43 41/11/41
f 38/3/38 40/2/40 44/9/44 43/10/43
f 42/12/42 41/11/41 45/15/45 46/16/46
f 41/11/41 43/10/43 47/14/47 45/15/45
f 43/10/43 44/9/44 48/13/48 47/14/47
f 46/16/46 45/15/45 49/19/49 50/20/50
f 45/15/45 47/14/47 51/18/51 49/19/49
f 47/14/47 48/13/48 52/17/52 51/18/51
f 50/20/50 49/19/49 53/23/53 54/24/54
f 49/19/49 51/18/51 55/22/55 53/23/53
f 51/18/51 52/17/52 56/21/56 55/22/55
f 54/24/54 53/23/53 57/27/57 58/28/58
f 53/23/53 55/22/55 59/26/59 57/27/57
f 55/22/55 56/21/56 60/25/60 59/26/59
f 58/28/58 57/27/57 61/31/61 62/32/62
f 57/27/57 59/26/59 63/30/63 61/31/61
f 59/26/59 60/25/60 64/29/64 63/30/63
s 8
f 1/8/65 4/6/65 65/33/65 66/34/65
f 4/6/65 6/4/65 67/35/65 65/33/65
f 6/4/65 8/1/65 68/36/65 67/35/65
f 66/34/65 65/33/65 69/37/65 70/38/65
f 65/33/65 67/35/65 71/39/65 69/37/65
f 67/35/65 68/36/65 72/40/65 71/39/65
f 70/38/65 69/37/65 34/31/65 33/32/65
f 69/37/65 71/39/65 37/30/65 34/31/65
f 71/39/65 72/40/65 39/29/65 37/30/65
s 16
f 8/8/66 7/41/67 73/42/68 68/34/69
f 7/41/67 12/43/70 74/44/71 73/42/68
f 12/43/70 16/45/72 75/46/73 74/44/71
f 16/45/72 20/47/74 76/48/75 75/46/73
f 20/47/74 24/49/76 77/50/77 76/48/75
f 24/49/76 28/51/78 78/52/79 77/50/77
f 28/51/78 32/1/80 79/36/81 78/52/79
f 68/34/69 73/42/68 80/53/82 72/38/83
f 73/42/68 74/44/71 81/54/84 80/53/82
f 74/44/71 75/46/73 82/55/85 81/54/84
f 75/46/73 76/48/75 83/56/86 82/55/85
f 76/48/75 77/50/77 84/57/87 83/56/86
f 77/50/77 78/52/79 85/58/88 84/57/87
f 78/52/79 79/36/81 86/40/89 85/58/88
f 72/38/83 80/53/82 40/59/90 39/32/91
f 80/53/82 81/54/84 44/60/92 40/59/90
f 81/54/84 82/55/85 48/61/93 44/60/92
f 82/55/85 83/56/86 52/62/94 48/61/93
f 83/56/86 84/57/87 56/63/95 52/62/94
f 84/57/87 85/58/88 60/64/96 56/63/95
f 85/58/88 86/40/89 64/29/97 60/64/96
s 32
f 32/8/98 31/6/99 87/33/99 79/34/98
f 31/6/99 30/4/99 88/35/99 87/33/99
f 30/4/99 29/1/99 89/36/99 88/35/99
f 79/34/98 87/33/99 90/37/100 86/38/101
f 87/33/99 88/35/99 91/39/100 90/37/100
f 88/35/99 89/36/99 92/40/100 91/39/100
f 86/38/101 90/37/100 63/31/100 64/32/101
f 90/37/100 91/39/100 61/30/100 63/31/100
f 91/39/100 92/40/100 62/29/100 61/30/100
s 64
f 29/8/102 25/41/103 93/42/104 89/34/105
f 25/41/103 21/43/106 94/44/107 93/42/104
f 21/43/106 17/45/108 95/46/109 94/44/107
f 17/45/108 13/47/110 96/48/111 95/46/109
f 13/47/110 9/49/112 97/50/113 96/48/111
f 9/49/112 2/51/114 98/52/115 97/50/113
f 2/51/114 1/1/116 66/36/117 98/52/115
f 89/34/105 93/42/104 99/53/118 92/38/119
f 93/42/104 94/44/107 100/54/120 99/53/118
f 94/44/107 95/46/109 101/55/121 100/54/120
f 95/46/109 96/48/111 102/56/122 101/55/121
f 96/48/111 97/50/113 103/57/123 102/56/122
f 97/50/113 98/52/115 104/58/124 103/57/123
f 98/52/115 66/36/117 70/40/125 104/58/124
f 92/38/119 99/53/118 58/59/126 62/32/127
f 99/53/118 100/54/120 54/60/128 58/59/126
f 100/54/120 101/55/121 50/61/129 54/60/128
f 101/55/121 102/56/122 46/62/130 50/61/129
f 102/56/122 103/57/123 42/63/131 46/62/130
f 103/57/123 104/58/124 36/64/132 42/63/131
f 104/58/124 70/40/125 33/29/133 36/64/132
# 102 polygons

