# Blender v2.68 (sub 0) OBJ File: 'rocket.blend'
# www.blender.org
mtllib rocket.mtl
o Cube
v -1.792972 -0.209781 0.234733
v -1.792972 -0.209781 -0.234733
v 0.415530 -0.209781 -0.468670
v 0.415530 -0.209781 0.468670
v -1.792972 0.209781 0.234733
v -1.792972 0.209781 -0.234733
v 0.415530 0.209781 -0.468670
v 0.415530 0.209781 0.468670
v 1.217767 -0.209781 -0.468670
v 1.217767 -0.209781 0.468670
v 1.217767 0.209781 -0.468670
v 1.217767 0.209781 0.468670
v 1.080821 -0.209781 -0.964485
v 1.080821 -0.209781 0.964485
v 1.080821 0.209781 -0.964485
v 1.080821 0.209781 0.964485
v 1.883058 -0.209781 -0.964485
v 1.883058 -0.209781 0.964485
v 1.883058 0.209781 -0.964485
v 1.883058 0.209781 0.964485
vn -1.000000 0.000000 0.000000
vn -0.105337 0.000000 -0.994437
vn 0.597565 0.000000 -0.801820
vn -0.105337 0.000000 0.994437
vn -0.000000 -1.000000 0.000000
vn -0.000000 1.000000 0.000000
vn 1.000000 -0.000000 0.000000
vn 0.000000 0.000000 1.000000
vn -0.000000 0.000000 -1.000000
vn 0.597565 0.000000 0.801820
vn -0.597565 0.000000 -0.801820
vn -0.597565 0.000000 0.801820
usemtl None
s off
f 5//1 6//1 2//1 1//1
f 6//2 7//2 3//2 2//2
f 10//3 12//3 20//3 18//3
f 8//4 5//4 1//4 4//4
f 1//5 2//5 3//5 4//5
f 8//6 7//6 6//6 5//6
f 11//7 12//7 10//7 9//7
f 7//6 11//6 19//6 15//6
f 4//5 3//5 9//5 10//5
f 7//6 8//6 12//6 11//6
f 16//8 14//8 18//8 20//8
f 13//9 15//9 19//9 17//9
f 12//6 8//6 16//6 20//6
f 4//5 10//5 18//5 14//5
f 9//5 3//5 13//5 17//5
f 11//10 9//10 17//10 19//10
f 3//11 7//11 15//11 13//11
f 8//12 4//12 14//12 16//12
