# Blender v2.69 (sub 0) OBJ File: ''
# www.blender.org
mtllib turret2top.mtl
o Cylinder003
v -7.260000 1.038400 -0.926198
v -7.260000 -0.583300 -0.926198
v -7.260000 -0.461700 -1.047798
v -7.260000 0.916800 -1.047798
v -7.260000 -0.583300 -1.899198
v -7.260000 -0.461699 -1.777498
v -7.260000 1.038402 -1.899198
v -7.260000 0.916800 -1.777498
v -4.016700 -0.461700 -1.047798
v -4.016700 0.916800 -1.047798
v -4.016700 0.916800 -1.777498
v -4.016700 -0.461699 -1.777498
v -4.016700 -0.583300 -0.926198
v -4.016700 1.038400 -0.926198
v -4.016700 -0.583300 -1.899198
v -4.016700 1.038402 -1.899198
v -2.800500 -0.583300 -0.926198
v -2.800500 1.038400 -0.926198
v -2.800500 1.038402 -1.899198
v -2.800500 -0.583300 -1.899198
v -4.016700 1.434402 -1.777498
v -4.016700 1.434400 -1.047798
v -2.922100 1.434400 -1.047798
v -2.922100 1.434402 -1.777498
v -1.989700 -0.461700 -1.047798
v -1.989700 0.916800 -1.047798
v -1.989700 0.916800 -1.777498
v -1.989700 -0.461699 -1.777498
v -1.178800 -0.461700 -1.047798
v -1.178800 0.916800 -1.047798
v -1.178800 0.916800 -1.777498
v -1.178800 -0.461699 -1.777498
v -0.773400 -0.224000 -1.047798
v -0.773400 0.679100 -1.047798
v -0.773400 0.679101 -1.777498
v -0.773400 -0.224000 -1.777498
v -0.368000 -0.224000 -1.047798
v -0.368000 0.679100 -1.047798
v -0.368000 0.679101 -1.777498
v -0.368000 -0.224000 -1.777498
v 0.037400 -0.461700 -1.047798
v 0.037400 0.916800 -1.047798
v 0.037400 0.916800 -1.777498
v 0.037400 -0.461699 -1.777498
v 0.848200 -0.461700 -1.047798
v 0.848200 0.916800 -1.047798
v 0.848200 0.916800 -1.777498
v 0.848200 -0.461699 -1.777498
v 1.659100 -0.461700 -1.047798
v 1.659100 0.916800 -1.047798
v 1.659100 0.916800 -1.777498
v 1.659100 -0.461699 -1.777498
v 1.071600 1.438302 -1.777498
v 1.071600 1.438300 -1.047798
v 1.659100 1.727600 -1.047798
v 1.659100 1.727602 -1.777498
v -4.827600 0.916800 -1.047798
v -4.827600 0.916800 -1.777498
v -4.705900 1.434402 -1.777498
v -4.705900 1.434400 -1.047798
v -4.827600 1.038402 -1.899198
v -4.827600 1.038400 -0.926198
v -8.881700 -0.583300 -0.926198
v -8.881700 1.038400 -0.926198
v -8.881700 0.916800 -1.047798
v -8.881700 -0.461700 -1.047798
v -8.881700 1.038402 -1.899198
v -8.881700 0.916800 -1.777498
v -8.881700 -0.583300 -1.899198
v -8.881700 -0.461699 -1.777498
v -7.665500 0.916800 -1.047798
v -7.665500 -0.461700 -1.047798
v -7.665500 -0.461699 -1.777498
v -7.665500 0.916800 -1.777498
v -7.260000 1.038400 1.914702
v -7.260000 -0.583302 1.914702
v -7.260000 -0.461700 1.793002
v -7.260000 0.916800 1.793002
v -7.260000 -0.583300 0.941702
v -7.260000 -0.461700 1.063302
v -7.260000 1.038400 0.941702
v -7.260000 0.916800 1.063302
v -4.016700 -0.461700 1.793002
v -4.016700 0.916800 1.793002
v -4.016700 0.916800 1.063302
v -4.016700 -0.461700 1.063302
v -4.016700 -0.583302 1.914702
v -4.016700 1.038400 1.914702
v -4.016700 -0.583300 0.941702
v -4.016700 1.038400 0.941702
v -2.800500 -0.583302 1.914702
v -2.800500 1.038400 1.914702
v -2.800500 1.038400 0.941702
v -2.800500 -0.583300 0.941702
v -4.016700 1.434400 1.063302
v -4.016700 1.434400 1.793002
v -2.922100 1.434400 1.793002
v -2.922100 1.434400 1.063302
v -1.989700 -0.461700 1.793002
v -1.989700 0.916800 1.793002
v -1.989700 0.916800 1.063302
v -1.989700 -0.461700 1.063302
v -1.178800 -0.461700 1.793002
v -1.178800 0.916800 1.793002
v -1.178800 0.916800 1.063302
v -1.178800 -0.461700 1.063302
v -0.773400 -0.224000 1.793002
v -0.773400 0.679100 1.793002
v -0.773400 0.679100 1.063302
v -0.773400 -0.224000 1.063302
v -0.368000 -0.224000 1.793002
v -0.368000 0.679100 1.793002
v -0.368000 0.679100 1.063302
v -0.368000 -0.224000 1.063302
v 0.037400 -0.461700 1.793002
v 0.037400 0.916800 1.793002
v 0.037400 0.916800 1.063302
v 0.037400 -0.461700 1.063302
v 0.848200 -0.461700 1.793002
v 0.848200 0.916800 1.793002
v 0.848200 0.916800 1.063302
v 0.848200 -0.461700 1.063302
v 1.659100 -0.461700 1.793002
v 1.659100 0.916800 1.793002
v 1.659100 0.916800 1.063302
v 1.659100 -0.461700 1.063302
v 1.071600 1.438300 1.063302
v 1.071600 1.438300 1.793002
v 1.659100 1.727600 1.793002
v 1.659100 1.727600 1.063302
v -4.827600 0.916800 1.793002
v -4.827600 0.916800 1.063302
v -4.705900 1.434400 1.063302
v -4.705900 1.434400 1.793002
v -4.827600 1.038400 0.941702
v -4.827600 1.038400 1.914702
v -8.881700 -0.583302 1.914702
v -8.881700 1.038400 1.914702
v -8.881700 0.916800 1.793002
v -8.881700 -0.461700 1.793002
v -8.881700 1.038400 0.941702
v -8.881700 0.916800 1.063302
v -8.881700 -0.583300 0.941702
v -8.881700 -0.461700 1.063302
v -7.665500 0.916800 1.793002
v -7.665500 -0.461700 1.793002
v -7.665500 -0.461700 1.063302
v -7.665500 0.916800 1.063302
v -1.255800 -0.277400 1.101102
v -1.233200 -0.033200 1.101102
v -1.233200 -0.033200 -1.109298
v -1.255800 -0.277400 -1.109298
v -1.166100 0.202800 1.101102
v -1.166100 0.202800 -1.109298
v -1.056700 0.422300 1.101102
v -1.056700 0.422300 -1.109298
v -0.908900 0.618100 1.101102
v -0.908900 0.618100 -1.109298
v -0.727700 0.783300 1.101102
v -0.727700 0.783300 -1.109298
v -0.519100 0.912400 1.101102
v -0.519100 0.912400 -1.109298
v -0.290400 1.001000 1.101102
v -0.290400 1.001000 -1.109298
v -0.049300 1.046100 1.101102
v -0.049300 1.046100 -1.109298
v 0.196000 1.046100 1.101102
v 0.196000 1.046100 -1.109298
v 0.437100 1.001000 1.101102
v 0.437100 1.001000 -1.109298
v 0.665800 0.912400 1.101102
v 0.665800 0.912400 -1.109298
v 0.874300 0.783300 1.101102
v 0.874300 0.783300 -1.109298
v 1.055600 0.618100 1.101102
v 1.055600 0.618100 -1.109298
v 1.203400 0.422300 1.101102
v 1.203400 0.422300 -1.109298
v 1.312700 0.202800 1.101102
v 1.312700 0.202800 -1.109298
v 1.379900 -0.033200 1.101102
v 1.379900 -0.033200 -1.109298
v 1.402500 -0.277400 1.101102
v 1.402500 -0.277400 -1.109298
v 0.073300 -0.277400 1.101102
v 0.073300 -0.277400 -1.109298
vt 0.908817 0.481960
vt 0.908817 0.363196
vt 0.917753 0.372101
vt 0.917753 0.473055
vt 0.980322 0.363196
vt 0.971378 0.372101
vt 0.980322 0.481960
vt 0.971378 0.473055
vt 0.444807 0.729581
vt 0.343554 0.729555
vt 0.343554 0.491216
vt 0.444807 0.491242
vt 0.063905 0.491236
vt 0.165163 0.491213
vt 0.165163 0.729553
vt 0.063905 0.729576
vt 0.623190 0.729581
vt 0.623190 0.675956
vt 0.861491 0.675956
vt 0.861491 0.729581
vt 0.495363 0.975888
vt 0.495363 0.875296
vt 0.504299 0.866422
vt 0.504299 0.984762
vt 0.441738 0.875296
vt 0.432795 0.866422
vt 0.441738 0.975888
vt 0.432795 0.984762
vt 0.552281 0.063976
vt 0.671351 0.060659
vt 0.673863 0.149998
vt 0.554793 0.153315
vt 0.162655 0.426143
vt 0.043578 0.422827
vt 0.046086 0.333487
vt 0.165163 0.336803
vt 0.940094 0.543962
vt 0.993719 0.543962
vt 0.993719 0.624388
vt 0.940094 0.624388
vt 0.666327 0.209886
vt 0.565113 0.212706
vt 0.056419 0.274100
vt 0.157638 0.276919
vt 0.331816 0.738395
vt 0.331816 0.809900
vt 0.272419 0.800964
vt 0.272419 0.747339
vt 0.668002 0.269453
vt 0.566788 0.272273
vt 0.058091 0.214533
vt 0.159310 0.217352
vt 0.212838 0.800964
vt 0.212838 0.747339
vt 0.651386 0.299719
vt 0.585078 0.301566
vt 0.076381 0.185240
vt 0.142693 0.187086
vt 0.183396 0.800964
vt 0.183396 0.747339
vt 0.652224 0.329499
vt 0.585915 0.331346
vt 0.077217 0.155460
vt 0.143529 0.157306
vt 0.153609 0.800964
vt 0.153609 0.747339
vt 0.670514 0.358792
vt 0.569300 0.361612
vt 0.060599 0.125194
vt 0.161818 0.128012
vt 0.123478 0.800964
vt 0.123478 0.747339
vt 0.672188 0.418352
vt 0.570975 0.421171
vt 0.062272 0.065634
vt 0.163491 0.068452
vt 0.063905 0.800964
vt 0.063905 0.747339
vt 0.673863 0.477918
vt 0.572650 0.480738
vt 0.063944 0.006067
vt 0.165163 0.008885
vt 0.011501 0.544838
vt 0.011501 0.491213
vt 0.055086 0.491213
vt 0.055086 0.544838
vt 0.995591 0.146334
vt 0.995591 0.199959
vt 0.935998 0.199959
vt 0.935998 0.146334
vt 0.940094 0.493323
vt 0.993719 0.493323
vt 0.483581 0.571539
vt 0.483581 0.643044
vt 0.453837 0.634100
vt 0.453838 0.580475
vt 0.014232 0.421941
vt 0.016490 0.341534
vt 0.041906 0.482394
vt 0.012811 0.472569
vt 0.483581 0.491216
vt 0.483581 0.562720
vt 0.453626 0.553784
vt 0.453626 0.500159
vt 0.550606 0.004409
vt 0.522922 0.064866
vt 0.521499 0.014239
vt 0.525183 0.145273
vt 0.221071 0.633980
vt 0.221071 0.687605
vt 0.181073 0.687605
vt 0.181073 0.633980
vt 0.513118 0.482397
vt 0.533146 0.438649
vt 0.873555 0.280463
vt 0.927180 0.280463
vt 0.927180 0.339842
vt 0.873555 0.339842
vt 0.024440 0.048157
vt 0.004409 0.004409
vt 0.631458 0.952672
vt 0.513118 0.952672
vt 0.521992 0.943735
vt 0.622584 0.943735
vt 0.513118 0.881167
vt 0.521992 0.890110
vt 0.631458 0.881167
vt 0.622584 0.890110
vt 0.899998 0.363216
vt 0.899998 0.464475
vt 0.810624 0.464454
vt 0.810623 0.363196
vt 0.789848 0.949773
vt 0.789848 0.848520
vt 0.879223 0.848497
vt 0.879223 0.949750
vt 0.940094 0.633206
vt 0.993719 0.633206
vt 0.993719 0.722566
vt 0.940094 0.722566
vt 0.959546 0.866372
vt 0.959546 0.985137
vt 0.950603 0.976231
vt 0.950603 0.875278
vt 0.888041 0.985137
vt 0.896978 0.976231
vt 0.888041 0.866372
vt 0.896978 0.875278
vt 0.614371 0.729581
vt 0.513118 0.729555
vt 0.513118 0.491215
vt 0.614371 0.491242
vt 0.334735 0.729553
vt 0.233477 0.729576
vt 0.233477 0.491236
vt 0.334735 0.491213
vt 0.751419 0.818723
vt 0.751419 0.872348
vt 0.513118 0.872348
vt 0.513118 0.818723
vt 0.742475 0.990633
vt 0.742475 0.890040
vt 0.751419 0.881167
vt 0.751419 0.999506
vt 0.688850 0.890040
vt 0.679914 0.881167
vt 0.688850 0.990633
vt 0.679914 0.999506
vt 0.382717 0.063976
vt 0.501787 0.060659
vt 0.504299 0.149998
vt 0.385229 0.153315
vt 0.332227 0.426142
vt 0.213151 0.422827
vt 0.215659 0.333487
vt 0.334735 0.336803
vt 0.989623 0.289203
vt 0.935998 0.289203
vt 0.935998 0.208778
vt 0.989623 0.208778
vt 0.496763 0.209886
vt 0.395549 0.212706
vt 0.225991 0.274100
vt 0.327210 0.276919
vt 0.781029 0.738400
vt 0.781029 0.809904
vt 0.721632 0.800961
vt 0.721632 0.747336
vt 0.498437 0.269453
vt 0.397224 0.272273
vt 0.227664 0.214533
vt 0.328883 0.217352
vt 0.662051 0.800961
vt 0.662051 0.747336
vt 0.481822 0.299719
vt 0.415514 0.301566
vt 0.245953 0.185239
vt 0.312265 0.187086
vt 0.632609 0.800961
vt 0.632609 0.747336
vt 0.482660 0.329499
vt 0.416351 0.331346
vt 0.246789 0.155460
vt 0.313101 0.157306
vt 0.602822 0.800961
vt 0.602822 0.747336
vt 0.500950 0.358792
vt 0.399736 0.361612
vt 0.230172 0.125194
vt 0.331391 0.128012
vt 0.572691 0.800961
vt 0.572691 0.747336
vt 0.502624 0.418351
vt 0.401411 0.421171
vt 0.231844 0.065634
vt 0.333063 0.068452
vt 0.513118 0.800961
vt 0.513118 0.747336
vt 0.504299 0.477918
vt 0.403086 0.480738
vt 0.233516 0.006067
vt 0.334735 0.008885
vt 0.181073 0.544838
vt 0.181073 0.491213
vt 0.224658 0.491213
vt 0.224658 0.544838
vt 0.929902 0.675956
vt 0.929902 0.729581
vt 0.870309 0.729581
vt 0.870309 0.675956
vt 0.989623 0.339842
vt 0.935998 0.339842
vt 0.011501 0.625161
vt 0.011501 0.553656
vt 0.041245 0.562593
vt 0.041245 0.616218
vt 0.183805 0.421941
vt 0.186063 0.341534
vt 0.211478 0.482394
vt 0.182384 0.472569
vt 0.181073 0.625161
vt 0.181073 0.553656
vt 0.211028 0.562600
vt 0.211028 0.616225
vt 0.381042 0.004409
vt 0.353358 0.064866
vt 0.351934 0.014239
vt 0.355619 0.145273
vt 0.864248 0.513291
vt 0.810623 0.513291
vt 0.810623 0.473293
vt 0.864248 0.473293
vt 0.343554 0.482397
vt 0.363582 0.438649
vt 0.931275 0.552702
vt 0.877650 0.552702
vt 0.877650 0.493323
vt 0.931275 0.493323
vt 0.194013 0.048157
vt 0.173982 0.004409
vt 0.423976 0.866422
vt 0.423976 0.984762
vt 0.415032 0.975888
vt 0.415032 0.875296
vt 0.352471 0.984762
vt 0.361407 0.975888
vt 0.352471 0.866422
vt 0.361407 0.875296
vt 0.879223 0.738420
vt 0.879223 0.839679
vt 0.789848 0.839658
vt 0.789848 0.738400
vt 0.153279 0.818718
vt 0.153279 0.919972
vt 0.063905 0.919995
vt 0.063905 0.818742
vt 0.063905 0.982438
vt 0.063905 0.928813
vt 0.153265 0.928813
vt 0.153265 0.982438
vt 0.331816 0.818718
vt 0.331816 0.836735
vt 0.169376 0.836735
vt 0.169376 0.818718
vt 0.331816 0.854540
vt 0.169376 0.854540
vt 0.331816 0.871509
vt 0.169376 0.871509
vt 0.331816 0.887083
vt 0.169376 0.887083
vt 0.331816 0.900714
vt 0.169376 0.900714
vt 0.740896 0.653656
vt 0.725383 0.653656
vt 0.725383 0.491215
vt 0.740896 0.491215
vt 0.708450 0.653656
vt 0.708450 0.491215
vt 0.690670 0.653656
vt 0.690670 0.491215
vt 0.672647 0.653656
vt 0.672647 0.491215
vt 0.654998 0.653656
vt 0.654998 0.491215
vt 0.638322 0.653656
vt 0.638322 0.491215
vt 0.623190 0.653656
vt 0.623190 0.491215
vt 0.869627 0.166850
vt 0.856420 0.166850
vt 0.856420 0.004409
vt 0.869626 0.004409
vt 0.841178 0.166850
vt 0.841178 0.004409
vt 0.824435 0.166850
vt 0.824435 0.004409
vt 0.806741 0.166850
vt 0.806741 0.004409
vt 0.788719 0.166850
vt 0.788719 0.004409
vt 0.494061 0.527102
vt 0.492400 0.509153
vt 0.494061 0.491216
vt 0.864736 0.354377
vt 0.849414 0.344884
vt 0.836103 0.332733
vt 0.817218 0.302212
vt 0.825247 0.318349
vt 0.812285 0.284875
vt 0.810623 0.266925
vt 0.817219 0.231645
vt 0.812289 0.248978
vt 0.864736 0.179510
vt 0.825248 0.215509
vt 0.836103 0.201135
vt 0.849423 0.188997
vt 0.610375 0.961490
vt 0.610375 0.979503
vt 0.513118 0.970523
vt 0.761962 0.198103
vt 0.744627 0.193176
vt 0.728504 0.185140
vt 0.701986 0.160969
vt 0.714121 0.174282
vt 0.692503 0.145642
vt 0.685995 0.128837
vt 0.682682 0.093094
vt 0.682682 0.111120
vt 0.685995 0.075375
vt 0.692503 0.058567
vt 0.714121 0.029917
vt 0.701986 0.043243
vt 0.779900 0.004409
vt 0.728503 0.019052
vt 0.744627 0.011017
vt 0.761962 0.006074
vt 0.779900 0.102088
vt 0.779900 0.199760
vt 0.868832 0.653656
vt 0.749715 0.653625
vt 0.749715 0.534452
vt 0.868832 0.534482
vt 0.682682 0.482397
vt 0.682682 0.363223
vt 0.801805 0.363196
vt 0.801805 0.482369
vt 0.332412 0.909532
vt 0.332412 1.010125
vt 0.278787 1.010125
vt 0.278787 0.909533
vt 0.878445 0.123563
vt 0.878445 0.004409
vt 0.949950 0.004409
vt 0.949950 0.123563
vt 0.873555 0.179510
vt 0.927180 0.179510
vt 0.385183 0.738400
vt 0.504299 0.738430
vt 0.504299 0.857604
vt 0.385183 0.857573
vt 0.801805 0.208578
vt 0.801805 0.327752
vt 0.682682 0.327779
vt 0.682682 0.208606
vt 0.269968 0.963157
vt 0.169376 0.963157
vt 0.169376 0.909532
vt 0.269968 0.909532
vt 0.888041 0.857554
vt 0.888041 0.738400
vt 0.959546 0.738400
vt 0.959546 0.857554
vt 0.931275 0.653656
vt 0.877650 0.653656
vn 1.000000 0.000000 0.000000
vn 0.000000 -0.000000 1.000000
vn 0.000000 0.000000 -1.000000
vn 0.000000 1.000000 0.000000
vn -1.000000 0.000000 0.000000
vn -1.000000 0.000002 0.000000
vn 0.000000 1.000000 0.000003
vn 0.148317 -0.000000 0.988940
vn 0.148436 0.000000 -0.988922
vn 0.148318 0.988940 0.000001
vn 0.505801 0.862650 0.000001
vn 0.000000 1.000000 0.000002
vn -0.505801 0.862650 0.000001
vn -0.441769 0.897129 0.000003
vn 0.000000 -1.000000 -0.000000
vn 0.955946 0.293543 0.000001
vn 0.000000 0.293764 -0.955878
vn -0.955878 0.293763 0.000001
vn 0.000000 0.293543 0.955946
vn -0.919209 0.393770 0.000001
vn 0.000000 1.000000 0.000001
vn 0.148436 -0.000000 0.988922
vn 0.148317 0.000000 -0.988940
vn 0.148317 0.988940 0.000000
vn -0.000001 -0.000000 1.000000
vn 0.505802 0.862650 0.000000
vn 0.000001 -0.000000 1.000000
vn -0.505801 0.862650 0.000000
vn -0.441769 0.897129 0.000000
vn 0.955946 0.293543 0.000000
vn 0.000000 0.293543 -0.955946
vn -0.955878 0.293764 0.000000
vn 0.000000 0.293763 0.955878
vn -0.919209 0.393770 0.000000
vn -0.725075 0.067104 0.685393
vn -0.888757 0.165998 0.427265
vn -0.714347 0.133427 -0.686911
vn -0.725075 0.067104 -0.685393
vn -0.886830 0.343654 0.308926
vn -0.677664 0.262581 -0.686850
vn -0.617786 0.382580 0.686972
vn -0.617786 0.382580 -0.686972
vn -0.537126 0.489517 0.686880
vn -0.537126 0.489517 -0.686880
vn -0.437910 0.579974 0.686880
vn -0.437910 0.579974 -0.686880
vn -0.323832 0.650533 0.686911
vn -0.323832 0.650533 -0.686911
vn -0.198920 0.698965 0.686911
vn -0.198920 0.698965 -0.686911
vn -0.067080 0.723624 0.686880
vn -0.067080 0.723624 -0.686880
vn 0.067080 0.723624 0.686880
vn 0.067080 0.723624 -0.686880
vn 0.198920 0.698965 0.686911
vn 0.198920 0.698965 -0.686911
vn 0.323923 0.650533 0.686911
vn 0.323923 0.650533 -0.686911
vn 0.437849 0.579974 0.686941
vn 0.437849 0.579974 -0.686941
vn 0.537065 0.489608 0.686850
vn 0.537065 0.489608 -0.686850
vn 0.801406 0.496103 0.334112
vn 0.617878 0.382488 -0.686911
vn 0.677602 0.262581 0.686911
vn 0.677602 0.262581 -0.686911
vn 0.982538 0.183713 0.029484
vn 0.714377 0.133549 -0.686880
vn 0.995745 0.092153 0.000000
vn 0.725075 0.067104 -0.685393
vn 0.000000 0.707106 0.707108
vn 0.000000 0.707108 -0.707106
vn 0.000000 0.707107 0.707107
vn 0.000000 0.707107 -0.707107
usemtl batchbake_AOComp.001
s off
f 1/1/1 2/2/1 3/3/1 4/4/1
f 2/2/1 5/5/1 6/6/1 3/3/1
f 5/5/1 7/7/1 8/8/1 6/6/1
f 7/7/1 1/1/1 4/4/1 8/8/1
f 4/9/2 3/10/2 9/11/2 10/12/2
f 6/13/3 8/14/3 11/15/3 12/16/3
f 8/17/4 4/18/4 10/19/4 11/20/4
f 10/21/5 9/22/5 13/23/5 14/24/5
f 9/22/6 12/25/6 15/26/6 13/23/6
f 12/25/5 11/27/5 16/28/5 15/26/5
f 14/29/2 13/30/2 17/31/2 18/32/2
f 15/33/3 16/34/3 19/35/3 20/36/3
f 21/37/7 22/38/7 23/39/7 24/40/7
f 18/32/8 17/31/8 25/41/8 26/42/8
f 20/36/9 19/35/9 27/43/9 28/44/9
f 19/45/10 18/46/10 26/47/10 27/48/10
f 26/42/2 25/41/2 29/49/2 30/50/2
f 28/44/3 27/43/3 31/51/3 32/52/3
f 27/48/4 26/47/4 30/53/4 31/54/4
f 30/50/2 29/49/2 33/55/2 34/56/2
f 32/52/3 31/51/3 35/57/3 36/58/3
f 31/54/11 30/53/11 34/59/11 35/60/11
f 34/56/2 33/55/2 37/61/2 38/62/2
f 36/58/3 35/57/3 39/63/3 40/64/3
f 35/60/12 34/59/12 38/65/12 39/66/12
f 38/62/2 37/61/2 41/67/2 42/68/2
f 40/64/3 39/63/3 43/69/3 44/70/3
f 39/66/13 38/65/13 42/71/13 43/72/13
f 42/68/2 41/67/2 45/73/2 46/74/2
f 44/70/3 43/69/3 47/75/3 48/76/3
f 43/72/4 42/71/4 46/77/4 47/78/4
f 46/74/2 45/73/2 49/79/2 50/80/2
f 48/76/3 47/75/3 51/81/3 52/82/3
f 53/83/14 54/84/14 55/85/14 56/86/14
f 11/87/15 10/88/15 57/89/15 58/90/15
f 22/38/7 21/37/7 59/91/7 60/92/7
f 18/93/16 19/94/16 24/95/16 23/96/16
f 19/35/17 16/34/17 21/97/17 24/98/17
f 16/34/17 61/99/17 59/100/17 21/97/17
f 61/101/18 62/102/18 60/103/18 59/104/18
f 62/105/19 14/29/19 22/106/19 60/107/19
f 14/29/19 18/32/19 23/108/19 22/106/19
f 47/109/20 46/110/20 54/111/20 53/112/20
f 46/74/2 50/80/2 55/113/2 54/114/2
f 50/115/1 51/116/1 56/117/1 55/118/1
f 51/81/3 47/75/3 53/119/3 56/120/3
f 63/121/5 64/122/5 65/123/5 66/124/5
f 64/122/5 67/125/5 68/126/5 65/123/5
f 67/125/5 69/127/5 70/128/5 68/126/5
f 69/127/5 63/121/5 66/124/5 70/128/5
f 66/129/3 65/130/3 71/131/3 72/132/3
f 68/133/2 70/134/2 73/135/2 74/136/2
f 70/137/21 66/138/21 72/139/21 73/140/21
f 75/141/1 76/142/1 77/143/1 78/144/1
f 76/142/1 79/145/1 80/146/1 77/143/1
f 79/145/1 81/147/1 82/148/1 80/146/1
f 81/147/1 75/141/1 78/144/1 82/148/1
f 78/149/2 77/150/2 83/151/2 84/152/2
f 80/153/3 82/154/3 85/155/3 86/156/3
f 82/157/4 78/158/4 84/159/4 85/160/4
f 84/161/5 83/162/5 87/163/5 88/164/5
f 83/162/6 86/165/6 89/166/6 87/163/6
f 86/165/5 85/167/5 90/168/5 89/166/5
f 88/169/2 87/170/2 91/171/2 92/172/2
f 89/173/3 90/174/3 93/175/3 94/176/3
f 95/177/4 96/178/4 97/179/4 98/180/4
f 92/172/22 91/171/22 99/181/22 100/182/22
f 94/176/23 93/175/23 101/183/23 102/184/23
f 93/185/24 92/186/24 100/187/24 101/188/24
f 100/182/2 99/181/2 103/189/2 104/190/2
f 102/184/3 101/183/3 105/191/3 106/192/3
f 101/188/4 100/187/4 104/193/4 105/194/4
f 104/190/25 103/189/25 107/195/25 108/196/25
f 106/192/3 105/191/3 109/197/3 110/198/3
f 105/194/26 104/193/26 108/199/26 109/200/26
f 108/196/2 107/195/2 111/201/2 112/202/2
f 110/198/3 109/197/3 113/203/3 114/204/3
f 109/200/4 108/199/4 112/205/4 113/206/4
f 112/202/27 111/201/27 115/207/27 116/208/27
f 114/204/3 113/203/3 117/209/3 118/210/3
f 113/206/28 112/205/28 116/211/28 117/212/28
f 116/208/2 115/207/2 119/213/2 120/214/2
f 118/210/3 117/209/3 121/215/3 122/216/3
f 117/212/4 116/211/4 120/217/4 121/218/4
f 120/214/2 119/213/2 123/219/2 124/220/2
f 122/216/3 121/215/3 125/221/3 126/222/3
f 127/223/29 128/224/29 129/225/29 130/226/29
f 85/227/15 84/228/15 131/229/15 132/230/15
f 96/178/4 95/177/4 133/231/4 134/232/4
f 92/233/30 93/234/30 98/235/30 97/236/30
f 93/175/31 90/174/31 95/237/31 98/238/31
f 90/174/31 135/239/31 133/240/31 95/237/31
f 135/241/32 136/242/32 134/243/32 133/244/32
f 136/245/33 88/169/33 96/246/33 134/247/33
f 88/169/33 92/172/33 97/248/33 96/246/33
f 121/249/34 120/250/34 128/251/34 127/252/34
f 120/214/2 124/220/2 129/253/2 128/254/2
f 124/255/1 125/256/1 130/257/1 129/258/1
f 125/221/3 121/215/3 127/259/3 130/260/3
f 137/261/5 138/262/5 139/263/5 140/264/5
f 138/262/5 141/265/5 142/266/5 139/263/5
f 141/265/5 143/267/5 144/268/5 142/266/5
f 143/267/5 137/261/5 140/264/5 144/268/5
f 140/269/3 139/270/3 145/271/3 146/272/3
f 142/273/2 144/274/2 147/275/2 148/276/2
f 144/277/4 140/278/4 146/279/4 147/280/4
s 1
f 149/281/35 150/282/36 151/283/37 152/284/38
f 150/282/36 153/285/39 154/286/40 151/283/37
f 153/285/39 155/287/41 156/288/42 154/286/40
f 155/287/41 157/289/43 158/290/44 156/288/42
f 157/289/43 159/291/45 160/292/46 158/290/44
f 159/293/45 161/294/47 162/295/48 160/296/46
f 161/294/47 163/297/49 164/298/50 162/295/48
f 163/297/49 165/299/51 166/300/52 164/298/50
f 165/299/51 167/301/53 168/302/54 166/300/52
f 167/301/53 169/303/55 170/304/56 168/302/54
f 169/303/55 171/305/57 172/306/58 170/304/56
f 171/305/57 173/307/59 174/308/60 172/306/58
f 173/309/59 175/310/61 176/311/62 174/312/60
f 175/310/61 177/313/63 178/314/64 176/311/62
f 177/313/63 179/315/65 180/316/66 178/314/64
f 179/315/65 181/317/67 182/318/68 180/316/66
f 181/317/67 183/319/69 184/320/70 182/318/68
f 181/321/67 179/322/65 177/323/63
f 177/324/63 175/325/61 173/326/59 169/327/55
f 173/326/59 171/328/57 169/327/55
f 169/327/55 167/329/53 165/330/51 161/331/47
f 165/330/51 163/332/49 161/331/47
f 177/324/63 169/327/55 161/331/47 153/333/39
f 161/331/47 159/334/45 157/335/43 153/333/39
f 157/335/43 155/336/41 153/333/39
f 150/337/36 149/338/35 185/339/2
f 151/340/37 154/341/40 156/342/42 160/343/46
f 156/342/42 158/344/44 160/343/46
f 160/343/46 162/345/48 164/346/50 168/347/54
f 164/346/50 166/348/52 168/347/54
f 168/347/54 170/349/56 172/350/58 176/351/62
f 172/350/58 174/352/60 176/351/62
f 160/343/46 168/347/54 176/351/62 184/353/70
f 176/351/62 178/354/64 180/355/66 184/353/70
f 180/355/66 182/356/68 184/353/70
f 151/340/37 160/343/46 184/353/70 186/357/3
f 152/358/38 151/340/37 186/357/3
f 2/359/2 1/360/71 64/361/71 63/362/2
f 5/363/3 69/364/3 67/365/72 7/366/72
f 72/367/5 71/368/5 74/369/5 73/370/5
f 64/371/71 1/372/71 7/373/72 67/374/72
f 50/115/1 49/375/1 52/376/1 51/116/1
f 76/377/2 75/378/73 138/379/73 137/380/2
f 79/381/3 143/382/3 141/383/74 81/384/74
f 146/385/5 145/386/5 148/387/5 147/388/5
f 138/389/73 75/390/73 81/391/74 141/392/74
f 124/255/1 123/393/1 126/394/1 125/256/1
