# 3ds Max Wavefront OBJ Exporter v0.97b - (c)2007 guruware
# File Created: 01.03.2014 15:45:12

mtllib spark.mtl

#
# object Box001
#

v  0.0007 0.9823 -0.0081
v  0.0007 7.2593 -0.0081
v  0.0007 4.1208 3.1304
v  3.1391 4.1208 -0.0081
v  0.0007 4.1208 -3.1466
v  -3.1378 4.1208 -0.0081
v  -0.0901 4.0300 -0.0989
v  -0.0901 4.0300 0.0827
v  -0.0901 4.2116 0.0827
v  -0.0901 4.2116 -0.0989
v  0.0915 4.0300 -0.0989
v  0.0915 4.2116 -0.0989
v  0.0915 4.2116 0.0827
v  0.0915 4.0300 0.0827
# 14 vertices

vn 1.0000 0.0000 -0.0000
vn -0.0298 -0.9996 -0.0000
vn -0.0298 0.0000 0.9996
vn -0.0298 0.9996 -0.0000
vn -0.0298 0.0000 -0.9996
vn 0.0000 -0.9996 -0.0298
vn -0.9996 0.0000 -0.0298
vn 0.0000 0.9996 -0.0298
vn 0.9996 0.0000 -0.0298
vn 0.0000 0.0298 0.9996
vn 0.9996 0.0298 -0.0000
vn 0.0000 0.0298 -0.9996
vn -0.9996 0.0298 -0.0000
vn 0.0000 -0.9996 0.0298
vn 0.9996 0.0000 0.0298
vn 0.0000 0.9996 0.0298
vn -0.9996 0.0000 0.0298
vn 0.0298 -0.9996 -0.0000
vn 0.0298 0.0000 -0.9996
vn 0.0298 0.9996 -0.0000
vn 0.0298 0.0000 0.9996
vn -0.9996 -0.0298 -0.0000
vn 0.0000 -0.0298 -0.9996
vn 0.9996 -0.0298 -0.0000
vn 0.0000 -0.0298 0.9996
# 25 vertex normals

vt 1.0000 0.0000 0.0000
vt 1.0000 1.0000 0.0000
vt 0.0000 1.0000 0.0000
vt 0.0000 0.0000 0.0000
# 4 texture coords

g Box001
usemtl 02___Default
s 2
f 1/1/1 1/2/1 1/3/1 1/4/1 
s 4
f 2/4/1 2/1/1 2/2/1 2/3/1 
s 8
f 3/4/1 3/1/1 3/2/1 3/3/1 
s 16
f 4/4/1 4/1/1 4/2/1 4/3/1 
s 32
f 5/4/1 5/1/1 5/2/1 5/3/1 
s 64
f 6/4/1 6/1/1 6/2/1 6/3/1 
s off
f 7/2/2 8/1/2 6/1/2 6/4/2 
f 8/4/3 9/3/3 6/2/3 6/1/3 
f 9/4/4 10/3/4 6/3/4 6/2/4 
f 10/2/5 7/1/5 6/4/5 6/3/5 
f 11/3/6 7/2/6 5/1/6 5/4/6 
f 7/1/7 10/2/7 5/2/7 5/1/7 
f 10/3/8 12/2/8 5/3/8 5/2/8 
f 12/2/9 11/1/9 5/4/9 5/3/9 
f 9/3/10 13/2/10 2/1/10 2/4/10 
f 13/3/11 12/2/11 2/2/11 2/1/11 
f 12/2/12 10/3/12 2/3/12 2/2/12 
f 10/3/13 9/4/13 2/4/13 2/3/13 
f 8/1/14 14/4/14 3/1/14 3/4/14 
f 14/4/15 13/3/15 3/2/15 3/1/15 
f 13/2/16 9/3/16 3/3/16 3/2/16 
f 9/3/17 8/4/17 3/4/17 3/3/17 
f 14/4/18 11/3/18 4/1/18 4/4/18 
f 11/1/19 12/2/19 4/2/19 4/1/19 
f 12/2/20 13/3/20 4/3/20 4/2/20 
f 13/3/21 14/4/21 4/4/21 4/3/21 
f 8/1/22 7/2/22 1/2/22 1/1/22 
f 7/2/23 11/3/23 1/3/23 1/2/23 
f 11/3/24 14/4/24 1/4/24 1/3/24 
f 14/4/25 8/1/25 1/1/25 1/4/25 
# 30 polygons

