# Blender v2.69 (sub 0) OBJ File: 'T3_AO.blend'
# www.blender.org
mtllib turret_big_canon_top.mtl
o Cube
v -2.589152 -3.707966 2.170330
v 3.402187 -3.707967 2.170330
v 3.402187 -3.707967 3.218230
v -2.589152 -3.707966 3.218231
v -0.918547 0.659160 2.170330
v 0.419079 0.659160 2.170330
v 0.419079 0.659160 3.218231
v -0.918547 0.659160 3.218231
v -2.515486 -3.364776 2.170330
v 3.385565 -3.420915 2.170330
v 3.385565 -3.420915 3.218230
v -2.515486 -3.364776 3.218231
v -0.756928 -2.118912 2.170330
v -0.749999 -2.118634 3.218231
v -0.691519 -0.772627 2.170330
v -0.699560 -0.772200 3.218231
v -1.404953 -0.000849 2.170330
v -1.407895 -0.000863 3.218230
v 0.078842 -2.285549 2.771141
v -1.061255 -1.151367 2.771141
v -0.158398 -2.484617 2.949943
v -1.284536 -1.365976 2.949943
v -0.158398 -2.484617 2.592338
v -1.284536 -1.365976 2.592338
v -2.811070 -0.368834 2.771141
v -2.963861 -0.515690 2.893495
v -2.963861 -0.515690 2.648786
v -1.398914 -1.199945 2.648786
v -1.398914 -1.199945 2.893495
v -1.246123 -1.053089 2.771141
v -2.751832 -0.323223 2.954579
v -2.751832 -0.323223 2.085161
v -2.886721 -0.043124 2.954579
v -2.886721 -0.043124 2.085161
v -3.189813 0.026055 2.954579
v -3.189813 0.026055 2.085161
v -3.432874 -0.167780 2.954579
v -3.432874 -0.167780 2.085161
v -3.432874 -0.478666 2.954579
v -3.432874 -0.478666 2.085161
v -3.189813 -0.672501 2.954579
v -3.189813 -0.672501 2.085161
v -2.886721 -0.603322 2.954579
v -2.886721 -0.603322 2.085161
v -3.110093 -0.323223 2.954579
v -2.751832 -0.323223 -2.891232
v -2.751832 -0.323223 -2.021814
v -2.886721 -0.043124 -2.891232
v -2.886721 -0.043124 -2.021814
v -3.189813 0.026055 -2.891232
v -3.189813 0.026055 -2.021814
v -3.432874 -0.167780 -2.891232
v -3.432874 -0.167780 -2.021814
v -3.432874 -0.478666 -2.891232
v -3.432874 -0.478666 -2.021814
v -3.189813 -0.672501 -2.891232
v -3.189813 -0.672501 -2.021814
v -2.886721 -0.603322 -2.891232
v -2.886721 -0.603323 -2.021814
v -3.110092 -0.323223 -2.891232
v 0.078842 -2.285549 -2.707794
v -1.061255 -1.151367 -2.707794
v -0.158398 -2.484617 -2.886597
v -1.284536 -1.365976 -2.886597
v -0.158398 -2.484617 -2.528991
v -1.284536 -1.365976 -2.528991
v -2.811070 -0.368834 -2.707794
v -2.963862 -0.515690 -2.830148
v -2.963862 -0.515690 -2.585440
v -1.398914 -1.199945 -2.585440
v -1.398914 -1.199945 -2.830148
v -1.246122 -1.053089 -2.707794
v -2.589153 -3.707966 -2.106984
v 3.402188 -3.707967 -2.106984
v 3.402188 -3.707967 -3.154885
v -2.589153 -3.707966 -3.154885
v -0.918547 0.659160 -2.106984
v 0.419078 0.659160 -2.106984
v 0.419078 0.659160 -3.154885
v -0.918547 0.659160 -3.154885
v -2.515486 -3.364776 -2.106984
v 3.385565 -3.420915 -2.106984
v 3.385565 -3.420915 -3.154885
v -2.515486 -3.364776 -3.154885
v -0.756928 -2.118912 -2.106984
v -0.749999 -2.118634 -3.154885
v -0.691519 -0.772627 -2.106984
v -0.699560 -0.772200 -3.154885
v -1.404953 -0.000849 -2.106984
v -1.407895 -0.000863 -3.154885
v 5.749356 -4.255769 0.011607
v 5.100519 -3.714777 0.011607
v 4.644239 -4.255769 3.412809
v 4.119318 -3.714777 3.031432
v 1.751003 -4.255768 5.514867
v 1.550501 -3.714777 4.897787
v -1.825233 -4.255768 5.514868
v -1.624731 -3.714777 4.897786
v -4.718469 -4.255768 3.412809
v -4.193548 -3.714776 3.031432
v -5.823586 -4.255768 0.011607
v -5.174748 -3.714776 0.011607
v -4.718468 -4.255768 -3.389596
v -4.193547 -3.714776 -3.008219
v -1.825234 -4.255768 -5.491653
v -1.624731 -3.714777 -4.874573
v 1.751003 -4.255768 -5.491654
v 1.550502 -3.714777 -4.874572
v 4.644240 -4.255769 -3.389594
v 4.119319 -3.714777 -3.008217
v -0.037115 -3.714777 0.011607
v -5.077415 -1.508144 -2.031957
v 3.041586 -1.079273 -2.031956
v 3.041585 -1.079273 2.097312
v -5.077417 -1.508144 2.097310
v -5.077414 1.547901 -2.031958
v 3.041588 1.547901 -2.031954
v 3.041584 1.547901 2.097313
v -5.077416 1.547901 2.097311
v -5.077417 -2.051009 1.091280
v 3.041585 -1.082255 1.091282
v -5.077416 2.176077 1.091280
v 3.041586 2.176077 1.091282
v -5.077416 -2.051009 -1.038310
v 3.041586 -1.082255 -1.038308
v -5.077415 2.176077 -1.038310
v 3.041587 2.176077 -1.038307
v 1.941070 -2.051009 -1.038309
v 1.941069 -1.508144 -2.031956
v 1.941069 -2.051009 1.091281
v 1.941068 -1.508144 2.097312
v 3.244363 -1.040185 -1.977134
v 3.244362 -1.040185 2.042326
v 3.244365 1.517126 -1.977133
v 3.244361 1.517126 2.042326
v 3.244362 -1.043088 1.063048
v 3.244363 2.128597 1.063049
v 3.244363 -1.043088 -1.009910
v 3.244364 2.128597 -1.009909
v 2.843050 -1.040184 -1.977134
v 2.843049 -1.040184 2.042326
v 2.843052 1.517126 -1.977133
v 2.843048 1.517126 2.042326
v 2.843049 -1.043088 1.063048
v 2.843050 2.128597 1.063049
v 2.843050 -1.043088 -1.009910
v 2.843051 2.128597 -1.009909
v -5.248950 -1.415154 -1.908225
v -5.248952 -1.415154 1.973206
v -5.248949 1.457470 -1.908226
v -5.248951 1.457470 1.973207
v -5.248952 -1.925435 1.027557
v -5.248950 2.047943 1.027557
v -5.248950 -1.925435 -0.974216
v -5.248949 2.047943 -0.974216
v -3.495672 -1.415154 -1.908224
v -3.495673 -1.415154 1.973207
v -3.495670 1.457470 -1.908225
v -3.495673 1.457470 1.973207
v -3.495673 -1.925436 1.027558
v -3.495672 2.047943 1.027558
v -3.495672 -1.925436 -0.974215
v -3.495671 2.047943 -0.974216
vt 0.914101 0.919616
vt 0.916004 0.719496
vt 0.925739 0.718932
vt 0.925739 0.922115
vt 0.354810 0.792693
vt 0.319272 0.792692
vt 0.319273 0.782962
vt 0.354810 0.782963
vt 0.271414 0.677956
vt 0.269510 0.477834
vt 0.281149 0.475336
vt 0.281149 0.678519
vt 0.422234 0.969735
vt 0.422234 0.934198
vt 0.433906 0.934198
vt 0.433906 0.969735
vt 0.894496 0.718932
vt 0.894496 0.922116
vt 0.858958 0.922116
vt 0.858958 0.718932
vt 0.648689 0.883851
vt 0.648689 0.929214
vt 0.613151 0.929214
vt 0.613151 0.883851
vt 0.354810 0.930247
vt 0.319273 0.930246
vt 0.133047 0.577354
vt 0.133047 0.531991
vt 0.155430 0.515396
vt 0.181589 0.539417
vt 0.709245 0.883851
vt 0.744782 0.884086
vt 0.744782 0.943645
vt 0.709245 0.943645
vt 0.901523 0.059527
vt 0.937061 0.059538
vt 0.937060 0.105221
vt 0.901523 0.105208
vt 0.901522 0.033708
vt 0.937060 0.033706
vt 0.901523 0.011094
vt 0.937061 0.011094
vt 0.227250 0.537707
vt 0.911569 0.533051
vt 0.902298 0.479307
vt 0.912614 0.477279
vt 0.921726 0.530332
vt 0.108309 0.785695
vt 0.099198 0.838748
vt 0.088877 0.836711
vt 0.098147 0.782968
vt 0.374415 0.972409
vt 0.374415 0.934198
vt 0.386542 0.934198
vt 0.386542 0.972409
vt 0.089751 0.843757
vt 0.096814 0.845151
vt 0.108309 0.901922
vt 0.101247 0.900528
vt 0.310662 0.601140
vt 0.302363 0.601140
vt 0.302363 0.548056
vt 0.310662 0.548056
vt 0.903172 0.472261
vt 0.910231 0.470873
vt 0.307938 0.652478
vt 0.307938 0.664605
vt 0.302363 0.662691
vt 0.302363 0.654392
vt 0.914667 0.415490
vt 0.921726 0.414102
vt 0.680104 0.883851
vt 0.680104 0.913336
vt 0.670642 0.913336
vt 0.670642 0.883851
vt 0.171176 0.950397
vt 0.171176 0.920913
vt 0.181459 0.920913
vt 0.181459 0.950397
vt 0.189690 0.920913
vt 0.189690 0.950397
vt 0.821709 0.969867
vt 0.821709 0.940382
vt 0.832251 0.940382
vt 0.832251 0.969867
vt 0.151571 0.920913
vt 0.151571 0.950397
vt 0.143324 0.950397
vt 0.143324 0.920913
vt 0.689640 0.883851
vt 0.689640 0.913336
vt 0.133047 0.950397
vt 0.133047 0.920913
vt 0.219928 0.932758
vt 0.224503 0.923259
vt 0.232078 0.932757
vt 0.224503 0.942256
vt 0.234782 0.944602
vt 0.243025 0.938029
vt 0.243025 0.927486
vt 0.234782 0.920913
vt 0.582862 0.911855
vt 0.573428 0.911856
vt 0.573428 0.941340
vt 0.582862 0.941340
vt 0.281149 0.920913
vt 0.270869 0.920913
vt 0.270869 0.950397
vt 0.281149 0.950397
vt 0.262630 0.920913
vt 0.262630 0.950397
vt 0.041066 0.963688
vt 0.051608 0.963688
vt 0.051608 0.934203
vt 0.041066 0.934203
vt 0.551104 0.911855
vt 0.542849 0.911855
vt 0.542849 0.941340
vt 0.551104 0.941340
vt 0.592424 0.911856
vt 0.592424 0.941340
vt 0.532574 0.911855
vt 0.532574 0.941340
vt 0.111973 0.928100
vt 0.101027 0.933372
vt 0.111973 0.938643
vt 0.103730 0.921527
vt 0.093451 0.923873
vt 0.088877 0.933372
vt 0.093451 0.942871
vt 0.103730 0.945217
vt 0.950604 0.533051
vt 0.960744 0.530355
vt 0.951629 0.477302
vt 0.941330 0.479308
vt 0.964789 0.127513
vt 0.954656 0.124826
vt 0.945381 0.178569
vt 0.955674 0.180566
vt 0.670642 0.971202
vt 0.682770 0.971202
vt 0.682770 0.932941
vt 0.670642 0.932941
vt 0.946254 0.185615
vt 0.957746 0.242387
vt 0.964789 0.243753
vt 0.953298 0.186982
vt 0.310662 0.528451
vt 0.310662 0.475336
vt 0.302363 0.475336
vt 0.302363 0.528451
vt 0.949251 0.470889
vt 0.942204 0.472261
vt 0.307962 0.620745
vt 0.302363 0.622660
vt 0.302363 0.630959
vt 0.307962 0.632873
vt 0.960744 0.414117
vt 0.953696 0.415490
vt 0.945344 0.919616
vt 0.956983 0.922115
vt 0.956983 0.718932
vt 0.947248 0.719496
vt 0.937835 0.562383
vt 0.937836 0.552657
vt 0.902298 0.552656
vt 0.902298 0.562382
vt 0.271414 0.900744
vt 0.281149 0.901308
vt 0.281149 0.698124
vt 0.269510 0.700622
vt 0.009802 0.969741
vt 0.021461 0.969741
vt 0.021461 0.934203
vt 0.009802 0.934203
vt 0.890239 0.328009
vt 0.925776 0.328009
vt 0.925776 0.124826
vt 0.890239 0.124826
vt 0.925776 0.347614
vt 0.890239 0.347614
vt 0.890239 0.392977
vt 0.925776 0.392977
vt 0.937836 0.699327
vt 0.902298 0.699326
vt 0.133047 0.800142
vt 0.181589 0.762206
vt 0.155430 0.738184
vt 0.133047 0.754779
vt 0.532574 0.892250
vt 0.592424 0.892250
vt 0.592424 0.856713
vt 0.532809 0.856713
vt 0.846380 0.059536
vt 0.846380 0.105209
vt 0.881917 0.105221
vt 0.881917 0.059548
vt 0.846379 0.033571
vt 0.881916 0.033570
vt 0.846380 0.011055
vt 0.881917 0.011056
vt 0.227250 0.760495
vt 0.524798 0.364796
vt 0.537752 0.346967
vt 0.640163 0.380243
vt 0.640143 0.402274
vt 0.742574 0.346968
vt 0.755487 0.364797
vt 0.805867 0.259852
vt 0.826774 0.266679
vt 0.805867 0.152170
vt 0.826774 0.145398
vt 0.742574 0.065054
vt 0.755487 0.047280
vt 0.640163 0.031779
vt 0.640143 0.009802
vt 0.537752 0.065054
vt 0.524798 0.047280
vt 0.474458 0.152170
vt 0.453511 0.145398
vt 0.453511 0.266678
vt 0.474458 0.259851
vt 0.640163 0.206011
vt 0.009802 0.757555
vt 0.009802 0.519539
vt 0.113442 0.482217
vt 0.113442 0.757555
vt 0.647269 0.427708
vt 0.647269 0.665725
vt 0.613151 0.665716
vt 0.613151 0.427698
vt 0.487628 0.704136
vt 0.453511 0.704097
vt 0.453511 0.428758
vt 0.487628 0.428798
vt 0.344811 0.756473
vt 0.330267 0.719151
vt 0.433906 0.756473
vt 0.593547 0.428758
vt 0.559849 0.428798
vt 0.558886 0.421918
vt 0.591687 0.421879
vt 0.024347 0.482217
vt 0.559849 0.704136
vt 0.593547 0.704097
vt 0.589350 0.709908
vt 0.557675 0.709945
vt 0.719490 0.427708
vt 0.719490 0.665725
vt 0.647269 0.703030
vt 0.719490 0.703030
vt 0.718526 0.709906
vt 0.648226 0.709906
vt 0.649430 0.421889
vt 0.717316 0.421889
vt 0.753187 0.427698
vt 0.753187 0.665716
vt 0.488586 0.421918
vt 0.489789 0.709945
vt 0.613151 0.703029
vt 0.753187 0.703029
vt 0.957441 0.699327
vt 0.957452 0.666526
vt 0.971062 0.666526
vt 0.971050 0.699327
vt 0.976588 0.822034
vt 0.976588 0.751734
vt 0.990197 0.751734
vt 0.990197 0.822034
vt 0.957452 0.596226
vt 0.971062 0.596226
vt 0.751328 0.709906
vt 0.455376 0.421879
vt 0.025672 0.475336
vt 0.112398 0.475336
vt 0.432862 0.763357
vt 0.346136 0.763357
vt 0.615016 0.709906
vt 0.556612 0.837108
vt 0.556612 0.729550
vt 0.589823 0.750286
vt 0.589823 0.837010
vt 0.486312 0.837108
vt 0.486312 0.729550
vt 0.453511 0.837010
vt 0.453511 0.750286
vt 0.976588 0.718932
vt 0.990198 0.718932
vt 0.957441 0.563016
vt 0.971050 0.563016
vt 0.956666 0.097820
vt 0.956666 0.011094
vt 0.970275 0.011094
vt 0.970275 0.097820
vt 0.958991 0.263358
vt 0.958991 0.350084
vt 0.945381 0.350084
vt 0.945381 0.263358
vt 0.976588 0.855244
vt 0.990198 0.855244
vt 0.009802 0.814643
vt 0.009813 0.782968
vt 0.069272 0.782968
vt 0.069261 0.814643
vt 0.374447 0.882918
vt 0.374447 0.815032
vt 0.433906 0.815032
vt 0.433906 0.882918
vt 0.009802 0.882529
vt 0.069261 0.882529
vt 0.748991 0.421879
vt 0.457720 0.709908
vt 0.110375 0.763363
vt 0.012956 0.763363
vt 0.433906 0.481136
vt 0.330267 0.481136
vt 0.333420 0.475336
vt 0.430839 0.475336
vt 0.617360 0.421879
vt 0.645221 0.729511
vt 0.645221 0.864246
vt 0.613152 0.846943
vt 0.613151 0.749533
vt 0.713107 0.729511
vt 0.713107 0.864246
vt 0.744782 0.749533
vt 0.744782 0.846943
vt 0.374415 0.914593
vt 0.433874 0.914593
vt 0.009813 0.914598
vt 0.069272 0.914598
vt 0.512969 0.856713
vt 0.512969 0.954132
vt 0.453511 0.954132
vt 0.453511 0.856713
vt 0.772792 0.920777
vt 0.772792 0.823358
vt 0.832251 0.823358
vt 0.832251 0.920777
vt 0.374415 0.782962
vt 0.433874 0.782962
vn -0.000000 0.000000 -1.000000
vn 0.998328 0.057811 -0.000000
vn 0.000000 -0.000000 1.000000
vn -0.977729 0.209871 0.000000
vn -0.000000 -1.000000 0.000000
vn 0.000000 1.000000 0.000000
vn 0.808815 0.588063 -0.000000
vn -0.577369 0.816481 0.001801
vn -0.999076 0.042983 -0.000545
vn -0.735426 -0.677595 -0.003720
vn -0.804153 0.594422 -0.001125
vn 0.353075 0.355177 0.865556
vn 0.353076 0.355178 -0.865556
vn -0.704742 -0.709464 0.000000
vn 0.212327 0.485610 -0.847998
vn -0.400618 -0.916245 0.000000
vn 0.243728 0.458468 0.854636
vn -0.823504 -0.567310 0.000000
vn 0.212327 0.485609 0.847998
vn 0.243728 0.458469 -0.854636
vn 0.900968 0.433884 0.000000
vn 0.222521 0.974928 0.000000
vn -0.623489 0.781832 0.000000
vn -1.000000 -0.000001 0.000000
vn -0.623490 -0.781832 0.000000
vn 0.900969 -0.433884 0.000000
vn 0.222521 -0.974928 0.000000
vn 0.000000 -0.000001 1.000000
vn -0.000001 -0.000001 1.000000
vn 0.000000 0.000001 1.000000
vn 0.000002 0.000001 1.000000
vn 0.900969 0.433884 0.000000
vn -1.000000 0.000000 -0.000000
vn -0.623489 -0.781832 -0.000000
vn 0.900969 -0.433883 -0.000000
vn 0.000001 0.000001 -1.000000
vn -0.000001 -0.000001 -1.000000
vn 0.000000 -0.000001 -1.000000
vn -0.000002 0.000001 -1.000000
vn 0.000000 0.000001 -1.000000
vn 0.353076 0.355178 -0.865555
vn 0.212326 0.485608 0.847999
vn -0.400617 -0.916245 -0.000000
vn 0.243730 0.458469 -0.854636
vn -0.823505 -0.567309 0.000000
vn 0.212327 0.485609 -0.847998
vn 0.243727 0.458469 0.854637
vn 0.998328 0.057812 0.000000
vn -0.577369 0.816481 -0.001800
vn -0.999076 0.042983 0.000545
vn -0.735426 -0.677594 0.003720
vn -0.804153 0.594422 0.001125
vn 0.626961 0.751945 0.203712
vn 0.387483 0.751945 0.533325
vn -0.000000 0.751945 0.659226
vn -0.387483 0.751945 0.533325
vn -0.626961 0.751945 0.203712
vn -0.626961 0.751944 -0.203712
vn -0.387483 0.751945 -0.533325
vn 0.000000 0.751945 -0.659226
vn 0.626961 0.751945 -0.203712
vn 0.387483 0.751945 -0.533325
vn -0.000000 -0.880049 0.474883
vn -0.000000 0.848223 0.529639
vn -0.000001 0.000001 -1.000000
vn 0.263139 0.815466 -0.515531
vn -0.639152 0.650069 -0.410969
vn 0.189648 -0.981852 0.000000
vn -0.590695 -0.806895 -0.000000
vn 0.000000 -0.877571 -0.479448
vn 0.000000 0.845255 -0.534364
vn 0.227985 0.973665 0.000000
vn -0.598454 0.801157 -0.000000
vn 0.660743 -0.750612 0.000000
vn 0.324407 -0.832453 0.449201
vn 0.660741 -0.750610 0.002225
vn 0.660741 -0.750610 -0.002253
vn 0.323589 -0.830355 -0.453652
vn 0.000000 -0.845255 0.534363
vn 0.190046 -0.981771 -0.002947
vn 0.262783 0.818412 0.511025
vn 0.261716 -0.000000 0.965145
vn 0.260986 0.000000 -0.965343
vn 0.190039 -0.981772 0.002911
vn 1.000000 -0.000000 0.000001
vn 1.000000 -0.000000 0.000000
vn 1.000000 -0.000001 0.000001
vn 0.000000 0.999995 0.003002
vn 0.000000 -0.848223 -0.529639
vn 0.000000 0.999996 -0.002965
vn -0.634809 -0.678072 -0.370454
vn -0.638836 0.652574 0.407475
vn -0.586167 0.000000 0.810191
vn -0.585013 0.000000 -0.811024
vn -0.634384 -0.680293 0.367093
vn -1.000000 0.000000 -0.000001
vn 0.000000 0.877571 0.479447
vn 0.000000 0.880049 -0.474883
usemtl batchbake_AOComp
s off
f 9/1/1 10/2/1 2/3/1 1/4/1
f 10/5/2 11/6/2 3/7/2 2/8/2
f 11/9/3 12/10/3 4/11/3 3/12/3
f 12/13/4 9/14/4 1/15/4 4/16/4
f 1/17/5 2/18/5 3/19/5 4/20/5
f 8/21/6 7/22/6 6/23/6 5/24/6
f 6/25/7 7/26/7 11/6/7 10/5/7
f 7/27/3 8/28/3 18/29/3 16/30/3
f 14/31/8 13/32/8 9/33/8 12/34/8
f 16/35/9 15/36/9 13/37/9 14/38/9
f 18/39/10 17/40/10 15/36/10 16/35/10
f 8/41/11 5/42/11 17/40/11 18/39/11
f 11/9/3 7/27/3 16/30/3 14/43/3
f 12/10/3 11/9/3 14/43/3
f 19/44/12 20/45/12 22/46/12 21/47/12
f 23/48/13 24/49/13 20/50/13 19/51/13
f 21/52/14 22/53/14 24/54/14 23/55/14
f 30/56/15 28/57/15 27/58/15 25/59/15
f 28/60/16 29/61/16 26/62/16 27/63/16
f 22/46/17 20/45/17 30/64/17 29/65/17
f 24/66/18 22/67/18 29/68/18 28/69/18
f 29/65/19 30/64/19 25/70/19 26/71/19
f 20/50/20 24/49/20 28/57/20 30/56/20
f 31/72/21 32/73/21 34/74/21 33/75/21
f 33/76/22 34/77/22 36/78/22 35/79/22
f 35/79/23 36/78/23 38/80/23 37/81/23
f 37/82/24 38/83/24 40/84/24 39/85/24
f 39/86/25 40/87/25 42/88/25 41/89/25
f 43/90/26 44/91/26 32/73/26 31/72/26
f 41/89/27 42/88/27 44/92/27 43/93/27
f 43/94/28 31/95/28 45/96/28
f 41/97/29 43/94/29 45/96/29
f 39/98/28 41/97/28 45/96/28
f 37/99/28 39/98/28 45/96/28
f 35/100/30 37/99/30 45/96/30
f 33/101/31 35/100/31 45/96/31
f 31/95/30 33/101/30 45/96/30
f 46/102/32 48/103/32 49/104/32 47/105/32
f 48/106/22 50/107/22 51/108/22 49/109/22
f 50/107/23 52/110/23 53/111/23 51/108/23
f 52/112/33 54/113/33 55/114/33 53/115/33
f 54/116/34 56/117/34 57/118/34 55/119/34
f 58/120/35 46/102/35 47/105/35 59/121/35
f 56/117/27 58/122/27 59/123/27 57/118/27
f 58/124/36 60/125/36 46/126/36
f 56/127/37 60/125/37 58/124/37
f 54/128/38 60/125/38 56/127/38
f 52/129/1 60/125/1 54/128/1
f 50/130/39 60/125/39 52/129/39
f 48/131/40 60/125/40 50/130/40
f 46/126/1 60/125/1 48/131/1
f 61/132/41 63/133/41 64/134/41 62/135/41
f 65/136/12 61/137/12 62/138/12 66/139/12
f 63/140/14 65/141/14 66/142/14 64/143/14
f 72/144/42 67/145/42 69/146/42 70/147/42
f 70/148/43 69/149/43 68/150/43 71/151/43
f 64/134/44 71/152/44 72/153/44 62/135/44
f 66/154/45 70/155/45 71/156/45 64/157/45
f 71/152/46 68/158/46 67/159/46 72/153/46
f 62/138/47 72/144/47 70/147/47 66/139/47
f 81/160/3 73/161/3 74/162/3 82/163/3
f 82/164/48 74/165/48 75/166/48 83/167/48
f 83/168/1 75/169/1 76/170/1 84/171/1
f 84/172/4 76/173/4 73/174/4 81/175/4
f 73/176/5 76/177/5 75/178/5 74/179/5
f 80/180/6 77/181/6 78/182/6 79/183/6
f 78/184/7 82/164/7 83/167/7 79/185/7
f 79/186/1 88/187/1 90/188/1 80/189/1
f 86/190/49 84/191/49 81/192/49 85/193/49
f 88/194/50 86/195/50 85/196/50 87/197/50
f 90/198/51 88/194/51 87/197/51 89/199/51
f 80/200/52 90/198/52 89/199/52 77/201/52
f 83/168/1 86/202/1 88/187/1 79/186/1
f 84/171/1 86/202/1 83/168/1
f 91/203/53 92/204/53 94/205/53 93/206/53
f 93/206/54 94/205/54 96/207/54 95/208/54
f 95/208/55 96/207/55 98/209/55 97/210/55
f 97/210/56 98/209/56 100/211/56 99/212/56
f 99/212/57 100/211/57 102/213/57 101/214/57
f 101/214/58 102/213/58 104/215/58 103/216/58
f 103/216/59 104/215/59 106/217/59 105/218/59
f 105/218/60 106/217/60 108/219/60 107/220/60
f 109/221/61 110/222/61 92/204/61 91/203/61
f 107/220/62 108/219/62 110/222/62 109/221/62
f 92/204/6 110/222/6 111/223/6
f 110/222/6 108/219/6 111/223/6
f 108/219/6 106/217/6 111/223/6
f 106/217/6 104/215/6 111/223/6
f 104/215/6 102/213/6 111/223/6
f 102/213/6 100/211/6 111/223/6
f 100/211/6 98/209/6 111/223/6
f 98/209/6 96/207/6 111/223/6
f 96/207/6 94/205/6 111/223/6
f 94/205/6 92/204/6 111/223/6
f 115/224/3 131/225/3 118/226/3 119/227/3
f 120/228/63 130/229/63 131/230/63 115/231/63
f 122/232/64 119/233/64 118/234/64 123/235/64
f 113/236/65 129/237/65 117/238/65
f 117/239/66 127/240/66 139/241/66 134/242/66
f 114/243/3 118/226/3 131/225/3
f 126/244/67 116/245/67 150/246/67 155/247/67
f 124/248/5 128/249/5 130/229/5 120/228/5
f 126/244/6 122/232/6 123/235/6 127/240/6
f 121/250/68 125/251/68 138/252/68 136/253/68
f 124/248/69 120/228/69 152/254/69 154/255/69
f 112/256/70 129/257/70 128/249/70 124/248/70
f 116/245/71 126/244/71 127/240/71 117/239/71
f 127/240/72 123/235/72 137/258/72 139/241/72
f 122/232/73 126/244/73 155/247/73 153/259/73
f 128/249/74 125/251/74 121/250/74 130/229/74
f 114/260/75 131/230/75 130/229/75
f 121/250/76 114/260/76 130/229/76
f 125/251/77 128/249/77 113/261/77
f 129/257/78 113/261/78 128/249/78
f 134/262/79 139/263/79 147/264/79 142/265/79
f 136/266/6 138/267/6 146/268/6 144/269/6
f 139/263/5 137/270/5 145/271/5 147/264/5
f 125/251/80 113/261/80 132/272/80 138/252/80
f 123/235/81 118/234/81 135/273/81 137/258/81
f 118/226/82 114/243/82 133/274/82 135/275/82
f 113/236/83 117/238/83 134/276/83 132/277/83
f 114/260/84 121/250/84 136/253/84 133/278/84
f 144/279/85 145/280/85 143/281/85 141/282/85
f 146/283/86 147/284/86 145/280/86 144/279/86
f 140/285/87 142/286/87 147/284/87 146/283/87
f 138/267/88 132/287/88 140/288/88 146/268/88
f 137/270/89 135/289/89 143/290/89 145/271/89
f 135/291/1 133/292/1 141/293/1 143/294/1
f 132/295/28 134/296/28 142/297/28 140/298/28
f 133/299/90 136/266/90 144/269/90 141/300/90
f 155/301/79 150/302/79 158/303/79 163/304/79
f 154/305/6 152/306/6 160/307/6 162/308/6
f 153/309/5 155/301/5 163/304/5 161/310/5
f 112/256/91 124/248/91 154/255/91 148/311/91
f 119/233/92 122/232/92 153/259/92 151/312/92
f 115/224/93 119/227/93 151/313/93 149/314/93
f 116/315/94 112/316/94 148/317/94 150/318/94
f 120/228/95 115/231/95 149/319/95 152/254/95
f 161/320/33 160/321/33 157/322/33 159/323/33
f 163/324/96 162/325/96 160/321/96 161/320/96
f 158/326/96 156/327/96 162/325/96 163/324/96
f 148/328/97 154/305/97 162/308/97 156/329/97
f 151/330/89 153/309/89 161/310/89 159/331/89
f 149/332/1 151/333/1 159/334/1 157/335/1
f 150/336/3 148/337/3 156/338/3 158/339/3
f 152/306/98 149/340/98 157/341/98 160/307/98
f 116/315/1 117/238/1 129/237/1 112/316/1
