# Blender v2.69 (sub 0) OBJ File: 'T3_AO.blend'
# www.blender.org
mtllib turret_big_canon_bot.mtl
o Cube.001
v 0.011607 -4.999969 -6.922225
v 0.011607 -4.307664 -6.537503
v 4.102205 -4.999969 -5.593111
v 3.876070 -4.307664 -5.281863
v 6.630333 -4.999969 -2.113440
v 6.264440 -4.307663 -1.994553
v 6.630333 -4.999969 2.187670
v 6.264440 -4.307663 2.068784
v 4.102204 -4.999969 5.667340
v 3.876070 -4.307663 5.356092
v 0.011606 -4.999969 6.996456
v 0.011606 -4.307663 6.611732
v -4.078991 -4.999969 5.667340
v -3.852857 -4.307663 5.356092
v -6.607119 -4.999969 2.187670
v -6.241226 -4.307663 2.068784
v -6.607120 -4.999969 -2.113441
v -6.241226 -4.307663 -1.994555
v -4.078989 -4.999969 -5.593112
v -3.852854 -4.307664 -5.281864
v 0.011607 -4.307664 0.037115
vt 0.882331 0.560601
vt 0.858958 0.560602
vt 0.859301 0.429549
vt 0.882693 0.421879
vt 0.796270 0.803753
vt 0.772792 0.793216
vt 0.772792 0.681542
vt 0.796270 0.685545
vt 0.772792 0.543743
vt 0.796270 0.539682
vt 0.772792 0.432453
vt 0.796270 0.421879
vt 0.847010 0.124826
vt 0.870634 0.132495
vt 0.870038 0.263549
vt 0.846379 0.263548
vt 0.870634 0.394606
vt 0.847010 0.402274
vt 0.815875 0.421879
vt 0.839353 0.432466
vt 0.839353 0.543617
vt 0.815875 0.539535
vt 0.839353 0.681416
vt 0.815875 0.685397
vt 0.882693 0.699327
vt 0.859301 0.691659
vt 0.839353 0.793227
vt 0.815875 0.803751
vt 0.352909 0.413148
vt 0.221854 0.455731
vt 0.221854 0.232767
vt 0.433906 0.301666
vt 0.433906 0.163867
vt 0.352909 0.052385
vt 0.221854 0.009802
vt 0.090799 0.052385
vt 0.009803 0.163867
vt 0.009802 0.301667
vt 0.090799 0.413149
vn 0.273207 0.467268 -0.840844
vn 0.715265 0.467268 -0.519670
vn 0.884116 0.467267 -0.000000
vn 0.715264 0.467269 0.519670
vn 0.273207 0.467268 0.840844
vn -0.273207 0.467268 0.840844
vn -0.715265 0.467268 0.519670
vn -0.884116 0.467268 0.000000
vn -0.273207 0.467268 -0.840844
vn -0.715265 0.467268 -0.519670
vn -0.000000 1.000000 -0.000000
usemtl batchbake_AOComp
s off
f 1/1/1 2/2/1 4/3/1 3/4/1
f 3/5/2 4/6/2 6/7/2 5/8/2
f 5/8/3 6/7/3 8/9/3 7/10/3
f 7/10/4 8/9/4 10/11/4 9/12/4
f 9/13/5 10/14/5 12/15/5 11/16/5
f 11/16/6 12/15/6 14/17/6 13/18/6
f 13/19/7 14/20/7 16/21/7 15/22/7
f 15/22/8 16/21/8 18/23/8 17/24/8
f 19/25/9 20/26/9 2/2/9 1/1/9
f 17/24/10 18/23/10 20/27/10 19/28/10
f 2/29/11 20/30/11 21/31/11
f 4/32/11 2/29/11 21/31/11
f 6/33/11 4/32/11 21/31/11
f 8/34/11 6/33/11 21/31/11
f 10/35/11 8/34/11 21/31/11
f 12/36/11 10/35/11 21/31/11
f 14/37/11 12/36/11 21/31/11
f 16/38/11 14/37/11 21/31/11
f 18/39/11 16/38/11 21/31/11
f 20/30/11 18/39/11 21/31/11
