# Blender v2.69 (sub 0) OBJ File: 'turret.blend'
# www.blender.org
mtllib turret_basic_bot.mtl
o Box002.002
v -0.055428 -4.678849 -2.658077
v -0.863824 -4.678849 -2.504888
v -0.863824 -3.992741 -2.504888
v -0.055428 -3.992741 -2.658077
v -1.574705 -4.678849 -2.063789
v -1.574705 -3.992741 -2.063789
v -2.102357 -4.678849 -1.388000
v -2.102357 -3.992741 -1.388000
v -2.383100 -4.678849 -0.559003
v -2.383100 -3.992741 -0.559003
v -2.383100 -4.678849 0.323174
v -2.383100 -3.992741 0.323174
v -2.102357 -4.678849 1.152154
v -2.102357 -3.992741 1.152154
v -1.574705 -4.678849 1.827962
v -1.574705 -3.992742 1.827962
v -0.863824 -4.678850 2.269042
v -0.863824 -3.992742 2.269042
v -0.055428 -4.678850 2.422231
v -0.055428 -3.992742 2.422231
v 0.752967 -4.678850 2.269042
v 0.752967 -3.992742 2.269042
v 1.463848 -4.678849 1.827962
v 1.463848 -3.992742 1.827962
v 1.991500 -4.678849 1.152154
v 1.991502 -3.992741 1.152154
v 2.272243 -4.678849 0.323174
v 2.272243 -3.992741 0.323174
v 2.272243 -4.678849 -0.559001
v 2.272243 -3.992741 -0.559001
v 1.991502 -4.678849 -1.388000
v 1.991502 -3.992741 -1.388000
v 1.463848 -4.678849 -2.063789
v 1.463848 -3.992741 -2.063789
v 0.752968 -4.678849 -2.504888
v 0.752968 -3.992741 -2.504888
v -0.863824 -3.306633 -2.504888
v -0.055428 -3.306633 -2.658076
v -1.574705 -3.306633 -2.063789
v -2.102357 -3.306633 -1.387999
v -2.383100 -3.306633 -0.559003
v -2.383100 -3.306633 0.323175
v -2.102357 -3.306633 1.152154
v -1.574705 -3.306633 1.827962
v -0.863824 -3.306633 2.269043
v -0.055428 -3.306633 2.422231
v 0.752968 -3.306633 2.269043
v 1.463848 -3.306633 1.827962
v 1.991502 -3.306633 1.152154
v 2.272243 -3.306633 0.323175
v 2.272245 -3.306633 -0.559001
v 1.991502 -3.306633 -1.387999
v 1.463848 -3.306633 -2.063789
v 0.752968 -3.306633 -2.504888
v -0.863824 -2.620524 -2.504888
v -0.055427 -2.620524 -2.658076
v -1.574703 -2.620525 -2.063788
v -2.102357 -2.620525 -1.387999
v -2.383100 -2.620525 -0.559003
v -2.383100 -2.620525 0.323175
v -2.102357 -2.620525 1.152154
v -1.574705 -2.620525 1.827962
v -0.863824 -2.620525 2.269043
v -0.055428 -2.620525 2.422231
v 0.752968 -2.620525 2.269043
v 1.463848 -2.620525 1.827962
v 1.991502 -2.620525 1.152154
v 2.272245 -2.620525 0.323175
v 2.272245 -2.620525 -0.559001
v 1.991502 -2.620525 -1.387999
v 1.463848 -2.620525 -2.063788
v 0.752968 -2.620524 -2.504888
v -0.863824 -1.934417 -2.504888
v -0.055427 -1.934417 -2.658076
v -1.574703 -1.934417 -2.063788
v -2.102357 -1.934417 -1.387999
v -2.383100 -1.934417 -0.559003
v -2.383100 -1.934417 0.323175
v -2.102357 -1.934417 1.152155
v -1.574703 -1.934417 1.827962
v -0.863824 -1.934417 2.269043
v -0.055427 -1.934417 2.422231
v 0.752968 -1.934417 2.269043
v 1.463848 -1.934417 1.827962
v 1.991502 -1.934417 1.152155
v 2.272245 -1.934417 0.323175
v 2.272245 -1.934417 -0.559001
v 1.991502 -1.934417 -1.387999
v 1.463850 -1.934417 -2.063788
v 0.752968 -1.934417 -2.504888
v -0.863824 -1.248308 -2.504887
v -0.055427 -1.248308 -2.658076
v -1.574703 -1.248308 -2.063788
v -2.102357 -1.248308 -1.387999
v -2.383099 -1.248308 -0.559003
v -2.383099 -1.248308 0.323175
v -2.102357 -1.248308 1.152155
v -1.574703 -1.248308 1.827963
v -0.863824 -1.248308 2.269043
v -0.055427 -1.248308 2.422231
v 0.752968 -1.248308 2.269043
v 1.463848 -1.248308 1.827963
v 1.991502 -1.248308 1.152155
v 2.272245 -1.248308 0.323175
v 2.272245 -1.248308 -0.559001
v 1.991502 -1.248308 -1.387999
v 1.463850 -1.248308 -2.063788
v 0.752968 -1.248308 -2.504887
v -0.344612 -0.673134 -0.971777
v -0.598900 -0.673134 -0.813996
v -0.787648 -0.673134 -0.572247
v 0.233756 -0.673134 -0.971777
v -0.888083 -0.673134 -0.275702
v -0.888083 -0.673134 0.039876
v -0.598900 -0.673134 0.578170
v -0.787648 -0.673134 0.336420
v -0.344612 -0.673134 0.735950
v -0.055427 -0.673134 0.790745
v 0.488044 -0.673134 0.578170
v 0.233756 -0.673134 0.735950
v 0.676793 -0.673134 0.336420
v 0.777229 -0.673134 0.039876
v 0.676794 -0.673134 -0.572247
v 0.777229 -0.673134 -0.275702
v 0.488044 -0.673134 -0.813996
v -0.055427 -0.673134 -1.026589
v -0.690758 -0.978600 -1.993862
v -0.055427 -0.978600 -2.114265
v -1.249457 -0.978599 -1.647204
v -1.664132 -0.978599 -1.116094
v -1.884789 -0.978599 -0.464580
v -1.884789 -0.978599 0.228754
v -1.664132 -0.978599 0.880249
v -1.249459 -0.978599 1.411378
v -0.690758 -0.978600 1.758036
v -0.055427 -0.978600 1.878439
v 0.579903 -0.978600 1.758036
v 1.138604 -0.978600 1.411378
v 1.553276 -0.978600 0.880249
v 1.773935 -0.978600 0.228754
v 1.773935 -0.978600 -0.464580
v 1.553276 -0.978600 -1.116094
v 1.138604 -0.978600 -1.647204
v 0.579903 -0.978600 -1.993862
v 3.114860 -4.628910 0.471302
v 3.114862 -2.522461 0.471302
v 2.101898 -2.522460 0.471302
v 2.101898 -4.628910 0.471302
v 2.561512 -1.416052 0.471303
v 2.101898 -1.416052 0.471303
v 2.101898 -2.522460 -0.617334
v 3.114862 -2.522461 -0.617334
v 3.114860 -4.628910 -0.617334
v 2.101898 -4.628910 -0.617334
v 2.101898 -1.416052 -0.617334
v 2.561514 -1.416052 -0.617334
v -2.094322 -4.628910 0.471302
v -2.094320 -2.522460 0.471302
v -3.107285 -2.522460 0.471302
v -3.107285 -4.628910 0.471302
v -2.094320 -1.416052 0.471303
v -2.553937 -1.416052 0.471303
v -2.094322 -4.628910 -0.617336
v -3.107285 -4.628910 -0.617336
v -3.107285 -2.522460 -0.617336
v -2.094320 -2.522460 -0.617336
v -2.553935 -1.416052 -0.617336
v -2.094320 -1.416052 -0.617336
v -0.502687 -4.628911 3.270461
v -0.502685 -2.522460 3.270461
v -0.502685 -2.522460 2.181825
v -0.502685 -4.628911 2.181824
v -0.502685 -1.416052 2.675776
v -0.502685 -1.416052 2.181825
v 0.510279 -2.522460 2.181825
v 0.510278 -2.522460 3.270461
v 0.510278 -4.628911 3.270461
v 0.510278 -4.628911 2.181824
v 0.510279 -1.416052 2.181825
v 0.510279 -1.416052 2.675776
v -0.502685 -4.628910 -2.327875
v -0.502685 -2.522460 -2.327875
v -0.502685 -2.522460 -3.416511
v -0.502685 -4.628910 -3.416511
v -0.502685 -1.416052 -2.327875
v -0.502685 -1.416052 -2.821825
v 0.510278 -4.628910 -2.327875
v 0.510278 -4.628910 -3.416511
v 0.510279 -2.522460 -3.416511
v 0.510279 -2.522460 -2.327875
v 0.510279 -1.416052 -2.821825
v 0.510279 -1.416052 -2.327875
v 3.347960 -5.052514 3.512701
v -3.405130 -5.052514 3.512699
v -3.405130 -5.052513 -3.744882
v 3.347960 -5.052513 -3.744882
v 3.347960 -4.562437 3.512702
v 3.347960 -4.562436 -3.744882
v -3.405130 -4.562436 -3.744882
v -3.405130 -4.562437 3.512700
vt 0.603839 0.528036
vt 0.603839 0.565291
vt 0.549477 0.565291
vt 0.549477 0.528036
vt 0.603839 0.602402
vt 0.549477 0.602402
vt 0.603839 0.634896
vt 0.549477 0.634896
vt 0.741271 0.007673
vt 0.776754 0.007131
vt 0.776754 0.061445
vt 0.741271 0.061987
vt 0.814512 0.007131
vt 0.814512 0.061445
vt 0.849994 0.007673
vt 0.849994 0.061987
vt 0.878920 0.008692
vt 0.878920 0.063006
vt 0.618101 0.470760
vt 0.652640 0.470578
vt 0.652640 0.524935
vt 0.618101 0.525118
vt 0.690314 0.470547
vt 0.690314 0.524905
vt 0.726581 0.470673
vt 0.726581 0.525031
vt 0.757064 0.470940
vt 0.757064 0.525298
vt 0.727009 0.278920
vt 0.698083 0.279209
vt 0.698083 0.224852
vt 0.727009 0.224562
vt 0.662602 0.279364
vt 0.662602 0.225006
vt 0.624843 0.279364
vt 0.624843 0.225006
vt 0.589360 0.279209
vt 0.589360 0.224852
vt 0.560435 0.278920
vt 0.560435 0.224562
vt 0.603839 0.470547
vt 0.603839 0.495132
vt 0.549477 0.495132
vt 0.549477 0.470548
vt 0.495116 0.565291
vt 0.495116 0.528036
vt 0.495116 0.602402
vt 0.495116 0.634896
vt 0.776754 0.115758
vt 0.741271 0.116301
vt 0.814512 0.115758
vt 0.849994 0.116301
vt 0.878920 0.117320
vt 0.652640 0.579293
vt 0.618101 0.579476
vt 0.690314 0.579263
vt 0.726581 0.579389
vt 0.757064 0.579656
vt 0.698083 0.170494
vt 0.727009 0.170204
vt 0.662602 0.170648
vt 0.624843 0.170648
vt 0.589360 0.170494
vt 0.560435 0.170204
vt 0.495116 0.495132
vt 0.495116 0.470548
vt 0.440754 0.565291
vt 0.440754 0.528036
vt 0.440754 0.602402
vt 0.440754 0.634896
vt 0.776754 0.170072
vt 0.741271 0.170614
vt 0.814512 0.170072
vt 0.849994 0.170614
vt 0.878920 0.171633
vt 0.652640 0.633651
vt 0.618101 0.633834
vt 0.690314 0.633621
vt 0.726581 0.633747
vt 0.757064 0.634014
vt 0.698083 0.116136
vt 0.727009 0.115846
vt 0.662602 0.116290
vt 0.624843 0.116290
vt 0.589360 0.116136
vt 0.560435 0.115846
vt 0.440754 0.495132
vt 0.440754 0.470548
vt 0.386392 0.565291
vt 0.386392 0.528036
vt 0.386392 0.602402
vt 0.386392 0.634896
vt 0.776754 0.224386
vt 0.741271 0.224928
vt 0.814512 0.224386
vt 0.849994 0.224928
vt 0.878920 0.225947
vt 0.652640 0.688009
vt 0.618101 0.688191
vt 0.690314 0.687978
vt 0.726581 0.688104
vt 0.757064 0.688371
vt 0.698083 0.061778
vt 0.727009 0.061489
vt 0.662602 0.061933
vt 0.624843 0.061933
vt 0.589360 0.061778
vt 0.560435 0.061489
vt 0.386392 0.495132
vt 0.386392 0.470547
vt 0.332031 0.565291
vt 0.332031 0.528036
vt 0.332031 0.602402
vt 0.332031 0.634896
vt 0.776754 0.278699
vt 0.741271 0.279242
vt 0.814512 0.278699
vt 0.849994 0.279242
vt 0.878920 0.280261
vt 0.652640 0.742366
vt 0.618101 0.742549
vt 0.690314 0.742336
vt 0.726581 0.742462
vt 0.757064 0.742729
vt 0.698083 0.007421
vt 0.727009 0.007131
vt 0.662602 0.007575
vt 0.624843 0.007575
vt 0.589360 0.007421
vt 0.560435 0.007131
vt 0.332031 0.495132
vt 0.332031 0.470547
vt 0.546173 0.096975
vt 0.439102 0.007131
vt 0.508988 0.032567
vt 0.533260 0.061493
vt 0.546173 0.134734
vt 0.533259 0.170216
vt 0.476288 0.218021
vt 0.508988 0.199142
vt 0.439102 0.224577
vt 0.401916 0.218021
vt 0.344945 0.170216
vt 0.369216 0.199142
vt 0.332031 0.134734
vt 0.332031 0.096975
vt 0.369216 0.032567
vt 0.344945 0.061493
vt 0.401916 0.013688
vt 0.476288 0.013688
vt 0.425800 0.384109
vt 0.414103 0.377356
vt 0.405420 0.367008
vt 0.452404 0.384109
vt 0.400800 0.354316
vt 0.400800 0.340808
vt 0.414103 0.317768
vt 0.405420 0.328116
vt 0.425800 0.311015
vt 0.439102 0.308670
vt 0.464101 0.317768
vt 0.452404 0.311015
vt 0.472784 0.328116
vt 0.477404 0.340808
vt 0.472784 0.367008
vt 0.477404 0.354316
vt 0.464101 0.377356
vt 0.439102 0.386455
vt 0.439102 0.456286
vt 0.401916 0.449729
vt 0.409877 0.427856
vt 0.439102 0.433010
vt 0.369216 0.430849
vt 0.384177 0.413019
vt 0.344944 0.401924
vt 0.365103 0.390286
vt 0.332031 0.366442
vt 0.354952 0.362400
vt 0.332031 0.328683
vt 0.354952 0.332724
vt 0.344944 0.293201
vt 0.365103 0.304839
vt 0.369216 0.264275
vt 0.384177 0.282106
vt 0.401916 0.245396
vt 0.409877 0.267268
vt 0.439102 0.238839
vt 0.439102 0.262114
vt 0.476288 0.245396
vt 0.468327 0.267268
vt 0.508988 0.264275
vt 0.494027 0.282106
vt 0.533259 0.293201
vt 0.513101 0.304839
vt 0.546173 0.328683
vt 0.523251 0.332724
vt 0.546173 0.366441
vt 0.523251 0.362400
vt 0.533259 0.401924
vt 0.513101 0.390286
vt 0.508988 0.430849
vt 0.494027 0.413019
vt 0.476288 0.449729
vt 0.468327 0.427856
vt 0.618101 1.011501
vt 0.618101 0.844615
vt 0.664427 0.844675
vt 0.664427 1.011561
vt 0.643407 0.756991
vt 0.664427 0.757018
vt 0.051087 0.937743
vt 0.007131 0.937743
vt 0.007131 0.770845
vt 0.051087 0.770845
vt 0.051087 1.025406
vt 0.031143 1.025406
vt 0.728746 0.395428
vt 0.682150 0.395428
vt 0.682150 0.348833
vt 0.728746 0.348833
vt 0.441002 0.737118
vt 0.441002 0.904004
vt 0.394407 0.904004
vt 0.394407 0.737118
vt 0.394407 0.649158
vt 0.441002 0.649158
vt 0.275935 0.709987
vt 0.297077 0.709987
vt 0.297077 0.756583
vt 0.275935 0.756583
vt 0.941230 0.724884
vt 0.941230 0.637298
vt 0.987826 0.637298
vt 0.987826 0.724884
vt 0.941230 0.470547
vt 0.987826 0.470547
vt 0.757064 0.757051
vt 0.757064 0.923937
vt 0.710737 0.923877
vt 0.710737 0.756991
vt 0.757064 1.011593
vt 0.736044 1.011566
vt 0.203455 1.025406
vt 0.159499 1.025406
vt 0.159499 0.858508
vt 0.203455 0.858508
vt 0.183511 0.770845
vt 0.203455 0.770845
vt 0.560435 0.395428
vt 0.560435 0.348833
vt 0.607031 0.348833
vt 0.607031 0.395428
vt 0.603839 0.649158
vt 0.603839 0.815908
vt 0.557243 0.815908
vt 0.557243 0.649158
vt 0.603839 0.904563
vt 0.557243 0.904563
vt 0.455264 0.649158
vt 0.476406 0.649158
vt 0.476406 0.695753
vt 0.455264 0.695753
vt 0.542981 0.649158
vt 0.542981 0.736814
vt 0.496386 0.736814
vt 0.496386 0.649158
vt 0.542981 0.903700
vt 0.496386 0.903700
vt 0.987826 0.739146
vt 0.987826 0.905896
vt 0.941230 0.905896
vt 0.941230 0.739146
vt 0.962372 0.993482
vt 0.941230 0.993482
vt 0.174017 0.709987
vt 0.174017 0.756583
vt 0.007131 0.756583
vt 0.007131 0.709987
vt 0.261674 0.709987
vt 0.261674 0.731129
vt 0.667888 0.395428
vt 0.621293 0.395428
vt 0.621293 0.348833
vt 0.667888 0.348833
vt 0.378355 0.737142
vt 0.380145 0.904018
vt 0.333821 0.904455
vt 0.332031 0.737579
vt 0.333821 0.649595
vt 0.380145 0.649158
vt 0.607031 0.313429
vt 0.607031 0.334571
vt 0.560435 0.334571
vt 0.560435 0.313429
vt 0.261674 0.770845
vt 0.261674 0.858508
vt 0.217717 0.858508
vt 0.217717 0.770845
vt 0.261674 1.025406
vt 0.217717 1.025406
vt 0.560435 0.409690
vt 0.727186 0.409690
vt 0.727186 0.456286
vt 0.560435 0.456286
vt 0.814772 0.409690
vt 0.814772 0.430832
vt 0.939777 0.280261
vt 0.893182 0.280261
vt 0.893182 0.113375
vt 0.939777 0.113375
vt 0.918636 0.025718
vt 0.939778 0.025718
vt 0.743007 0.395428
vt 0.743007 0.348833
vt 0.789603 0.348833
vt 0.789603 0.395428
vt 0.873880 0.472005
vt 0.868346 0.638811
vt 0.824414 0.637354
vt 0.829948 0.470547
vt 0.873880 0.726706
vt 0.829948 0.725248
vt 0.455264 0.710015
vt 0.476406 0.710015
vt 0.476406 0.756611
vt 0.455264 0.756611
vt 0.873880 0.741028
vt 0.873880 0.828684
vt 0.827554 0.828624
vt 0.827554 0.740968
vt 0.873880 0.995570
vt 0.827554 0.995510
vt 0.317769 0.317769
vt 0.007131 0.317769
vt 0.007131 0.007131
vt 0.317769 0.007131
vt 0.007131 0.642669
vt 0.007131 0.332031
vt 0.317769 0.332031
vt 0.317769 0.642669
vt 0.771325 0.781185
vt 0.771325 0.470547
vt 0.810152 0.470547
vt 0.810152 0.781185
vt 0.954039 0.318762
vt 0.954039 0.025718
vt 0.992869 0.025718
vt 0.992869 0.318762
vt 0.317769 0.695726
vt 0.007131 0.695726
vt 0.007131 0.656930
vt 0.317769 0.656930
vt 0.888142 0.779439
vt 0.888142 0.470598
vt 0.926969 0.470547
vt 0.926969 0.779388
vn -0.186184 0.000000 -0.982515
vn -0.527243 0.000000 -0.849714
vn -0.788199 0.000000 -0.615421
vn -0.947161 0.000000 -0.320759
vn -1.000000 0.000000 0.000000
vn -0.947159 0.000000 0.320765
vn -0.788207 0.000000 0.615410
vn -0.527228 -0.000000 0.849724
vn -0.186183 0.000000 0.982515
vn 0.186183 0.000000 0.982515
vn 0.527228 -0.000000 0.849724
vn 0.788207 -0.000001 0.615411
vn 0.947159 -0.000001 0.320765
vn 1.000000 0.000000 0.000000
vn 0.947161 0.000000 -0.320758
vn 0.788198 0.000000 -0.615422
vn 0.527244 0.000000 -0.849714
vn 0.186183 0.000000 -0.982515
vn -0.527244 0.000000 -0.849714
vn 0.186183 -0.000001 0.982515
vn 0.527228 -0.000001 0.849724
vn 0.788206 -0.000000 0.615411
vn 0.947159 -0.000000 0.320764
vn 1.000000 -0.000001 0.000001
vn 0.947161 -0.000001 -0.320759
vn 0.527245 0.000000 -0.849714
vn 0.186184 0.000000 -0.982515
vn -0.527245 0.000001 -0.849714
vn -0.788198 0.000001 -0.615421
vn 0.527229 -0.000000 0.849723
vn 1.000000 -0.000002 0.000001
vn 0.947161 0.000000 -0.320760
vn 0.527245 0.000000 -0.849713
vn -0.527245 0.000000 -0.849713
vn -0.788198 0.000000 -0.615422
vn -0.788207 0.000001 0.615411
vn -0.527228 0.000001 0.849724
vn 0.947159 0.000000 0.320766
vn 0.788198 -0.000001 -0.615421
vn 0.527244 -0.000001 -0.849714
vn -0.186183 0.000000 -0.982515
vn -0.947161 0.000001 -0.320759
vn -1.000000 0.000002 0.000000
vn -0.947159 0.000001 0.320764
vn -0.788206 0.000000 0.615412
vn -0.527229 -0.000000 0.849723
vn 0.788199 0.000000 -0.615421
vn -0.000000 -1.000000 -0.000000
vn 0.000001 -1.000000 0.000000
vn -0.000001 -1.000000 -0.000002
vn 0.000000 -1.000000 -0.000002
vn 0.000000 1.000000 0.000000
vn -0.000001 1.000000 0.000001
vn 0.000000 1.000000 0.000001
vn 0.000001 1.000000 0.000000
vn -0.083902 0.892714 -0.442745
vn -0.240755 0.889654 -0.388011
vn -0.366939 0.885028 -0.286500
vn -0.448084 0.881018 -0.151751
vn -0.475998 0.879446 0.000000
vn -0.448083 0.881018 0.151754
vn -0.366944 0.885027 0.286495
vn -0.240754 0.889651 0.388019
vn -0.083904 0.892707 0.442757
vn 0.083904 0.892707 0.442757
vn 0.240754 0.889652 0.388018
vn 0.366943 0.885028 0.286494
vn 0.448081 0.881019 0.151755
vn 0.475996 0.879447 0.000000
vn 0.448082 0.881019 -0.151751
vn 0.366938 0.885028 -0.286498
vn 0.240755 0.889654 -0.388011
vn 0.083902 0.892714 -0.442745
vn -0.051176 0.961492 -0.270027
vn -0.147148 0.960263 -0.237155
vn -0.225005 0.958389 -0.175677
vn -0.275536 0.956751 -0.093319
vn -0.293022 0.956106 0.000000
vn -0.275535 0.956750 0.093321
vn -0.225009 0.958389 0.175675
vn -0.147147 0.960263 0.237155
vn -0.051171 0.961492 0.270025
vn 0.051171 0.961493 0.270025
vn 0.147148 0.960263 0.237155
vn 0.225010 0.958389 0.175675
vn 0.275536 0.956750 0.093323
vn 0.293023 0.956105 0.000000
vn 0.275536 0.956750 -0.093320
vn 0.225006 0.958389 -0.175677
vn 0.147149 0.960263 -0.237155
vn 0.051176 0.961492 -0.270027
vn 0.000000 -0.000000 1.000000
vn 0.000000 0.000000 -1.000000
vn 1.000000 -0.000001 0.000000
vn 0.894381 0.447307 0.000001
vn -0.894381 0.447307 -0.000001
vn -1.000000 0.000000 -0.000001
vn 1.000000 -0.000000 0.000001
vn 0.000000 0.473438 0.880827
vn 0.000000 0.473438 -0.880827
usemtl batchbake_AOComp
s off
f 1/1/1 2/2/1 3/3/1 4/4/1
f 2/2/2 5/5/2 6/6/2 3/3/2
f 5/5/3 7/7/3 8/8/3 6/6/3
f 7/9/4 9/10/4 10/11/4 8/12/4
f 9/10/5 11/13/5 12/14/5 10/11/5
f 11/13/6 13/15/6 14/16/6 12/14/6
f 13/15/7 15/17/7 16/18/7 14/16/7
f 15/19/8 17/20/8 18/21/8 16/22/8
f 17/20/9 19/23/9 20/24/9 18/21/9
f 19/23/10 21/25/10 22/26/10 20/24/10
f 21/25/11 23/27/11 24/28/11 22/26/11
f 23/29/12 25/30/12 26/31/12 24/32/12
f 25/30/13 27/33/13 28/34/13 26/31/13
f 27/33/14 29/35/14 30/36/14 28/34/14
f 29/35/15 31/37/15 32/38/15 30/36/15
f 31/37/16 33/39/16 34/40/16 32/38/16
f 33/41/17 35/42/17 36/43/17 34/44/17
f 35/42/18 1/1/18 4/4/18 36/43/18
f 4/4/1 3/3/1 37/45/1 38/46/1
f 3/3/19 6/6/19 39/47/19 37/45/19
f 6/6/3 8/8/3 40/48/3 39/47/3
f 8/12/4 10/11/4 41/49/4 40/50/4
f 10/11/5 12/14/5 42/51/5 41/49/5
f 12/14/6 14/16/6 43/52/6 42/51/6
f 14/16/7 16/18/7 44/53/7 43/52/7
f 16/22/8 18/21/8 45/54/8 44/55/8
f 18/21/9 20/24/9 46/56/9 45/54/9
f 20/24/20 22/26/20 47/57/20 46/56/20
f 22/26/21 24/28/21 48/58/21 47/57/21
f 24/32/22 26/31/22 49/59/22 48/60/22
f 26/31/23 28/34/23 50/61/23 49/59/23
f 28/34/24 30/36/24 51/62/24 50/61/24
f 30/36/25 32/38/25 52/63/25 51/62/25
f 32/38/16 34/40/16 53/64/16 52/63/16
f 34/44/26 36/43/26 54/65/26 53/66/26
f 36/43/27 4/4/27 38/46/27 54/65/27
f 38/46/1 37/45/1 55/67/1 56/68/1
f 37/45/28 39/47/28 57/69/28 55/67/28
f 39/47/29 40/48/29 58/70/29 57/69/29
f 40/50/4 41/49/4 59/71/4 58/72/4
f 41/49/5 42/51/5 60/73/5 59/71/5
f 42/51/6 43/52/6 61/74/6 60/73/6
f 43/52/7 44/53/7 62/75/7 61/74/7
f 44/55/8 45/54/8 63/76/8 62/77/8
f 45/54/9 46/56/9 64/78/9 63/76/9
f 46/56/10 47/57/10 65/79/10 64/78/10
f 47/57/30 48/58/30 66/80/30 65/79/30
f 48/60/22 49/59/22 67/81/22 66/82/22
f 49/59/13 50/61/13 68/83/13 67/81/13
f 50/61/31 51/62/31 69/84/31 68/83/31
f 51/62/32 52/63/32 70/85/32 69/84/32
f 52/63/16 53/64/16 71/86/16 70/85/16
f 53/66/33 54/65/33 72/87/33 71/88/33
f 54/65/27 38/46/27 56/68/27 72/87/27
f 56/68/1 55/67/1 73/89/1 74/90/1
f 55/67/34 57/69/34 75/91/34 73/89/34
f 57/69/35 58/70/35 76/92/35 75/91/35
f 58/72/4 59/71/4 77/93/4 76/94/4
f 59/71/5 60/73/5 78/95/5 77/93/5
f 60/73/6 61/74/6 79/96/6 78/95/6
f 61/74/36 62/75/36 80/97/36 79/96/36
f 62/77/37 63/76/37 81/98/37 80/99/37
f 63/76/9 64/78/9 82/100/9 81/98/9
f 64/78/10 65/79/10 83/101/10 82/100/10
f 65/79/30 66/80/30 84/102/30 83/101/30
f 66/82/22 67/81/22 85/103/22 84/104/22
f 67/81/38 68/83/38 86/105/38 85/103/38
f 68/83/14 69/84/14 87/106/14 86/105/14
f 69/84/32 70/85/32 88/107/32 87/106/32
f 70/85/39 71/86/39 89/108/39 88/107/39
f 71/88/40 72/87/40 90/109/40 89/110/40
f 72/87/27 56/68/27 74/90/27 90/109/27
f 74/90/41 73/89/41 91/111/41 92/112/41
f 73/89/34 75/91/34 93/113/34 91/111/34
f 75/91/35 76/92/35 94/114/35 93/113/35
f 76/94/42 77/93/42 95/115/42 94/116/42
f 77/93/43 78/95/43 96/117/43 95/115/43
f 78/95/44 79/96/44 97/118/44 96/117/44
f 79/96/45 80/97/45 98/119/45 97/118/45
f 80/99/46 81/98/46 99/120/46 98/121/46
f 81/98/9 82/100/9 100/122/9 99/120/9
f 82/100/10 83/101/10 101/123/10 100/122/10
f 83/101/30 84/102/30 102/124/30 101/123/30
f 84/104/22 85/103/22 103/125/22 102/126/22
f 85/103/38 86/105/38 104/127/38 103/125/38
f 86/105/14 87/106/14 105/128/14 104/127/14
f 87/106/32 88/107/32 106/129/32 105/128/32
f 88/107/47 89/108/47 107/130/47 106/129/47
f 89/110/17 90/109/17 108/131/17 107/132/17
f 90/109/27 74/90/27 92/112/27 108/131/27
f 29/133/48 1/134/48 33/135/48 31/136/48
f 29/133/48 27/137/48 25/138/48 21/139/48
f 25/138/49 23/140/49 21/139/49
f 21/139/48 19/141/48 17/142/48 13/143/48
f 17/142/50 15/144/50 13/143/50
f 13/143/48 11/145/48 9/146/48 5/147/48
f 9/146/48 7/148/48 5/147/48
f 21/139/48 13/143/48 5/147/48 29/133/48
f 1/134/48 29/133/48 5/147/48 2/149/48
f 33/135/51 1/134/51 35/150/51
f 109/151/52 110/152/52 111/153/52 112/154/52
f 111/153/52 113/155/52 114/156/52 115/157/52
f 114/156/53 116/158/53 115/157/53
f 115/157/52 117/159/52 118/160/52 119/161/52
f 118/160/54 120/162/54 119/161/54
f 119/161/52 121/163/52 122/164/52 123/165/52
f 122/164/55 124/166/55 123/165/55
f 115/157/52 119/161/52 123/165/52 111/153/52
f 123/165/52 125/167/52 112/154/52 111/153/52
f 126/168/52 109/151/52 112/154/52
f 92/169/56 91/170/56 127/171/56 128/172/56
f 91/170/57 93/173/57 129/174/57 127/171/57
f 93/173/58 94/175/58 130/176/58 129/174/58
f 94/175/59 95/177/59 131/178/59 130/176/59
f 95/177/60 96/179/60 132/180/60 131/178/60
f 96/179/61 97/181/61 133/182/61 132/180/61
f 97/181/62 98/183/62 134/184/62 133/182/62
f 98/183/63 99/185/63 135/186/63 134/184/63
f 99/185/64 100/187/64 136/188/64 135/186/64
f 100/187/65 101/189/65 137/190/65 136/188/65
f 101/189/66 102/191/66 138/192/66 137/190/66
f 102/191/67 103/193/67 139/194/67 138/192/67
f 103/193/68 104/195/68 140/196/68 139/194/68
f 104/195/69 105/197/69 141/198/69 140/196/69
f 105/197/70 106/199/70 142/200/70 141/198/70
f 106/199/71 107/201/71 143/202/71 142/200/71
f 107/201/72 108/203/72 144/204/72 143/202/72
f 108/203/73 92/169/73 128/172/73 144/204/73
f 128/172/74 127/171/74 109/151/74 126/168/74
f 127/171/75 129/174/75 110/152/75 109/151/75
f 129/174/76 130/176/76 111/153/76 110/152/76
f 130/176/77 131/178/77 113/155/77 111/153/77
f 131/178/78 132/180/78 114/156/78 113/155/78
f 132/180/79 133/182/79 116/158/79 114/156/79
f 133/182/80 134/184/80 115/157/80 116/158/80
f 134/184/81 135/186/81 117/159/81 115/157/81
f 135/186/82 136/188/82 118/160/82 117/159/82
f 136/188/83 137/190/83 120/162/83 118/160/83
f 137/190/84 138/192/84 119/161/84 120/162/84
f 138/192/85 139/194/85 121/163/85 119/161/85
f 139/194/86 140/196/86 122/164/86 121/163/86
f 140/196/87 141/198/87 124/166/87 122/164/87
f 141/198/88 142/200/88 123/165/88 124/166/88
f 142/200/89 143/202/89 125/167/89 123/165/89
f 143/202/90 144/204/90 112/154/90 125/167/90
f 144/204/91 128/172/91 126/168/91 112/154/91
f 145/205/92 146/206/92 147/207/92 148/208/92
f 146/206/92 149/209/92 150/210/92 147/207/92
f 151/211/93 152/212/93 153/213/93 154/214/93
f 155/215/93 156/216/93 152/212/93 151/211/93
f 145/217/48 148/218/48 154/219/48 153/220/48
f 146/221/94 145/222/94 153/223/94 152/224/94
f 152/224/95 156/225/95 149/226/95 146/221/95
f 156/227/52 155/228/52 150/229/52 149/230/52
f 155/231/5 151/232/5 147/233/5 150/234/5
f 151/232/5 154/235/5 148/236/5 147/233/5
f 157/237/92 158/238/92 159/239/92 160/240/92
f 158/238/92 161/241/92 162/242/92 159/239/92
f 163/243/93 164/244/93 165/245/93 166/246/93
f 166/246/93 165/245/93 167/247/93 168/248/93
f 157/249/48 160/250/48 164/251/48 163/252/48
f 160/253/5 159/254/5 165/255/5 164/256/5
f 159/254/96 162/257/96 167/258/96 165/255/96
f 162/259/52 161/260/52 168/261/52 167/262/52
f 161/263/14 158/264/14 166/265/14 168/266/14
f 158/264/94 157/267/94 163/268/94 166/265/94
f 169/269/97 170/270/97 171/271/97 172/272/97
f 170/270/5 173/273/5 174/274/5 171/271/5
f 175/275/98 176/276/98 177/277/98 178/278/98
f 179/279/98 180/280/98 176/276/98 175/275/98
f 169/281/48 172/282/48 178/283/48 177/284/48
f 170/285/92 169/286/92 177/287/92 176/288/92
f 176/288/99 180/289/99 173/290/99 170/285/99
f 180/291/52 179/292/52 174/293/52 173/294/52
f 179/295/93 175/296/93 171/297/93 174/298/93
f 175/296/93 178/299/93 172/300/93 171/297/93
f 181/301/5 182/302/5 183/303/5 184/304/5
f 182/302/5 185/305/5 186/306/5 183/303/5
f 187/307/94 188/308/94 189/309/94 190/310/94
f 190/310/14 189/309/14 191/311/14 192/312/14
f 181/313/48 184/314/48 188/315/48 187/316/48
f 184/317/93 183/318/93 189/319/93 188/320/93
f 183/318/100 186/321/100 191/322/100 189/319/100
f 186/323/52 185/324/52 192/325/52 191/326/52
f 185/327/92 182/328/92 190/329/92 192/330/92
f 182/328/92 181/331/92 187/332/92 190/329/92
f 193/333/48 194/334/48 195/335/48 196/336/48
f 197/337/52 198/338/52 199/339/52 200/340/52
f 193/341/14 196/342/14 198/343/14 197/344/14
f 196/345/93 195/346/93 199/347/93 198/348/93
f 195/349/5 194/350/5 200/351/5 199/352/5
f 194/353/92 193/354/92 197/355/92 200/356/92
