# Blender v2.69 (sub 0) OBJ File: 'T5 v1.blend'
# www.blender.org
mtllib turret_gun_top.mtl
o Cylinder.014
v 0.183213 -3.077967 2.026103
v -1.689879 -4.758706 2.026103
v 0.261471 -3.165180 1.958451
v -1.611621 -4.845919 1.958450
v 0.261471 -3.165180 2.093755
v -1.611621 -4.845919 2.093755
v 3.389824 -4.518397 2.035096
v 3.389824 -4.731767 2.035096
v 2.762048 -4.518397 3.967192
v 2.762048 -4.731767 3.967192
v 1.118509 -4.518397 5.161293
v 1.118509 -4.731767 5.161293
v -0.913018 -4.518397 5.161293
v -0.913018 -4.731767 5.161293
v -2.556556 -4.518397 3.967192
v -2.556556 -4.731767 3.967192
v -3.184332 -4.518397 2.035096
v -3.184332 -4.731767 2.035096
v -2.556556 -4.518397 0.103000
v -2.556556 -4.731767 0.103000
v -0.913017 -4.518397 -1.091101
v -0.913017 -4.731767 -1.091101
v 1.118509 -4.518397 -1.091101
v 1.118509 -4.731767 -1.091101
v 2.762049 -4.518397 0.103001
v 2.762049 -4.731767 0.103001
v 1.806799 -2.150450 2.026103
v 1.806799 -4.771975 2.026103
v 1.923976 -2.150450 1.958451
v 1.923976 -4.771975 1.958451
v 1.923976 -2.150450 2.093755
v 1.923976 -4.771975 2.093755
v 1.667915 -0.227208 2.026103
v 1.667915 -2.099609 2.026103
v 2.001953 -0.227208 1.833246
v 2.001953 -2.099609 1.833246
v 2.001953 -0.227208 2.218960
v 2.001953 -2.099609 2.218960
v 2.150944 -1.028904 3.041828
v 2.150944 -1.028904 1.008062
v 1.478601 -1.289843 3.041828
v 1.478601 -1.289843 1.008062
v 2.040751 -1.741639 3.041828
v 2.040751 -1.741639 1.008062
v -1.211898 -4.671473 1.541291
v -0.370206 -4.671473 1.541291
v -0.370206 -4.671473 2.495765
v -1.211898 -4.671473 2.495765
v 1.426851 -1.973893 1.541291
v 2.268543 -1.973893 1.541291
v 2.268543 -1.973893 2.495765
v 1.426851 -1.973893 2.495765
v 0.047179 -3.768916 1.541291
v 0.888871 -3.768916 1.541291
v 0.888871 -3.768916 2.495765
v 0.047179 -3.768916 2.495765
v 0.047179 -3.061318 1.541291
v 0.888871 -3.061318 1.541291
v 0.888871 -3.061318 2.495765
v 0.047179 -3.061318 2.495765
v 2.352873 -0.073854 1.445199
v 2.352873 -0.073854 0.612426
v 1.728294 0.286747 1.445199
v 1.728294 0.286747 0.612426
v 1.728294 -0.434456 1.445199
v 1.728294 -0.434456 0.612426
v 3.256455 -0.073854 1.445199
v 3.256455 -0.073854 0.612426
v 2.631875 0.286747 1.445199
v 2.631875 0.286747 0.612426
v 2.631875 -0.434456 1.445199
v 2.631875 -0.434456 0.612426
v -1.624048 -0.065206 0.613560
v 3.005716 -0.065206 0.613560
v -1.624048 -0.109930 0.677432
v 3.005716 -0.109930 0.677432
v -1.624048 -0.032253 0.684228
v 3.005716 -0.032253 0.684228
v 3.525932 1.370880 2.049145
v 1.073810 1.370880 2.049145
v 3.525932 0.933444 2.957490
v 1.073810 0.933444 2.957490
v 3.525932 -0.049465 3.181833
v 1.073810 -0.049465 3.181833
v 3.525932 -0.837698 2.553239
v 1.073810 -0.837698 2.553239
v 3.525932 -0.837698 1.545052
v 1.073810 -0.837698 1.545052
v 3.525932 -0.049465 0.916458
v 1.073810 -0.049465 0.916458
v 3.525932 0.933444 1.140800
v 1.073810 0.933444 1.140800
v -2.939974 -0.081260 2.826334
v -3.691274 -0.081260 2.826334
v -4.222156 0.274772 1.496276
v -3.107111 0.274772 1.496276
v -2.939974 -0.210972 2.826334
v -3.691274 -0.210972 2.826333
v -4.222156 0.043270 1.496276
v -3.107111 0.043270 1.496276
v -3.107111 0.274772 2.444305
v -4.222156 0.274772 2.444305
v -3.107112 0.043270 2.444305
v -4.222156 0.043270 2.444304
v -3.107111 0.111938 1.970291
v -4.222156 0.111938 1.970290
v -3.107111 -0.119564 1.970291
v -4.222156 -0.119564 1.970290
v -3.692490 -0.062554 1.084300
v -2.942834 -0.062554 1.084300
v -3.692490 -0.201796 1.084300
v -2.942834 -0.201796 1.084300
v 3.399046 0.425136 2.431100
v -1.970375 0.425138 2.431100
v 3.399046 -0.072832 2.718602
v -1.970375 -0.072831 2.718602
v 3.399046 -0.072832 2.143598
v -1.970375 -0.072831 2.143598
v -2.486323 0.260586 2.431100
v -2.486323 0.009445 2.576097
v -2.486323 0.009445 2.286103
v -5.540870 0.260587 2.431100
v -5.540871 0.009445 2.576096
v -5.540871 0.009445 2.286103
v -5.766970 0.409334 2.431100
v -5.766970 -0.064929 2.704916
v -5.766970 -0.064929 2.157284
v -6.462327 0.409334 2.431100
v -6.462327 -0.064929 2.704916
v -6.462327 -0.064929 2.157284
v 3.399046 0.425136 1.532478
v -1.970375 0.425138 1.532478
v 3.399046 -0.072832 1.819980
v -1.970375 -0.072831 1.819980
v 3.399046 -0.072832 1.244976
v -1.970375 -0.072831 1.244976
v -2.486323 0.260586 1.532478
v -2.486323 0.009445 1.677475
v -2.486323 0.009445 1.387481
v -5.540870 0.260587 1.532478
v -5.540871 0.009445 1.677474
v -5.540871 0.009445 1.387481
v -5.766970 0.409334 1.532478
v -5.766970 -0.064929 1.806294
v -5.766970 -0.064929 1.258662
v -6.462327 0.409334 1.532478
v -6.462327 -0.064929 1.806294
v -6.462327 -0.064929 1.258662
v 4.296128 0.447626 3.693496
v 2.594211 0.447626 3.693496
v -0.502648 1.410607 1.180200
v 3.943301 1.410607 1.134112
v 4.296128 0.224654 3.746998
v 2.230376 0.224654 3.746996
v -1.045918 1.256582 1.169238
v 3.943300 1.256582 1.134111
v 3.943301 1.410607 2.576591
v -0.502648 1.410607 2.576591
v 3.943300 1.256582 2.576592
v -1.045919 1.256582 2.576590
v 1.491978 0.619129 0.710120
v 3.820057 0.619129 0.710121
v 1.207500 0.439867 0.655025
v 3.820056 0.439867 0.655026
vn 0.333928 -0.372146 0.866025
vn 0.333929 -0.372146 -0.866025
vn -0.667856 0.744290 0.000000
vn 0.744290 0.667857 0.000000
vn -0.744289 -0.667857 0.000000
vn -0.951056 0.000000 -0.309017
vn -0.587785 0.000000 -0.809017
vn 0.000000 0.000000 -1.000000
vn 0.587785 0.000000 -0.809017
vn 0.951056 0.000000 -0.309017
vn 0.951056 0.000000 0.309017
vn 0.587785 0.000000 0.809017
vn 0.000000 0.000000 1.000000
vn 0.000000 1.000000 0.000000
vn -0.951056 0.000000 0.309017
vn -0.587785 0.000000 0.809017
vn 0.000000 -1.000000 0.000000
vn 0.500000 -0.000000 0.866025
vn 0.500000 -0.000000 -0.866025
vn -1.000000 0.000000 -0.000001
vn 0.500001 0.000000 -0.866025
vn -1.000000 0.000000 0.000000
vn 0.361810 -0.932252 -0.000000
vn -0.988259 0.152789 0.000000
vn 0.626449 0.779463 0.000000
vn -0.582612 0.812751 0.000000
vn 0.582612 -0.812751 0.000000
vn 0.000000 1.000000 -0.000001
vn 1.000000 -0.000000 0.000000
vn -0.619017 0.785378 0.000000
vn 0.619016 -0.785378 0.000000
vn -0.500000 -0.866025 -0.000000
vn -0.500000 0.866025 -0.000000
vn 0.000000 0.819153 0.573575
vn 0.000000 -0.906306 0.422622
vn -0.000000 0.087156 -0.996195
vn 1.000000 0.000000 0.000002
vn 0.000000 -0.900969 -0.433884
vn -0.000000 -0.222521 -0.974928
vn -0.000000 0.623490 -0.781832
vn 0.000000 0.623490 0.781832
vn 0.000000 -0.900969 0.433884
vn 0.000000 -0.222521 0.974928
vn 0.000000 -0.945753 -0.324887
vn -0.000000 0.945753 0.324886
vn 0.000001 0.000001 -1.000000
vn 1.000000 0.000000 0.000001
vn 0.000000 0.859438 -0.511240
vn -1.000000 0.000001 0.000000
vn 0.000000 -0.731559 -0.681778
vn -0.000001 0.832496 0.554031
vn 0.584098 0.000003 -0.811683
vn -0.916157 0.000002 0.400820
vn 0.000000 -0.945753 0.324887
vn 0.000000 0.945753 -0.324886
vn 1.000000 0.000001 0.000000
vn -1.000000 0.000001 -0.000001
vn -0.000001 -0.000002 1.000000
vn -0.928874 0.000002 -0.370395
vn 0.613953 -0.000001 0.789342
vn -0.000000 -0.773722 0.633525
vn -0.000000 -0.500000 -0.866026
vn -0.000000 -0.500000 0.866025
vn 0.157476 -0.493761 0.855220
vn 0.157475 0.987523 0.000000
vn 0.157475 -0.493761 -0.855220
vn -0.312471 -0.474963 0.822661
vn -0.000000 -0.500000 -0.866025
vn 0.000000 -0.500000 0.866026
vn -0.312473 0.949927 0.000000
vn -0.312470 -0.474963 -0.822662
vn 0.157475 -0.493761 0.855220
vn 0.000001 -0.233324 -0.972399
vn 0.272764 -0.962081 0.000000
vn -0.003959 0.515801 -0.856699
vn -1.000000 0.000004 -0.000000
vn 0.000000 -0.757366 -0.652991
vn -0.000000 0.750087 0.661340
vn 0.153753 -0.491587 -0.857148
vn -0.942195 0.047084 0.331739
vn -0.000000 -0.293781 0.955873
vn -0.931006 -0.059526 0.360117
vn 0.064245 -0.384927 0.920708
vn 0.005944 -0.486444 0.873692
vn 0.082633 -0.357662 0.930188
usemtl Material
s off
f 1//1 2//1 4//1 3//1
f 5//2 6//2 2//2 1//2
f 3//3 4//3 6//3 5//3
f 4//4 2//4 6//4
f 1//5 3//5 5//5
f 7//6 8//6 10//6 9//6
f 9//7 10//7 12//7 11//7
f 11//8 12//8 14//8 13//8
f 13//9 14//9 16//9 15//9
f 15//10 16//10 18//10 17//10
f 17//11 18//11 20//11 19//11
f 19//12 20//12 22//12 21//12
f 21//13 22//13 24//13 23//13
f 10//14 8//14 26//14 24//14 22//14 20//14 18//14 16//14 14//14 12//14
f 25//15 26//15 8//15 7//15
f 23//16 24//16 26//16 25//16
f 7//17 9//17 11//17 13//17 15//17 17//17 19//17 21//17 23//17 25//17
f 27//18 28//18 30//18 29//18
f 31//19 32//19 28//19 27//19
f 29//20 30//20 32//20 31//20
f 30//14 28//14 32//14
f 27//17 29//17 31//17
f 33//18 34//18 36//18 35//18
f 37//21 38//21 34//21 33//21
f 35//22 36//22 38//22 37//22
f 36//14 34//14 38//14
f 33//17 35//17 37//17
f 39//23 41//23 42//23 40//23
f 43//24 39//24 40//24 44//24
f 41//25 43//25 44//25 42//25
f 42//13 44//13 40//13
f 39//8 43//8 41//8
f 53//13 45//13 46//13 54//13
f 54//26 46//26 47//26 55//26
f 55//8 47//8 48//8 56//8
f 56//27 48//27 45//27 53//27
f 45//28 48//28 47//28 46//28
f 52//17 49//17 50//17 51//17
f 57//13 53//13 54//13 58//13
f 58//22 54//22 55//22 59//22
f 59//8 55//8 56//8 60//8
f 60//29 56//29 53//29 57//29
f 49//13 57//13 58//13 50//13
f 50//30 58//30 59//30 51//30
f 51//8 59//8 60//8 52//8
f 52//31 60//31 57//31 49//31
f 61//32 63//32 64//32 62//32
f 65//33 61//33 62//33 66//33
f 63//29 65//29 66//29 64//29
f 64//13 66//13 62//13
f 61//8 65//8 63//8
f 67//32 69//32 70//32 68//32
f 71//33 67//33 68//33 72//33
f 69//29 71//29 72//29 70//29
f 70//13 72//13 68//13
f 67//8 71//8 69//8
f 73//34 75//34 76//34 74//34
f 77//35 73//35 74//35 78//35
f 75//36 77//36 78//36 76//36
f 76//22 78//22 74//22
f 73//37 77//37 75//37
f 79//38 81//38 82//38 80//38
f 81//39 83//39 84//39 82//39
f 83//40 85//40 86//40 84//40
f 85//14 87//14 88//14 86//14
f 87//41 89//41 90//41 88//41
f 82//29 84//29 86//29 88//29 90//29 92//29 80//29
f 91//42 79//42 80//42 92//42
f 89//43 91//43 92//43 90//43
f 79//22 91//22 89//22 87//22 85//22 83//22 81//22
f 105//44 106//44 95//44 96//44
f 107//45 100//45 99//45 108//45
f 93//46 97//46 98//46 94//46
f 106//47 108//47 99//47 95//47
f 99//48 100//48 112//48 111//48
f 107//49 105//49 96//49 100//49
f 93//50 94//50 102//50 101//50
f 97//51 103//51 104//51 98//51
f 94//52 98//52 104//52 102//52
f 97//53 93//53 101//53 103//53
f 101//54 102//54 106//54 105//54
f 103//55 107//55 108//55 104//55
f 102//56 104//56 108//56 106//56
f 103//57 101//57 105//57 107//57
f 109//58 111//58 112//58 110//58
f 100//59 96//59 110//59 112//59
f 95//60 99//60 111//60 109//60
f 96//61 95//61 109//61 110//61
f 113//62 115//62 116//62 114//62
f 117//63 113//63 114//63 118//63
f 115//14 117//14 118//14 116//14
f 114//64 119//64 121//64 118//64
f 113//22 117//22 115//22
f 119//63 122//63 124//63 121//63
f 118//65 121//65 120//65 116//65
f 116//66 120//66 119//66 114//66
f 122//67 125//67 127//67 124//67
f 121//14 124//14 123//14 120//14
f 120//68 123//68 122//68 119//68
f 125//69 128//69 130//69 127//69
f 124//70 127//70 126//70 123//70
f 123//71 126//71 125//71 122//71
f 129//29 130//29 128//29
f 127//14 130//14 129//14 126//14
f 126//62 129//62 128//62 125//62
f 131//68 133//68 134//68 132//68
f 135//63 131//63 132//63 136//63
f 133//14 135//14 136//14 134//14
f 132//72 137//72 139//72 136//72
f 131//22 135//22 133//22
f 137//63 140//63 142//63 139//63
f 136//65 139//65 138//65 134//65
f 134//66 138//66 137//66 132//66
f 140//67 143//67 145//67 142//67
f 139//14 142//14 141//14 138//14
f 138//68 141//68 140//68 137//68
f 143//69 146//69 148//69 145//69
f 142//70 145//70 144//70 141//70
f 141//71 144//71 143//71 140//71
f 147//56 148//56 146//56
f 145//14 148//14 147//14 144//14
f 144//62 147//62 146//62 143//62
f 157//17 158//17 151//17 152//17
f 159//14 156//14 155//14 160//14
f 149//73 153//73 154//73 150//73
f 158//74 160//74 155//74 151//74
f 155//75 156//75 164//75 163//75
f 159//76 157//76 152//76 156//76
f 149//77 150//77 158//77 157//77
f 153//78 159//78 160//78 154//78
f 150//79 154//79 160//79 158//79
f 153//80 149//80 157//80 159//80
f 161//81 163//81 164//81 162//81
f 156//82 152//82 162//82 164//82
f 163//83 161//83 151//83
f 152//84 151//84 161//84 162//84
f 151//85 155//85 163//85
