# Blender v2.69 (sub 0) OBJ File: ''
# www.blender.org
mtllib turret1top.mtl
o Box003.001
v -9.140300 1.637900 -1.105300
v -9.140300 3.859200 -1.105299
v -11.361600 3.859200 -1.105299
v -11.361600 1.637900 -1.105300
v -9.140300 1.637900 -2.438000
v -11.361600 1.637900 -2.438000
v -11.361600 3.859200 -2.437999
v -9.140300 3.859200 -2.437999
v -9.695600 1.804500 -1.271900
v -9.695600 3.692600 -1.271899
v -9.695600 3.692600 -2.271399
v -9.695600 1.804500 -2.271400
v 3.076900 3.692600 -1.271899
v 3.076900 1.804500 -1.271900
v 3.076900 1.804500 -2.271400
v 3.076900 3.692600 -2.271399
v -9.140300 1.804500 -1.271900
v -9.140300 3.692600 -1.271899
v -9.140300 1.804500 -2.271400
v -9.140300 3.692600 -2.271399
v -4.697700 1.804500 -1.271900
v -4.697700 3.692600 -1.271899
v -4.697700 1.804500 -2.271400
v -4.697700 3.692600 -2.271399
v -4.697700 1.637900 -1.105300
v -4.697700 3.859200 -1.105299
v -4.697700 1.637900 -2.438000
v -4.697700 3.859200 -2.437999
v -5.808300 3.692600 -2.271399
v -5.808300 3.692600 -1.271899
v -5.808300 3.859200 -1.105299
v -5.808300 3.859200 -2.437999
v -3.031700 1.637900 -1.105300
v -3.031700 3.859200 -1.105299
v -3.031700 1.637900 -2.438000
v -3.031700 3.859200 -2.437999
v -4.697700 4.401600 -2.271399
v -4.697700 4.401600 -1.271899
v -3.198300 4.401600 -1.271899
v -3.198300 4.401600 -2.271399
v -1.921000 1.804500 -1.271900
v -1.921000 3.692600 -1.271899
v -1.921000 1.804500 -2.271400
v -1.921000 3.692600 -2.271399
v -0.810400 1.804500 -1.271900
v -0.810400 3.692600 -1.271899
v -0.810400 1.804500 -2.271400
v -0.810400 3.692600 -2.271399
v -0.255000 2.130000 -1.271900
v -0.255000 3.367100 -1.271899
v -0.255000 2.130001 -2.271400
v -0.255000 3.367100 -2.271399
v 0.300300 2.130000 -1.271900
v 0.300300 3.367100 -1.271899
v 0.300300 2.130001 -2.271400
v 0.300300 3.367100 -2.271399
v 0.855600 1.804500 -1.271900
v 0.855600 3.692600 -1.271899
v 0.855600 1.804500 -2.271400
v 0.855600 3.692600 -2.271399
v 1.966300 1.804500 -1.271900
v 1.966300 3.692600 -1.271899
v 1.966300 1.804500 -2.271400
v 1.966300 3.692600 -2.271399
v 2.272300 4.406900 -2.271399
v 2.272300 4.406900 -1.271899
v 3.076900 4.803200 -1.271899
v 3.076900 4.803200 -2.271399
v -5.641700 4.401600 -2.271399
v -5.641700 4.401600 -1.271899
v -11.361600 3.692600 -1.271899
v -11.361600 1.804500 -1.271900
v -11.361600 3.692600 -2.271399
v -11.361600 1.804500 -2.271400
v 1.390000 2.015200 -1.360300
v 1.390000 2.015200 1.343800
v -1.304800 2.015200 1.343800
v -1.304800 2.015200 -1.360300
v 1.390000 2.863000 -1.360299
v -1.304800 2.863000 -1.360299
v -1.304800 2.863000 1.343800
v 1.390000 2.863000 1.343800
v -9.140300 1.637900 2.409000
v -9.140300 3.859200 2.409001
v -11.361600 3.859200 2.409001
v -11.361600 1.637900 2.409000
v -9.140300 1.637900 1.076200
v -11.361600 1.637900 1.076200
v -11.361600 3.859200 1.076201
v -9.140300 3.859200 1.076201
v -9.695600 1.804500 2.242400
v -9.695600 3.692600 2.242401
v -9.695600 3.692600 1.242801
v -9.695600 1.804500 1.242800
v 3.076900 3.692600 2.242401
v 3.076900 1.804500 2.242400
v 3.076900 1.804500 1.242800
v 3.076900 3.692600 1.242801
v -9.140300 1.804500 2.242400
v -9.140300 3.692600 2.242401
v -9.140300 1.804500 1.242800
v -9.140300 3.692600 1.242801
v -4.697700 1.804500 2.242400
v -4.697700 3.692600 2.242401
v -4.697700 1.804500 1.242800
v -4.697700 3.692600 1.242801
v -4.697700 1.637900 2.409000
v -4.697700 3.859200 2.409001
v -4.697700 1.637900 1.076200
v -4.697700 3.859200 1.076201
v -5.808300 3.692600 1.242801
v -5.808300 3.692600 2.242401
v -5.808300 3.859200 2.409001
v -5.808300 3.859200 1.076201
v -3.031700 1.637900 2.409000
v -3.031700 3.859200 2.409001
v -3.031700 1.637900 1.076200
v -3.031700 3.859200 1.076201
v -4.697700 4.401600 1.242801
v -4.697700 4.401599 2.242401
v -3.198300 4.401599 2.242401
v -3.198300 4.401600 1.242801
v -1.921000 1.804500 2.242400
v -1.921000 3.692600 2.242401
v -1.921000 1.804500 1.242800
v -1.921000 3.692600 1.242801
v -0.810400 1.804500 2.242400
v -0.810400 3.692600 2.242401
v -0.810400 1.804500 1.242800
v -0.810400 3.692600 1.242801
v -0.255000 2.130000 2.242400
v -0.255000 3.367100 2.242400
v -0.255000 2.130000 1.242800
v -0.255000 3.367100 1.242801
v 0.300300 2.130000 2.242400
v 0.300300 3.367100 2.242400
v 0.300300 2.130000 1.242800
v 0.300300 3.367100 1.242801
v 0.855600 1.804500 2.242400
v 0.855600 3.692600 2.242401
v 0.855600 1.804500 1.242800
v 0.855600 3.692600 1.242801
v 1.966300 1.804500 2.242400
v 1.966300 3.692600 2.242401
v 1.966300 1.804500 1.242800
v 1.966300 3.692600 1.242801
v 2.272300 4.406900 1.242801
v 2.272300 4.406899 2.242401
v 3.076900 4.803199 2.242401
v 3.076900 4.803200 1.242801
v -5.641700 4.401600 1.242801
v -5.641700 4.401599 2.242401
v -11.361600 3.692600 2.242401
v -11.361600 1.804500 2.242400
v -11.361600 3.692600 1.242801
v -11.361600 1.804500 1.242800
vt 0.662844 0.945629
vt 0.662844 0.831156
vt 0.671436 0.839742
vt 0.671436 0.937043
vt 0.731577 0.831156
vt 0.722985 0.839742
vt 0.731577 0.945629
vt 0.722985 0.937043
vt 0.478873 0.697931
vt 0.381576 0.697890
vt 0.381576 0.468779
vt 0.478873 0.468819
vt 0.812688 0.589571
vt 0.864236 0.589571
vt 0.864236 0.818678
vt 0.812688 0.818678
vt 0.582358 0.697890
vt 0.485062 0.697931
vt 0.485062 0.468819
vt 0.582358 0.468778
vt 0.904857 0.232151
vt 0.853309 0.232151
vt 0.853309 0.003094
vt 0.904857 0.003094
vt 0.487353 0.908431
vt 0.390153 0.908431
vt 0.381576 0.899839
vt 0.495930 0.899839
vt 0.390153 0.959980
vt 0.381576 0.968572
vt 0.487353 0.959980
vt 0.495930 0.968572
vt 0.648826 0.764260
vt 0.648826 0.712712
vt 0.657402 0.704120
vt 0.657402 0.772852
vt 0.362016 0.060347
vt 0.476437 0.057150
vt 0.478873 0.143034
vt 0.364451 0.146230
vt 0.789377 0.404138
vt 0.720644 0.404138
vt 0.720644 0.318222
vt 0.789377 0.318222
vt 0.155126 0.408534
vt 0.040704 0.405337
vt 0.043139 0.319454
vt 0.157561 0.322650
vt 0.723025 0.410327
vt 0.723025 0.461875
vt 0.645717 0.461875
vt 0.645717 0.410327
vt 0.471567 0.200629
vt 0.374309 0.203346
vt 0.729237 0.260838
vt 0.780785 0.260838
vt 0.052997 0.262338
vt 0.150256 0.265055
vt 0.260578 0.759559
vt 0.260578 0.828292
vt 0.203520 0.819700
vt 0.203520 0.768152
vt 0.473191 0.257881
vt 0.375932 0.260598
vt 0.729237 0.203564
vt 0.780785 0.203564
vt 0.054621 0.205086
vt 0.151879 0.207803
vt 0.146258 0.819700
vt 0.146258 0.768152
vt 0.457235 0.286981
vt 0.393511 0.288761
vt 0.729237 0.174718
vt 0.780785 0.174718
vt 0.072199 0.176923
vt 0.135924 0.178703
vt 0.118029 0.819700
vt 0.118029 0.768152
vt 0.458047 0.315607
vt 0.394323 0.317387
vt 0.729237 0.146081
vt 0.780785 0.146081
vt 0.073011 0.148297
vt 0.136736 0.150077
vt 0.089399 0.819700
vt 0.089399 0.768152
vt 0.475626 0.343765
vt 0.378367 0.346482
vt 0.729237 0.117648
vt 0.780785 0.117648
vt 0.057056 0.119202
vt 0.154314 0.121919
vt 0.060361 0.819700
vt 0.060361 0.768152
vt 0.477249 0.401022
vt 0.379991 0.403739
vt 0.729237 0.060369
vt 0.780785 0.060369
vt 0.058679 0.061945
vt 0.155938 0.064662
vt 0.003094 0.819700
vt 0.003094 0.768152
vt 0.478873 0.458275
vt 0.381614 0.460991
vt 0.729237 0.003094
vt 0.780785 0.003094
vt 0.060303 0.004693
vt 0.157561 0.007410
vt 0.214727 0.746099
vt 0.163178 0.746099
vt 0.163178 0.704120
vt 0.214727 0.704120
vt 0.722985 1.009092
vt 0.671436 1.009092
vt 0.671436 0.951818
vt 0.722985 0.951818
vt 0.662844 1.009196
vt 0.662844 0.951922
vt 0.771697 0.410327
vt 0.771697 0.461875
vt 0.731577 1.009196
vt 0.731577 0.951922
vt 0.945357 0.416845
vt 0.945357 0.348112
vt 0.973647 0.356704
vt 0.973647 0.408252
vt 0.012417 0.404459
vt 0.014609 0.327164
vt 0.039081 0.462590
vt 0.011037 0.453123
vt 0.685843 0.712712
vt 0.685843 0.764260
vt 0.360392 0.003094
vt 0.333728 0.061225
vt 0.332349 0.012562
vt 0.335920 0.138521
vt 0.775490 0.951873
vt 0.775490 1.003421
vt 0.737766 1.003421
vt 0.737766 0.951873
vt 0.324406 0.462590
vt 0.343644 0.420542
vt 0.921973 0.646805
vt 0.870425 0.646805
vt 0.870425 0.589571
vt 0.921973 0.589571
vt 0.022332 0.045142
vt 0.003094 0.003094
vt 0.979779 0.003094
vt 0.979779 0.117448
vt 0.971187 0.108871
vt 0.971187 0.011671
vt 0.911046 0.117448
vt 0.919638 0.108871
vt 0.911046 0.003094
vt 0.919638 0.011671
vt 0.639060 0.779083
vt 0.639060 0.876379
vt 0.553142 0.876343
vt 0.553142 0.779047
vt 0.928168 0.871038
vt 0.979716 0.871038
vt 0.979716 0.956954
vt 0.928168 0.956954
vt 0.881484 0.238390
vt 0.881484 0.335686
vt 0.795566 0.335722
vt 0.795566 0.238426
vt 0.996900 0.836193
vt 0.945352 0.836193
vt 0.945352 0.750296
vt 0.996900 0.750296
vt 0.260578 0.903219
vt 0.146105 0.903219
vt 0.154691 0.894627
vt 0.251993 0.894627
vt 0.146105 0.834481
vt 0.154691 0.843074
vt 0.260578 0.834481
vt 0.251993 0.843074
vt 0.220921 0.468779
vt 0.318217 0.468819
vt 0.318217 0.697931
vt 0.220921 0.697890
vt 0.847120 0.232201
vt 0.795566 0.232201
vt 0.795566 0.003094
vt 0.847120 0.003094
vt 0.685843 0.697890
vt 0.588547 0.697931
vt 0.588547 0.468819
vt 0.685843 0.468778
vt 0.812688 0.354326
vt 0.864241 0.354326
vt 0.864241 0.583382
vt 0.812688 0.583382
vt 0.011671 0.894627
vt 0.108871 0.894627
vt 0.117448 0.903219
vt 0.003094 0.903219
vt 0.108871 0.843074
vt 0.117448 0.834481
vt 0.011671 0.843074
vt 0.003094 0.834481
vt 0.368051 0.623021
vt 0.368051 0.674575
vt 0.359474 0.683167
vt 0.359474 0.614429
vt 0.522671 0.060347
vt 0.637093 0.057150
vt 0.639528 0.143034
vt 0.525106 0.146230
vt 0.645717 0.003094
vt 0.714455 0.003094
vt 0.714455 0.089011
vt 0.645717 0.089011
vt 0.315782 0.408534
vt 0.201360 0.405337
vt 0.203795 0.319454
vt 0.318217 0.322650
vt 0.911046 0.172308
vt 0.962599 0.172308
vt 0.962599 0.249616
vt 0.911046 0.249616
vt 0.632223 0.200629
vt 0.534964 0.203346
vt 0.705863 0.146394
vt 0.654310 0.146394
vt 0.213653 0.262338
vt 0.310911 0.265055
vt 0.639060 0.704120
vt 0.639060 0.772858
vt 0.582002 0.764265
vt 0.582002 0.712712
vt 0.633846 0.257881
vt 0.536588 0.260598
vt 0.705863 0.203668
vt 0.654310 0.203668
vt 0.215276 0.205086
vt 0.312535 0.207803
vt 0.524740 0.764265
vt 0.524740 0.712712
vt 0.617891 0.286981
vt 0.554167 0.288761
vt 0.705863 0.232514
vt 0.654310 0.232514
vt 0.232855 0.176923
vt 0.296580 0.178703
vt 0.496511 0.764265
vt 0.496511 0.712712
vt 0.618703 0.315607
vt 0.554978 0.317387
vt 0.705863 0.261151
vt 0.654310 0.261151
vt 0.233667 0.148297
vt 0.297391 0.150077
vt 0.467881 0.764265
vt 0.467881 0.712712
vt 0.636281 0.343765
vt 0.539023 0.346482
vt 0.705863 0.289585
vt 0.654310 0.289585
vt 0.217712 0.119202
vt 0.314970 0.121919
vt 0.438843 0.764265
vt 0.438843 0.712712
vt 0.637905 0.401022
vt 0.540647 0.403739
vt 0.705863 0.346864
vt 0.654310 0.346864
vt 0.219335 0.061945
vt 0.316594 0.064662
vt 0.381576 0.764265
vt 0.381576 0.712712
vt 0.639528 0.458275
vt 0.542270 0.460991
vt 0.705863 0.404138
vt 0.654310 0.404138
vt 0.220959 0.004693
vt 0.318217 0.007410
vt 0.199809 0.510758
vt 0.148255 0.510758
vt 0.148255 0.468779
vt 0.199809 0.468779
vt 0.289574 0.971308
vt 0.289574 0.919754
vt 0.346848 0.919755
vt 0.346848 0.971308
vt 0.289469 0.911162
vt 0.346743 0.911162
vt 0.911046 0.123637
vt 0.962599 0.123637
vt 0.289469 0.979900
vt 0.346743 0.979900
vt 0.530522 0.779047
vt 0.530522 0.847785
vt 0.502232 0.839192
vt 0.502232 0.787639
vt 0.173073 0.404459
vt 0.175264 0.327163
vt 0.199736 0.462590
vt 0.171693 0.453123
vt 0.331033 0.674575
vt 0.331033 0.623021
vt 0.521048 0.003094
vt 0.494384 0.061225
vt 0.493004 0.012562
vt 0.496576 0.138521
vt 0.983082 0.423034
vt 0.983082 0.474587
vt 0.945357 0.474587
vt 0.945357 0.423034
vt 0.485062 0.462590
vt 0.504299 0.420542
vt 0.214732 0.600629
vt 0.163178 0.600629
vt 0.163178 0.543395
vt 0.214732 0.543395
vt 0.182988 0.045142
vt 0.163750 0.003094
vt 0.639060 0.951306
vt 0.524707 0.951306
vt 0.533284 0.942714
vt 0.630484 0.942714
vt 0.524707 0.882568
vt 0.533284 0.891160
vt 0.639060 0.882568
vt 0.630484 0.891160
vt 0.375387 0.704156
vt 0.375387 0.801452
vt 0.289469 0.801416
vt 0.289469 0.704120
vt 0.911046 0.255805
vt 0.962599 0.255805
vt 0.962599 0.341721
vt 0.911046 0.341721
vt 0.375387 0.807641
vt 0.375387 0.904937
vt 0.289469 0.904973
vt 0.289469 0.807677
vt 0.996906 0.583382
vt 0.945352 0.583382
vt 0.945352 0.497485
vt 0.996906 0.497485
vt 0.381576 0.779047
vt 0.496043 0.779095
vt 0.496043 0.893650
vt 0.381576 0.893602
vt 0.806499 0.468778
vt 0.806499 0.583334
vt 0.692032 0.583382
vt 0.692032 0.468827
vt 0.870430 0.583382
vt 0.870430 0.468829
vt 0.939163 0.468829
vt 0.939163 0.583382
vt 0.003094 0.909408
vt 0.100294 0.909408
vt 0.100294 0.960957
vt 0.003094 0.960957
vt 0.737766 0.945684
vt 0.737766 0.831156
vt 0.806499 0.831156
vt 0.806499 0.945684
vt 0.921973 0.744107
vt 0.870425 0.744107
vt 0.142066 0.468779
vt 0.142066 0.608240
vt 0.003094 0.608240
vt 0.003094 0.468779
vt 0.142556 0.614429
vt 0.142556 0.753371
vt 0.003094 0.753371
vt 0.003094 0.614429
vt 0.856376 0.824867
vt 0.856376 0.963841
vt 0.812688 0.963860
vt 0.812688 0.824885
vt 0.368051 0.468779
vt 0.368051 0.608240
vt 0.324406 0.608240
vt 0.324406 0.468779
vt 0.928162 0.744088
vt 0.928162 0.605114
vt 0.971851 0.605132
vt 0.971851 0.744107
vt 0.260578 0.953099
vt 0.121117 0.953099
vt 0.121117 0.909408
vt 0.260578 0.909408
vt 0.692032 0.710364
vt 0.806499 0.710412
vt 0.806499 0.824967
vt 0.692032 0.824919
vt 0.806499 0.589571
vt 0.806499 0.704127
vt 0.692032 0.704175
vt 0.692032 0.589619
vt 0.939163 0.750296
vt 0.939163 0.864849
vt 0.870425 0.864849
vt 0.870425 0.750296
vt 0.921979 0.871038
vt 0.921979 0.968238
vt 0.870425 0.968238
vt 0.870425 0.871038
vt 0.939168 0.348112
vt 0.939168 0.462640
vt 0.870430 0.462640
vt 0.870430 0.348112
vt 0.214732 0.697931
vt 0.163178 0.697931
vn 1.000000 0.000000 0.000000
vn 0.000000 -0.000000 1.000000
vn 0.000000 -1.000000 -0.000000
vn 0.000000 0.000000 -1.000000
vn 0.000000 1.000000 0.000000
vn -1.000000 0.000000 0.000000
vn 0.148336 -0.000000 0.988937
vn 0.148336 -0.988937 -0.000000
vn 0.148336 0.000000 -0.988937
vn 0.148336 0.988937 0.000000
vn 0.505628 -0.862752 -0.000000
vn 0.505628 0.862752 0.000000
vn -0.505696 -0.862712 0.000000
vn -0.505696 0.862712 0.000000
vn -0.441854 0.897087 0.000000
vn 0.000000 -0.707107 0.707107
vn 0.000000 1.000000 0.000001
vn 0.000000 -0.707107 -0.707106
vn 0.955924 0.293616 0.000000
vn 0.000000 0.293615 -0.955924
vn -0.955923 0.293616 0.000000
vn 0.000000 0.293615 0.955924
vn -0.919205 0.393780 0.000000
vn -1.000000 -0.000005 0.000000
vn -1.000000 0.000005 0.000000
vn 0.000001 -0.000000 1.000000
vn -0.000001 -0.000000 1.000000
vn -0.441854 0.897087 0.000001
vn 0.000000 -0.707106 0.707107
vn 0.000000 -0.707106 -0.707107
vn 0.955924 0.293615 0.000000
vn -0.955924 0.293616 0.000000
vn -0.919205 0.393779 0.000000
usemtl batchbake_AOComp
s off
f 2/1/1 1/2/1 17/3/1 18/4/1
f 1/2/1 5/5/1 19/6/1 17/3/1
f 5/5/1 8/7/1 20/8/1 19/6/1
f 8/7/1 2/1/1 18/4/1 20/8/1
f 18/9/2 17/10/2 21/11/2 22/12/2
f 17/13/3 19/14/3 23/15/3 21/16/3
f 19/17/4 20/18/4 24/19/4 23/20/4
f 20/21/5 18/22/5 22/23/5 24/24/5
f 22/25/6 21/26/6 25/27/6 26/28/6
f 21/26/6 23/29/6 27/30/6 25/27/6
f 23/29/6 24/31/6 28/32/6 27/30/6
f 29/33/6 30/34/6 31/35/6 32/36/6
f 26/37/2 25/38/2 33/39/2 34/40/2
f 25/41/3 27/42/3 35/43/3 33/44/3
f 27/45/4 28/46/4 36/47/4 35/48/4
f 37/49/5 38/50/5 39/51/5 40/52/5
f 34/40/7 33/39/7 41/53/7 42/54/7
f 33/44/8 35/43/8 43/55/8 41/56/8
f 35/48/9 36/47/9 44/57/9 43/58/9
f 36/59/10 34/60/10 42/61/10 44/62/10
f 42/54/2 41/53/2 45/63/2 46/64/2
f 41/56/3 43/55/3 47/65/3 45/66/3
f 43/58/4 44/57/4 48/67/4 47/68/4
f 44/62/5 42/61/5 46/69/5 48/70/5
f 46/64/2 45/63/2 49/71/2 50/72/2
f 45/66/11 47/65/11 51/73/11 49/74/11
f 47/68/4 48/67/4 52/75/4 51/76/4
f 48/70/12 46/69/12 50/77/12 52/78/12
f 50/72/2 49/71/2 53/79/2 54/80/2
f 49/74/3 51/73/3 55/81/3 53/82/3
f 51/76/4 52/75/4 56/83/4 55/84/4
f 52/78/5 50/77/5 54/85/5 56/86/5
f 54/80/2 53/79/2 57/87/2 58/88/2
f 53/82/13 55/81/13 59/89/13 57/90/13
f 55/84/4 56/83/4 60/91/4 59/92/4
f 56/86/14 54/85/14 58/93/14 60/94/14
f 58/88/2 57/87/2 61/95/2 62/96/2
f 57/90/3 59/89/3 63/97/3 61/98/3
f 59/92/4 60/91/4 64/99/4 63/100/4
f 60/94/5 58/93/5 62/101/5 64/102/5
f 62/96/2 61/95/2 14/103/2 13/104/2
f 61/98/3 63/97/3 15/105/3 14/106/3
f 63/100/4 64/99/4 16/107/4 15/108/4
f 65/109/15 66/110/15 67/111/15 68/112/15
f 24/113/3 22/114/3 30/115/3 29/116/3
f 22/114/16 26/117/16 31/118/16 30/115/16
f 38/50/17 37/49/17 69/119/17 70/120/17
f 28/121/18 24/113/18 29/116/18 32/122/18
f 34/123/19 36/124/19 40/125/19 39/126/19
f 36/47/20 28/46/20 37/127/20 40/128/20
f 28/46/20 32/129/20 69/130/20 37/127/20
f 32/36/21 31/35/21 70/131/21 69/132/21
f 31/133/22 26/37/22 38/134/22 70/135/22
f 26/37/22 34/40/22 39/136/22 38/134/22
f 64/137/23 62/138/23 66/139/23 65/140/23
f 62/96/2 13/104/2 67/141/2 66/142/2
f 13/143/1 16/144/1 68/145/1 67/146/1
f 16/107/4 64/99/4 65/147/4 68/148/4
f 4/149/6 3/150/6 71/151/6 72/152/6
f 3/150/24 7/153/24 73/154/24 71/151/24
f 7/153/6 6/155/6 74/156/6 73/154/6
f 6/155/25 4/149/25 72/152/25 74/156/25
f 72/157/4 71/158/4 10/159/4 9/160/4
f 71/161/3 73/162/3 11/163/3 10/164/3
f 73/165/2 74/166/2 12/167/2 11/168/2
f 74/169/5 72/170/5 9/171/5 12/172/5
f 84/173/1 83/174/1 99/175/1 100/176/1
f 83/174/1 87/177/1 101/178/1 99/175/1
f 87/177/1 90/179/1 102/180/1 101/178/1
f 90/179/1 84/173/1 100/176/1 102/180/1
f 100/181/2 99/182/2 103/183/2 104/184/2
f 99/185/3 101/186/3 105/187/3 103/188/3
f 101/189/4 102/190/4 106/191/4 105/192/4
f 102/193/5 100/194/5 104/195/5 106/196/5
f 104/197/6 103/198/6 107/199/6 108/200/6
f 103/198/6 105/201/6 109/202/6 107/199/6
f 105/201/6 106/203/6 110/204/6 109/202/6
f 111/205/6 112/206/6 113/207/6 114/208/6
f 108/209/2 107/210/2 115/211/2 116/212/2
f 107/213/3 109/214/3 117/215/3 115/216/3
f 109/217/4 110/218/4 118/219/4 117/220/4
f 119/221/17 120/222/17 121/223/17 122/224/17
f 116/212/7 115/211/7 123/225/7 124/226/7
f 115/216/8 117/215/8 125/227/8 123/228/8
f 117/220/9 118/219/9 126/229/9 125/230/9
f 118/231/10 116/232/10 124/233/10 126/234/10
f 124/226/2 123/225/2 127/235/2 128/236/2
f 123/228/3 125/227/3 129/237/3 127/238/3
f 125/230/4 126/229/4 130/239/4 129/240/4
f 126/234/5 124/233/5 128/241/5 130/242/5
f 128/236/26 127/235/26 131/243/26 132/244/26
f 127/238/11 129/237/11 133/245/11 131/246/11
f 129/240/4 130/239/4 134/247/4 133/248/4
f 130/242/12 128/241/12 132/249/12 134/250/12
f 132/244/2 131/243/2 135/251/2 136/252/2
f 131/246/3 133/245/3 137/253/3 135/254/3
f 133/248/4 134/247/4 138/255/4 137/256/4
f 134/250/5 132/249/5 136/257/5 138/258/5
f 136/252/27 135/251/27 139/259/27 140/260/27
f 135/254/13 137/253/13 141/261/13 139/262/13
f 137/256/4 138/255/4 142/263/4 141/264/4
f 138/258/14 136/257/14 140/265/14 142/266/14
f 140/260/2 139/259/2 143/267/2 144/268/2
f 139/262/3 141/261/3 145/269/3 143/270/3
f 141/264/4 142/263/4 146/271/4 145/272/4
f 142/266/5 140/265/5 144/273/5 146/274/5
f 144/268/2 143/267/2 96/275/2 95/276/2
f 143/270/3 145/269/3 97/277/3 96/278/3
f 145/272/4 146/271/4 98/279/4 97/280/4
f 147/281/28 148/282/28 149/283/28 150/284/28
f 106/285/3 104/286/3 112/287/3 111/288/3
f 104/286/29 108/289/29 113/290/29 112/287/29
f 120/222/17 119/221/17 151/291/17 152/292/17
f 110/293/30 106/285/30 111/288/30 114/294/30
f 116/295/31 118/296/31 122/297/31 121/298/31
f 118/219/20 110/218/20 119/299/20 122/300/20
f 110/218/20 114/301/20 151/302/20 119/299/20
f 114/208/32 113/207/32 152/303/32 151/304/32
f 113/305/22 108/209/22 120/306/22 152/307/22
f 108/209/22 116/212/22 121/308/22 120/306/22
f 146/309/33 144/310/33 148/311/33 147/312/33
f 144/268/2 95/276/2 149/313/2 148/314/2
f 95/315/1 98/316/1 150/317/1 149/318/1
f 98/279/4 146/271/4 147/319/4 150/320/4
f 86/321/6 85/322/6 153/323/6 154/324/6
f 85/322/6 89/325/6 155/326/6 153/323/6
f 89/325/6 88/327/6 156/328/6 155/326/6
f 88/327/6 86/321/6 154/324/6 156/328/6
f 154/329/4 153/330/4 92/331/4 91/332/4
f 153/333/3 155/334/3 93/335/3 92/336/3
f 155/337/2 156/338/2 94/339/2 93/340/2
f 156/341/5 154/342/5 91/343/5 94/344/5
s 1
f 1/345/2 2/346/2 3/347/2 4/348/2
f 5/349/4 6/350/4 7/351/4 8/352/4
f 1/353/3 4/354/3 6/355/3 5/356/3
f 9/357/6 10/358/6 11/359/6 12/360/6
f 3/361/5 2/362/5 8/363/5 7/364/5
f 13/143/1 14/365/1 15/366/1 16/144/1
f 75/367/3 76/368/3 77/369/3 78/370/3
f 79/371/5 80/372/5 81/373/5 82/374/5
f 75/375/4 78/376/4 80/377/4 79/378/4
f 78/379/6 77/380/6 81/381/6 80/382/6
f 77/383/2 76/384/2 82/385/2 81/386/2
f 76/387/1 75/388/1 79/389/1 82/390/1
f 83/391/2 84/392/2 85/393/2 86/394/2
f 87/395/4 88/396/4 89/397/4 90/398/4
f 83/399/3 86/400/3 88/401/3 87/402/3
f 91/403/6 92/404/6 93/405/6 94/406/6
f 85/407/5 84/408/5 90/409/5 89/410/5
f 95/315/1 96/411/1 97/412/1 98/316/1
