# Blender v2.69 (sub 0) OBJ File: ''
# www.blender.org
mtllib turret1bot.mtl
o Line001.005
v -6.220300 1.292800 -2.669400
v -8.880800 1.292800 -0.686900
v -8.855600 1.292800 -0.610800
v -8.219500 1.292800 -0.610800
v -7.366100 1.292800 -0.968300
v -7.223500 1.292800 -1.113200
v -6.236500 1.292800 -1.526600
v -1.191200 1.292800 -1.526600
v -8.219100 1.292800 0.636700
v -8.813700 1.292800 0.636700
v -8.842600 1.292800 0.721600
v -7.362100 1.292800 0.991700
v -7.225600 1.292800 1.128200
v -6.236100 1.292800 1.538000
v -6.299500 1.292799 2.675300
v -5.378000 1.292799 3.091800
v -1.191200 1.292800 1.538000
v -1.282800 1.292799 3.895500
v 0.431300 0.819699 5.609600
v 1.113300 0.819699 4.927600
v 0.028200 1.292799 2.757400
v 1.152400 1.292800 1.432400
v 2.198400 0.819699 3.842500
v 2.880400 0.819699 3.160500
v 1.152400 1.292800 -1.421000
v 2.880400 0.819701 -3.149000
v 2.198400 0.819701 -3.831100
v 0.028200 1.292800 -2.745900
v -1.282600 1.292801 -3.884300
v 1.113300 0.819701 -4.916200
v 0.431300 0.819701 -5.598200
v -5.292900 1.292800 -3.082300
v -1.371400 -0.059201 4.061900
v 0.431300 -0.059201 5.864600
v 0.431300 0.391499 5.864600
v -1.371400 0.391499 4.061900
v 1.332700 -0.059201 4.963200
v 1.332700 0.391499 4.963200
v 0.431300 -0.059201 3.160500
v 0.431300 0.391499 3.160500
v 2.234000 -0.059201 4.061900
v 2.234000 0.391499 4.061900
v 3.135400 -0.059201 3.160500
v 3.135400 0.391499 3.160500
v 1.332700 -0.059200 1.357800
v 1.332700 0.391500 1.357800
v 1.332700 -0.059200 -1.346300
v 1.332700 0.391500 -1.346300
v 3.135400 -0.059199 -3.149000
v 3.135400 0.391501 -3.149000
v 2.234000 -0.059199 -4.050400
v 2.234000 0.391501 -4.050400
v 0.431300 -0.059199 -3.149000
v 0.431300 0.391501 -3.149000
v 1.332700 -0.059199 -4.951800
v 1.332700 0.391501 -4.951800
v 0.431300 -0.059199 -5.853100
v 0.431300 0.391501 -5.853100
v -1.371400 -0.059199 -4.050400
v -1.371400 0.391501 -4.050400
v -5.347900 -0.059199 -3.255100
v -5.347900 0.391501 -3.255100
v -6.311900 -0.059200 -2.825900
v -6.311900 0.391500 -2.825900
v -9.092900 -0.059200 -0.753700
v -9.092900 0.391500 -0.753700
v -8.985700 -0.059200 -0.430500
v -8.985700 0.391500 -0.430500
v -8.183300 -0.059200 -0.430500
v -8.183300 0.391500 -0.430500
v -7.263100 -0.059200 -0.816000
v -7.263100 0.391500 -0.816000
v -7.120400 -0.059200 -0.960900
v -7.120400 0.391500 -0.960900
v -6.200300 -0.059200 -1.346300
v -6.200300 0.391500 -1.346300
v -1.371400 -0.059200 -1.346300
v -1.371400 0.391500 -1.346300
v -1.371400 -0.059200 1.357800
v -1.371400 0.391500 1.357800
v -6.200300 -0.059200 1.357800
v -6.200300 0.391500 1.357800
v -7.123500 -0.059200 0.975400
v -7.123500 0.391500 0.975400
v -7.260000 -0.059200 0.838800
v -7.260000 0.391500 0.838800
v -8.183300 -0.059200 0.456400
v -8.183300 0.391500 0.456400
v -8.942900 -0.059200 0.456400
v -8.942900 0.391500 0.456400
v -9.054800 -0.059200 0.785900
v -9.054800 0.391500 0.785900
v -6.392800 -0.059200 2.831000
v -6.392800 0.391500 2.831000
v -5.433200 -0.059201 3.264700
v -5.433200 0.391499 3.264700
v -1.001500 1.220300 -0.002900
v -0.968200 1.220300 0.250000
v -0.813100 2.001800 0.208400
v -0.840900 2.001800 -0.002900
v -0.870600 1.220300 0.485600
v -0.731600 2.001800 0.405300
v -0.715400 1.220300 0.688000
v -0.601800 2.001800 0.574400
v -0.513000 1.220300 0.843200
v -0.432700 2.001800 0.704100
v -0.277400 1.220300 0.940800
v -0.235800 2.001800 0.785700
v -0.024500 1.220300 0.974100
v -0.024500 2.001800 0.813500
v 0.228300 1.220300 0.940800
v 0.186800 2.001800 0.785700
v 0.463900 1.220300 0.843200
v 0.383700 2.001800 0.704100
v 0.666300 1.220300 0.688000
v 0.552700 2.001800 0.574400
v 0.821500 1.220300 0.485600
v 0.682500 2.001800 0.405300
v 0.919100 1.220300 0.250000
v 0.764000 2.001800 0.208400
v 0.952400 1.220300 -0.002900
v 0.791900 2.001800 -0.002900
v 0.919100 1.220300 -0.255700
v 0.764000 2.001800 -0.214200
v 0.821500 1.220300 -0.491400
v 0.682500 2.001800 -0.411100
v 0.666300 1.220300 -0.693700
v 0.552700 2.001800 -0.580200
v 0.463900 1.220300 -0.849000
v 0.383700 2.001800 -0.709900
v 0.228300 1.220300 -0.946600
v 0.186800 2.001800 -0.791500
v -0.024500 1.220300 -0.979900
v -0.024500 2.001800 -0.819300
v -0.277400 1.220300 -0.946600
v -0.235800 2.001800 -0.791500
v -0.513000 1.220300 -0.849000
v -0.432700 2.001800 -0.709900
v -0.715400 1.220300 -0.693700
v -0.601800 2.001800 -0.580200
v -0.870600 1.220300 -0.491400
v -0.731600 2.001800 -0.411100
v -0.968200 1.220300 -0.255700
v -0.813100 2.001800 -0.214200
vt 0.512387 0.704294
vt 0.512387 0.847840
vt 0.484583 0.849953
vt 0.484583 0.706407
vt 0.549137 0.944642
vt 0.549137 0.868641
vt 0.576988 0.867249
vt 0.576988 0.943250
vt 0.341538 0.869045
vt 0.318209 0.752537
vt 0.344965 0.745262
vt 0.368295 0.861770
vt 0.512387 0.876873
vt 0.512387 0.967591
vt 0.484821 0.971791
vt 0.484821 0.881074
vt 0.702031 0.946296
vt 0.702031 0.870295
vt 0.729882 0.868903
vt 0.729883 0.944903
vt 0.996243 0.475003
vt 0.984124 0.600724
vt 0.956432 0.602134
vt 0.968551 0.476413
vt 0.996243 0.768555
vt 0.968551 0.769965
vt 0.605271 0.706350
vt 0.605271 0.858343
vt 0.577420 0.859735
vt 0.577420 0.707742
vt 0.902567 0.363382
vt 0.902568 0.300227
vt 0.929998 0.296167
vt 0.929996 0.359323
vt 0.922226 0.946788
vt 0.898700 0.834423
vt 0.925681 0.827036
vt 0.949207 0.939402
vt 0.612785 0.867890
vt 0.622485 0.761797
vt 0.649594 0.767626
vt 0.639893 0.873719
vt 0.644658 0.702668
vt 0.671767 0.708497
vt 0.795590 0.003757
vt 0.787501 0.120724
vt 0.759568 0.122242
vt 0.767657 0.005275
vt 0.795561 0.371086
vt 0.767628 0.372604
vt 0.795590 0.432348
vt 0.767657 0.433866
vt 0.788883 0.611087
vt 0.760950 0.612605
vt 0.902567 0.203276
vt 0.923888 0.203254
vt 0.923888 0.231139
vt 0.902567 0.231161
vt 0.893965 0.005257
vt 0.895053 0.050156
vt 0.867208 0.048656
vt 0.866119 0.003757
vt 0.892412 0.112404
vt 0.864566 0.110903
vt 0.891143 0.124432
vt 0.863298 0.122932
vt 0.888503 0.186671
vt 0.860657 0.185171
vt 0.895053 0.456875
vt 0.867207 0.455375
vt 0.181878 0.714201
vt 0.181878 0.874783
vt 0.154031 0.873331
vt 0.154031 0.712749
vt 0.891186 0.487032
vt 0.888526 0.789242
vt 0.860554 0.788881
vt 0.863214 0.486670
vt 0.891186 0.846311
vt 0.863214 0.845949
vt 0.415071 0.788100
vt 0.405510 0.787686
vt 0.402646 0.760106
vt 0.412207 0.760521
vt 0.804408 0.964050
vt 0.803104 0.906928
vt 0.831059 0.907954
vt 0.832363 0.965076
vt 0.804650 0.859413
vt 0.832606 0.860438
vt 0.707334 0.861389
vt 0.703403 0.844426
vt 0.731118 0.841358
vt 0.735049 0.858320
vt 0.702031 0.668734
vt 0.729747 0.665665
vt 0.704451 0.623188
vt 0.732166 0.620119
vt 0.003758 0.908150
vt 0.003757 0.702668
vt 0.031443 0.706002
vt 0.031444 0.911484
vt 0.456234 0.836941
vt 0.427047 0.702668
vt 0.605271 0.877081
vt 0.605271 0.934583
vt 0.395132 0.702668
vt 0.395132 0.850564
vt 0.456213 0.962265
vt 0.427277 0.857467
vt 0.758165 0.881736
vt 0.758165 0.939238
vt 0.898700 0.601706
vt 0.939384 0.479709
vt 0.911487 0.778804
vt 0.549137 0.846902
vt 0.519901 0.702668
vt 0.958712 0.305454
vt 0.958712 0.353244
vt 0.975878 0.786318
vt 0.975878 0.929344
vt 0.677740 0.774351
vt 0.694517 0.908190
vt 0.694517 0.729610
vt 0.702031 0.120130
vt 0.739043 0.007331
vt 0.710160 0.372620
vt 0.710188 0.431556
vt 0.703771 0.602550
vt 0.915810 0.288648
vt 0.910791 0.288653
vt 0.809654 0.048661
vt 0.808791 0.013068
vt 0.807205 0.106390
vt 0.805936 0.118412
vt 0.803104 0.185177
vt 0.809948 0.467489
vt 0.096512 0.884659
vt 0.096512 0.702668
vt 0.803104 0.790731
vt 0.805882 0.475003
vt 0.805954 0.851899
vt 0.405516 0.702668
vt 0.415071 0.703084
vt 0.888538 0.907467
vt 0.889749 0.960487
vt 0.889749 0.870273
vt 0.788616 0.834538
vt 0.789630 0.838907
vt 0.787307 0.666696
vt 0.789630 0.622957
vt 0.088998 0.703191
vt 0.088998 0.910364
vt 0.269982 0.665172
vt 0.064424 0.695154
vt 0.062170 0.690669
vt 0.090332 0.662512
vt 0.143942 0.640566
vt 0.156670 0.640670
vt 0.218670 0.615286
vt 0.442038 0.391955
vt 0.035120 0.607255
vt 0.008795 0.633575
vt 0.003757 0.631095
vt 0.057345 0.553600
vt 0.057345 0.541514
vt 0.083009 0.479567
vt 0.029851 0.432014
vt 0.052209 0.372781
vt 0.306360 0.256254
vt 0.197932 0.155919
vt 0.198319 0.003757
vt 0.258707 0.003767
vt 0.306360 0.148282
vt 0.414793 0.157191
vt 0.354787 0.003784
vt 0.415175 0.003794
vt 0.541120 0.283540
vt 0.694513 0.283180
vt 0.694517 0.343572
vt 0.550006 0.391969
vt 0.542373 0.500401
vt 0.694517 0.439652
vt 0.694517 0.500040
vt 0.329320 0.642404
vt 0.903205 0.074307
vt 0.902567 0.058646
vt 0.952454 0.057488
vt 0.952987 0.070573
vt 0.902567 0.042711
vt 0.952453 0.044173
vt 0.903204 0.027582
vt 0.952986 0.031530
vt 0.904436 0.014298
vt 0.954015 0.020429
vt 0.906177 0.003757
vt 0.955471 0.011618
vt 0.904435 0.182389
vt 0.903204 0.169207
vt 0.952986 0.165243
vt 0.954014 0.176257
vt 0.902567 0.154145
vt 0.952453 0.152655
vt 0.902567 0.138225
vt 0.952453 0.139349
vt 0.903203 0.122528
vt 0.952986 0.126239
vt 0.904435 0.108132
vt 0.954014 0.114204
vt 0.345569 0.951028
vt 0.344082 0.937068
vt 0.393891 0.933218
vt 0.395132 0.944886
vt 0.343312 0.921573
vt 0.393247 0.920273
vt 0.343313 0.905609
vt 0.393247 0.906929
vt 0.344082 0.890251
vt 0.393890 0.894099
vt 0.345567 0.876559
vt 0.395132 0.882654
vt 0.905673 0.467489
vt 0.904174 0.455145
vt 0.953735 0.449199
vt 0.954986 0.459506
vt 0.903115 0.440604
vt 0.952850 0.437046
vt 0.902567 0.424853
vt 0.952392 0.423881
vt 0.902567 0.408958
vt 0.952392 0.410601
vt 0.903115 0.394013
vt 0.952850 0.398111
vt 0.904175 0.381027
vt 0.953735 0.387261
vt 0.905672 0.370896
vt 0.954986 0.378789
vt 0.906178 0.100618
vt 0.904436 0.088618
vt 0.954016 0.082535
vt 0.955471 0.092560
vt 0.201509 0.800554
vt 0.193525 0.786728
vt 0.189392 0.771298
vt 0.226631 0.819833
vt 0.189392 0.755330
vt 0.193526 0.739902
vt 0.212803 0.714785
vt 0.201511 0.726075
vt 0.226637 0.706798
vt 0.242059 0.702668
vt 0.273455 0.706802
vt 0.258033 0.702671
vt 0.287287 0.714790
vt 0.298578 0.726082
vt 0.310695 0.755338
vt 0.306567 0.739910
vt 0.310695 0.771306
vt 0.306563 0.786729
vt 0.287284 0.811851
vt 0.298576 0.800560
vt 0.273455 0.819840
vt 0.258027 0.823968
vt 0.242059 0.823968
vt 0.212805 0.811849
vt 0.291125 0.922714
vt 0.279571 0.929389
vt 0.266678 0.932841
vt 0.307236 0.901722
vt 0.253335 0.932838
vt 0.240445 0.929386
vt 0.219457 0.913279
vt 0.228891 0.922713
vt 0.212789 0.901720
vt 0.209340 0.888836
vt 0.212798 0.862601
vt 0.209340 0.875489
vt 0.219468 0.851042
vt 0.228909 0.841609
vt 0.253356 0.831483
vt 0.240463 0.834935
vt 0.266694 0.831482
vt 0.279584 0.834933
vt 0.300572 0.851041
vt 0.291138 0.841606
vt 0.307241 0.862600
vt 0.310695 0.875488
vt 0.310695 0.888835
vt 0.300561 0.913278
vn -0.707107 0.000000 0.707107
vn 0.707107 0.000000 0.707107
vn 0.894417 0.000000 -0.447233
vn -0.447233 0.000000 0.894417
vn 0.707107 0.000000 -0.707107
vn 1.000000 0.000000 0.000000
vn -0.447233 0.000000 -0.894417
vn 0.894427 0.000000 0.447214
vn 0.707067 0.000000 -0.707146
vn -0.707107 0.000000 -0.707107
vn -0.196116 0.000000 -0.980581
vn -0.406736 0.000000 -0.913546
vn -0.597497 0.000001 -0.801871
vn -0.949152 0.000000 0.314819
vn 0.000000 -0.000000 1.000000
vn 0.386394 0.000000 0.922334
vn 0.712494 0.000000 0.701678
vn 0.386344 -0.000001 0.922355
vn -1.000000 0.000000 0.000000
vn 0.000000 0.000000 -1.000000
vn 0.382682 0.000000 -0.923880
vn 0.707364 0.000000 -0.706849
vn 0.382647 0.000000 -0.923895
vn -0.946886 0.000000 -0.321569
vn -0.609226 0.000001 0.792997
vn -0.411849 0.000000 0.911252
vn -0.192593 0.000000 0.981279
vn -0.663539 0.265872 0.699305
vn 0.651685 0.388089 0.651685
vn 0.872552 0.275406 -0.403491
vn -0.403491 0.275405 0.872552
vn 0.699208 0.266164 -0.663525
vn 0.980572 0.196158 0.000000
vn 0.699193 0.266208 0.663522
vn 0.651725 0.388026 -0.651683
vn -0.403525 0.275332 -0.872559
vn 0.872557 0.275415 0.403473
vn 0.651683 0.388026 -0.651725
vn -0.663565 0.265768 -0.699320
vn -0.192301 0.196116 -0.961540
vn -0.398838 0.196084 -0.895812
vn -0.585902 0.196115 -0.786294
vn -0.930748 0.196122 0.308619
vn 0.000000 0.196158 0.980572
vn 0.378882 0.196134 0.904422
vn 0.698776 0.196138 0.687926
vn 0.378830 0.196154 0.904440
vn -0.980593 0.196053 0.000000
vn 0.000000 0.196054 -0.980593
vn 0.375229 0.196066 -0.905959
vn 0.693500 0.196127 -0.693248
vn 0.375238 0.196163 -0.905934
vn 0.000000 0.196158 -0.980572
vn -0.928447 0.196142 -0.315458
vn -0.597386 0.196146 0.777597
vn -0.403856 0.196156 0.893546
vn -0.188845 0.196180 0.962212
vn 0.000000 1.000000 0.000000
vn 0.000000 1.000000 0.000001
vn 0.053156 0.996888 0.058206
vn 0.131586 0.980777 0.144087
vn 0.065284 0.995761 0.064798
vn 0.055015 0.997257 0.049511
vn 0.144354 0.980961 0.129911
vn 0.055017 0.997257 -0.049512
vn 0.144354 0.980961 -0.129911
vn 0.065285 0.995761 -0.064790
vn 0.053226 0.996881 -0.058266
vn 0.131613 0.980775 -0.144077
vn -0.979534 0.201277 -0.000013
vn -0.946175 0.201261 0.253470
vn -0.946178 0.201261 0.253460
vn -0.979534 0.201277 -0.000014
vn -0.848349 0.201264 0.489690
vn -0.848355 0.201264 0.489680
vn -0.692571 0.201317 0.692688
vn -0.692569 0.201317 0.692690
vn -0.489692 0.201312 0.848337
vn -0.489691 0.201312 0.848337
vn -0.253561 0.201291 0.946144
vn -0.253554 0.201291 0.946146
vn 0.000013 0.201277 0.979534
vn 0.000014 0.201277 0.979534
vn 0.253566 0.201263 0.946149
vn 0.253579 0.201263 0.946145
vn 0.489744 0.201272 0.848317
vn 0.489760 0.201272 0.848307
vn 0.692619 0.201297 0.692646
vn 0.692618 0.201297 0.692647
vn 0.848349 0.201264 0.489690
vn 0.848355 0.201264 0.489680
vn 0.946155 0.201228 0.253571
vn 0.946157 0.201228 0.253565
vn 0.979546 0.201223 -0.000013
vn 0.979546 0.201223 -0.000014
vn 0.946167 0.201211 -0.253538
vn 0.946164 0.201211 -0.253549
vn 0.848343 0.201237 -0.489712
vn 0.848348 0.201237 -0.489703
vn 0.692644 0.201251 -0.692634
vn 0.692634 0.201251 -0.692645
vn 0.489816 0.201250 -0.848280
vn 0.489835 0.201250 -0.848269
vn 0.253566 0.201264 -0.946149
vn 0.253579 0.201264 -0.946145
vn 0.000013 0.201278 -0.979534
vn 0.000014 0.201278 -0.979534
vn -0.253561 0.201291 -0.946144
vn -0.253554 0.201291 -0.946146
vn -0.489765 0.201290 -0.848300
vn -0.489766 0.201290 -0.848299
vn -0.692596 0.201271 -0.692676
vn -0.692585 0.201271 -0.692688
vn -0.848343 0.201237 -0.489712
vn -0.848348 0.201237 -0.489703
vn -0.946188 0.201244 -0.253436
vn -0.946185 0.201244 -0.253445
vn -0.000000 -1.000000 -0.000001
vn -0.000000 -1.000000 -0.000000
vn 0.000000 -1.000000 -0.000002
vn -0.000002 -1.000000 -0.000001
vn 0.000000 -1.000000 0.000001
vn -0.000002 -1.000000 0.000001
vn 0.000002 -1.000000 0.000000
vn 0.000000 1.000000 0.000002
vn -0.000001 1.000000 0.000001
vn 0.000000 1.000000 0.000003
vn 0.000000 1.000000 0.000004
vn -0.000001 1.000000 0.000002
vn 0.000000 1.000000 -0.000003
usemtl batchbake_AOComp
s off
f 33/1/1 34/2/1 35/3/1 36/4/1
f 34/5/2 37/6/2 38/7/2 35/8/2
f 37/9/3 39/10/3 40/11/3 38/12/3
f 39/13/4 41/14/4 42/15/4 40/16/4
f 41/17/2 43/18/2 44/19/2 42/20/2
f 43/21/5 45/22/5 46/23/5 44/24/5
f 45/22/6 47/25/6 48/26/6 46/23/6
f 47/27/2 49/28/2 50/29/2 48/30/2
f 49/31/5 51/32/5 52/33/5 50/34/5
f 51/35/7 53/36/7 54/37/7 52/38/7
f 53/39/8 55/40/8 56/41/8 54/42/8
f 55/40/9 57/43/9 58/44/9 56/41/9
f 57/45/10 59/46/10 60/47/10 58/48/10
f 59/46/11 61/49/11 62/50/11 60/47/11
f 61/49/12 63/51/12 64/52/12 62/50/12
f 63/51/13 65/53/13 66/54/13 64/52/13
f 65/55/14 67/56/14 68/57/14 66/58/14
f 67/59/15 69/60/15 70/61/15 68/62/15
f 69/60/16 71/63/16 72/64/16 70/61/16
f 71/63/17 73/65/17 74/66/17 72/64/17
f 73/65/18 75/67/18 76/68/18 74/66/18
f 75/67/15 77/69/15 78/70/15 76/68/15
f 77/71/19 79/72/19 80/73/19 78/74/19
f 79/75/20 81/76/20 82/77/20 80/78/20
f 81/76/21 83/79/21 84/80/21 82/77/21
f 83/81/22 85/82/22 86/83/22 84/84/22
f 85/85/23 87/86/23 88/87/23 86/88/23
f 87/86/20 89/89/20 90/90/20 88/87/20
f 89/91/24 91/92/24 92/93/24 90/94/24
f 91/92/25 93/95/25 94/96/25 92/93/25
f 93/95/26 95/97/26 96/98/26 94/96/26
f 95/99/27 33/100/27 36/101/27 96/102/27
f 36/4/28 35/3/28 19/103/28 18/104/28
f 35/8/29 38/7/29 20/105/29 19/106/29
f 38/12/30 40/11/30 21/107/30 20/108/30
f 40/16/31 42/15/31 23/109/31 21/110/31
f 42/20/29 44/19/29 24/111/29 23/112/29
f 44/24/32 46/23/32 22/113/32 24/114/32
f 46/23/33 48/26/33 25/115/33 22/113/33
f 48/30/34 50/29/34 26/116/34 25/117/34
f 50/34/35 52/33/35 27/118/35 26/119/35
f 52/38/36 54/37/36 28/120/36 27/121/36
f 54/42/37 56/41/37 30/122/37 28/123/37
f 56/41/38 58/44/38 31/124/38 30/122/38
f 58/48/39 60/47/39 29/125/39 31/126/39
f 60/47/40 62/50/40 32/127/40 29/125/40
f 1/128/41 32/127/41 62/50/41 64/52/41
f 2/129/42 1/128/42 64/52/42 66/54/42
f 66/58/43 68/57/43 3/130/43 2/131/43
f 68/62/44 70/61/44 4/132/44 3/133/44
f 70/61/45 72/64/45 5/134/45 4/132/45
f 72/64/46 74/66/46 6/135/46 5/134/46
f 74/66/47 76/68/47 7/136/47 6/135/47
f 76/68/44 78/70/44 8/137/44 7/136/44
f 78/74/48 80/73/48 17/138/48 8/139/48
f 80/78/49 82/77/49 14/140/49 17/141/49
f 82/77/50 84/80/50 13/142/50 14/140/50
f 84/84/51 86/83/51 12/143/51 13/144/51
f 86/88/52 88/87/52 9/145/52 12/146/52
f 88/87/53 90/90/53 10/147/53 9/145/53
f 90/94/54 92/93/54 11/148/54 10/149/54
f 92/93/55 94/96/55 15/150/55 11/148/55
f 94/96/56 96/98/56 16/151/56 15/150/56
f 96/102/57 36/101/57 18/152/57 16/153/57
s 1
f 1/154/58 2/155/58 3/156/58 4/157/58
f 1/154/58 4/157/58 5/158/58 6/159/58
f 1/154/58 6/159/58 7/160/58 8/161/58
f 9/162/58 10/163/58 11/164/58 12/165/59
f 13/166/59 12/165/59 11/164/58 14/167/58
f 14/167/58 11/164/58 15/168/58 16/169/58
f 17/170/58 14/167/58 16/169/58 18/171/60
f 18/171/60 19/172/61 20/173/61 21/174/62
f 17/170/58 18/171/60 21/174/62 22/175/63
f 23/176/64 24/177/64 22/175/63 21/174/62
f 8/161/58 17/170/58 22/175/63 25/178/65
f 25/178/65 26/179/66 27/180/66 28/181/67
f 8/161/58 25/178/65 28/181/67 29/182/68
f 30/183/69 31/184/69 29/182/68 28/181/67
f 32/185/58 1/154/58 8/161/58 29/182/68
f 97/186/70 98/187/71 99/188/72 100/189/73
f 98/187/71 101/190/74 102/191/75 99/188/72
f 101/190/74 103/192/76 104/193/77 102/191/75
f 103/192/76 105/194/78 106/195/79 104/193/77
f 105/194/78 107/196/80 108/197/81 106/195/79
f 107/198/80 109/199/82 110/200/83 108/201/81
f 109/199/82 111/202/84 112/203/85 110/200/83
f 111/202/84 113/204/86 114/205/87 112/203/85
f 113/204/86 115/206/88 116/207/89 114/205/87
f 115/206/88 117/208/90 118/209/91 116/207/89
f 117/210/90 119/211/92 120/212/93 118/213/91
f 119/211/92 121/214/94 122/215/95 120/212/93
f 121/214/94 123/216/96 124/217/97 122/215/95
f 123/216/96 125/218/98 126/219/99 124/217/97
f 125/218/98 127/220/100 128/221/101 126/219/99
f 127/222/100 129/223/102 130/224/103 128/225/101
f 129/223/102 131/226/104 132/227/105 130/224/103
f 131/226/104 133/228/106 134/229/107 132/227/105
f 133/228/106 135/230/108 136/231/109 134/229/107
f 135/230/108 137/232/110 138/233/111 136/231/109
f 137/232/110 139/234/112 140/235/113 138/233/111
f 139/234/112 141/236/114 142/237/115 140/235/113
f 141/238/114 143/239/116 144/240/117 142/241/115
f 143/239/116 97/186/70 100/189/73 144/240/117
f 141/242/118 139/243/118 137/244/118 97/245/119
f 137/244/118 135/246/120 133/247/120 129/248/119
f 133/247/120 131/249/119 129/248/119
f 129/248/119 127/250/118 125/251/118 121/252/119
f 125/251/118 123/253/121 121/252/119
f 121/252/119 119/254/119 117/255/119 113/256/119
f 117/255/119 115/257/119 113/256/119
f 129/248/119 121/252/119 113/256/119 97/245/119
f 113/256/119 111/258/122 109/259/122 105/260/119
f 109/259/122 107/261/119 105/260/119
f 105/260/119 103/262/118 101/263/118 97/245/119
f 101/263/118 98/264/123 97/245/119
f 113/256/119 105/260/119 97/245/119
f 137/244/118 129/248/119 97/245/119
f 143/265/124 141/242/118 97/245/119
f 99/266/59 102/267/59 104/268/58 144/269/58
f 104/268/58 106/270/125 108/271/125 112/272/58
f 108/271/125 110/273/58 112/272/58
f 112/272/58 114/274/126 116/275/126 120/276/58
f 116/275/126 118/277/127 120/276/58
f 120/276/58 122/278/58 124/279/58 128/280/58
f 124/279/58 126/281/58 128/280/58
f 112/272/58 120/276/58 128/280/58 144/269/58
f 128/280/58 130/282/128 132/283/127 136/284/58
f 132/283/127 134/285/58 136/284/58
f 136/284/58 138/286/129 140/287/129 144/269/58
f 140/287/129 142/288/130 144/269/58
f 128/280/58 136/284/58 144/269/58
f 104/268/58 112/272/58 144/269/58
f 100/289/58 99/266/59 144/269/58
