# Blender v2.69 (sub 0) OBJ File: ''
# www.blender.org
mtllib wall.mtl
o Box001
v -4.729300 -5.000000 2.265098
v -4.729300 -1.409101 2.265100
v -4.729300 -1.409103 3.730401
v -4.729300 -5.000003 7.119398
v -7.714200 -1.409101 2.265100
v -7.714200 -1.409103 3.730401
v -7.714200 -5.000000 2.265098
v -7.714200 -5.000003 7.119398
v 1.240500 -5.000000 2.265098
v 1.240500 -1.409101 2.265100
v 1.240500 -1.409103 3.730401
v 1.240500 -5.000003 7.119398
v -1.744400 -1.409101 2.265100
v -1.744400 -1.409103 3.730401
v -1.744400 -5.000000 2.265098
v -1.744400 -5.000003 7.119398
v 7.210300 -5.000000 2.265098
v 7.210300 -1.409101 2.265100
v 7.210300 -1.409103 3.730401
v 7.210300 -5.000003 7.119398
v 4.225400 -1.409101 2.265100
v 4.225400 -1.409103 3.730401
v 4.225400 -5.000000 2.265098
v 4.225400 -5.000003 7.119398
v 4.225400 -5.000000 -2.793502
v 4.225400 -1.409100 -2.793499
v 4.225400 -1.409097 -4.258800
v 4.225400 -4.999997 -7.647802
v 7.210300 -1.409100 -2.793499
v 7.210300 -1.409097 -4.258800
v 7.210300 -5.000000 -2.793502
v 7.210300 -4.999997 -7.647802
v -1.744400 -5.000000 -2.793502
v -1.744400 -1.409100 -2.793499
v -1.744400 -1.409097 -4.258800
v -1.744400 -4.999997 -7.647802
v 1.240500 -1.409100 -2.793499
v 1.240500 -1.409097 -4.258800
v 1.240500 -5.000000 -2.793502
v 1.240500 -4.999997 -7.647802
v -7.714200 -5.000000 -2.793502
v -7.714200 -1.409100 -2.793499
v -7.714200 -1.409097 -4.258800
v -7.714200 -4.999997 -7.647802
v -4.729300 -1.409100 -2.793499
v -4.729300 -1.409097 -4.258800
v -4.729300 -5.000000 -2.793502
v -4.729300 -4.999997 -7.647802
v -7.714200 8.789600 -0.977496
v -7.714200 8.789600 0.449104
v -4.729300 8.789600 0.449104
v -4.729300 8.789600 -0.977496
v -1.744400 8.789600 0.449104
v -1.744400 8.789600 -0.977496
v 1.240500 8.789600 0.449104
v 1.240500 8.789600 -0.977496
v 4.225400 8.789600 0.449104
v 4.225400 8.789600 -0.977496
v 7.210300 8.789600 0.449104
v 7.210300 8.789600 -0.977496
vt 0.391822 0.853293
vt 0.391822 0.954445
vt 0.350546 0.954445
vt 0.255080 0.853293
vt 0.949673 0.717557
vt 0.949673 0.801639
vt 0.908397 0.801639
vt 0.908397 0.717557
vt 0.290669 0.709790
vt 0.391822 0.709790
vt 0.391822 0.846532
vt 0.290669 0.751067
vt 0.503084 0.990034
vt 0.401932 0.990034
vt 0.401932 0.948758
vt 0.503084 0.853293
vt 0.979549 0.167946
vt 0.979549 0.252028
vt 0.938273 0.252028
vt 0.938273 0.167946
vt 0.689221 0.853293
vt 0.790374 0.853293
vt 0.790374 0.990034
vt 0.689221 0.894569
vt 0.790374 0.567294
vt 0.689221 0.567294
vt 0.689221 0.526017
vt 0.790374 0.430552
vt 0.949673 0.483211
vt 0.949673 0.567294
vt 0.908397 0.567294
vt 0.908397 0.483211
vt 0.847430 0.003380
vt 0.948583 0.003380
vt 0.948583 0.140122
vt 0.847430 0.044657
vt 0.948583 0.423791
vt 0.847430 0.423791
vt 0.847430 0.382515
vt 0.948583 0.287050
vt 0.908397 0.658136
vt 0.908397 0.574054
vt 0.949673 0.574054
vt 0.949673 0.658136
vt 0.689221 0.709790
vt 0.790374 0.709790
vt 0.790374 0.846532
vt 0.689221 0.751067
vt 0.901636 0.567294
vt 0.800483 0.567294
vt 0.800483 0.526017
vt 0.901636 0.430552
vt 0.955343 0.140122
vt 0.955343 0.056040
vt 0.996620 0.056040
vt 0.996620 0.140122
vt 0.800483 0.574054
vt 0.901636 0.574054
vt 0.901636 0.710796
vt 0.800483 0.615331
vt 0.391822 0.567294
vt 0.290669 0.567294
vt 0.290669 0.526017
vt 0.391822 0.430552
vt 0.509845 0.937375
vt 0.509845 0.853293
vt 0.551121 0.853293
vt 0.551121 0.937375
vt 0.800483 0.717557
vt 0.901636 0.717557
vt 0.901636 0.854298
vt 0.800483 0.758833
vt 0.800483 0.003380
vt 0.840669 0.003380
vt 0.840669 0.087463
vt 0.800483 0.087463
vt 0.840669 0.171545
vt 0.800483 0.171545
vt 0.840669 0.255627
vt 0.800483 0.255627
vt 0.840669 0.339709
vt 0.800483 0.339709
vt 0.840669 0.423791
vt 0.800483 0.423791
vt 0.003380 0.658635
vt 0.003380 0.618449
vt 0.045134 0.937375
vt 0.045134 0.853293
vt 0.157477 0.853293
vt 0.157477 0.937375
vt 0.401932 0.339709
vt 0.401932 0.255627
vt 0.502283 0.255627
vt 0.502283 0.339709
vt 0.975408 0.973402
vt 0.891326 0.973402
vt 0.891326 0.861059
vt 0.975408 0.861059
vt 0.401932 0.171545
vt 0.401932 0.087463
vt 0.502283 0.087463
vt 0.502283 0.171545
vt 0.884565 0.973402
vt 0.800483 0.973402
vt 0.800483 0.861059
vt 0.884565 0.861059
vt 0.502283 0.423791
vt 0.793723 0.339709
vt 0.793723 0.423791
vt 0.793723 0.255627
vt 0.793723 0.171545
vt 0.793723 0.087462
vt 0.502283 0.003380
vt 0.793723 0.003380
vt 0.401932 0.658635
vt 0.401932 0.618449
vt 0.598378 0.853293
vt 0.682460 0.853293
vt 0.682460 0.965636
vt 0.598378 0.965636
vt 0.395171 0.087462
vt 0.395171 0.171545
vt 0.294820 0.171545
vt 0.294820 0.087462
vt 0.164238 0.853293
vt 0.248320 0.853293
vt 0.248320 0.965636
vt 0.164238 0.965636
vt 0.395171 0.255627
vt 0.395171 0.339709
vt 0.294820 0.339709
vt 0.294820 0.255627
vt 0.847430 0.167946
vt 0.931512 0.167946
vt 0.931512 0.280289
vt 0.847430 0.280289
vt 0.294820 0.003380
vt 0.003380 0.087463
vt 0.003380 0.003380
vt 0.003380 0.171545
vt 0.003380 0.255627
vt 0.003380 0.339709
vt 0.294820 0.423791
vt 0.003380 0.423791
vn 1.000000 0.000000 0.000000
vn 0.000000 1.000000 0.000001
vn -1.000000 -0.000000 0.000000
vn 0.000000 1.000000 0.000002
vn -0.587176 0.620502 -0.519761
vn -0.587176 0.620502 0.519761
vn 0.000000 0.766564 0.642140
vn 0.000000 0.766564 -0.642140
vn 0.587176 0.620502 0.519761
vn 0.587176 0.620502 -0.519761
vn -0.883678 0.082059 0.460846
vn -0.883678 0.082059 -0.460846
vn 0.000000 0.686366 0.727257
vn 0.000000 -0.000000 1.000000
vn 0.000000 0.117274 0.993100
vn 0.883678 0.082059 0.460846
vn 0.883678 0.082059 -0.460846
vn 0.000000 0.686366 -0.727256
vn 0.000000 0.000001 -1.000000
vn 0.000000 0.117274 -0.993099
usemtl 01___Default
s off
f 1/1/1 2/2/1 3/3/1 4/4/1
f 2/5/2 5/6/2 6/7/2 3/8/2
f 5/9/3 7/10/3 8/11/3 6/12/3
f 9/13/1 10/14/1 11/15/1 12/16/1
f 10/17/2 13/18/2 14/19/2 11/20/2
f 13/21/3 15/22/3 16/23/3 14/24/3
f 17/25/1 18/26/1 19/27/1 20/28/1
f 18/29/2 21/30/2 22/31/2 19/32/2
f 21/33/3 23/34/3 24/35/3 22/36/3
f 25/37/3 26/38/3 27/39/3 28/40/3
f 26/41/4 29/42/4 30/43/4 27/44/4
f 29/45/1 31/46/1 32/47/1 30/48/1
f 33/49/3 34/50/3 35/51/3 36/52/3
f 34/53/4 37/54/4 38/55/4 35/56/4
f 37/57/1 39/58/1 40/59/1 38/60/1
f 41/61/3 42/62/3 43/63/3 44/64/3
f 42/65/4 45/66/4 46/67/4 43/68/4
f 45/69/1 47/70/1 48/71/1 46/72/1
s 1
f 49/73/5 50/74/6 51/75/7 52/76/8
f 52/76/8 51/75/7 53/77/7 54/78/8
f 54/78/8 53/77/7 55/79/7 56/80/8
f 56/80/8 55/79/7 57/81/7 58/82/8
f 58/82/8 57/81/7 59/83/9 60/84/10
f 41/61/3 7/10/3 5/9/11 42/62/12
f 42/62/12 5/9/11 50/85/6 49/86/5
f 8/87/13 4/88/13 3/89/13 6/90/13
f 1/91/14 15/92/14 13/93/15 2/94/15
f 16/95/13 12/96/13 11/97/13 14/98/13
f 9/99/14 23/100/14 21/101/15 10/102/15
f 24/103/13 20/104/13 19/105/13 22/106/13
f 5/107/11 2/94/15 51/108/7 50/109/6
f 2/94/15 13/93/15 53/110/7 51/108/7
f 13/93/15 10/102/15 55/111/7 53/110/7
f 10/102/15 21/101/15 57/112/7 55/111/7
f 21/101/15 18/113/16 59/114/9 57/112/7
f 17/25/1 31/46/1 29/45/17 18/26/16
f 18/26/16 29/45/17 60/115/10 59/116/9
f 32/117/18 28/118/18 27/119/18 30/120/18
f 25/121/19 39/122/19 37/123/20 26/124/20
f 40/125/18 36/126/18 35/127/18 38/128/18
f 33/129/19 47/130/19 45/131/20 34/132/20
f 48/133/18 44/134/18 43/135/18 46/136/18
f 29/137/17 26/124/20 58/138/8 60/139/10
f 26/124/20 37/123/20 56/140/8 58/138/8
f 37/123/20 34/132/20 54/141/8 56/140/8
f 34/132/20 45/131/20 52/142/8 54/141/8
f 45/131/20 42/143/12 49/144/5 52/142/8
