# Blender v2.69 (sub 0) OBJ File: ''
# www.blender.org
mtllib mine.mtl
o Cylinder
v 0.000000 -3.916213 -1.442293
v 0.000000 -3.588499 -1.442293
v 0.551941 -3.588499 -1.332505
v 0.551941 -3.916213 -1.332505
v 1.019854 -3.588499 -1.019855
v 1.019854 -3.916213 -1.019855
v 1.332504 -3.588499 -0.551942
v 1.332504 -3.916213 -0.551942
v 1.442292 -3.588499 -0.000001
v 1.442292 -3.916213 -0.000001
v 1.332504 -3.588499 0.551940
v 1.332504 -3.916213 0.551940
v 1.019854 -3.588499 1.019853
v 1.019854 -3.916213 1.019853
v 0.551941 -3.588499 1.332503
v 0.551941 -3.916213 1.332503
v 0.000000 -3.588499 1.442291
v 0.000000 -3.916213 1.442291
v -0.551941 -3.588499 1.332503
v -0.551941 -3.916213 1.332503
v -1.019854 -3.588499 1.019854
v -1.019854 -3.916213 1.019854
v -1.332504 -3.588499 0.551940
v -1.332504 -3.916213 0.551940
v -1.442292 -3.588499 -0.000001
v -1.442292 -3.916213 -0.000001
v -1.332504 -3.588499 -0.551942
v -1.332504 -3.916213 -0.551942
v -1.019854 -3.588499 -1.019856
v -1.019854 -3.916213 -1.019856
v -0.551941 -3.916213 -1.332505
v -0.551941 -3.588499 -1.332505
vt 0.557917 0.591885
vt 0.615835 0.591885
vt 0.557917 0.691342
vt 0.615835 0.691342
vt 0.557917 0.783227
vt 0.615835 0.783227
vt 0.557917 0.853553
vt 0.442083 0.500000
vt 0.500000 0.500000
vt 0.442083 0.591886
vt 0.500000 0.591886
vt 0.442083 0.691342
vt 0.500000 0.691342
vt 0.442083 0.783227
vt 0.500000 0.783227
vt 0.442083 0.853553
vt 0.557917 0.923880
vt 0.500000 0.923880
vt 0.500000 0.853553
vt 0.557917 0.761668
vt 0.500000 0.761668
vt 0.557917 0.662212
vt 0.500000 0.662212
vt 0.557917 0.570326
vt 0.500000 0.570326
vt 0.557917 0.500000
vt 0.673752 0.783227
vt 0.673752 0.691342
vt 0.673752 0.591885
vt 0.615835 0.500000
vt 0.673752 0.500000
vt 0.000000 0.299728
vt 0.000000 0.200272
vt 0.038060 0.391614
vt 0.538060 0.108386
vt 0.608386 0.038060
vt 0.500000 0.200272
vt 0.615835 0.853553
vt 0.391614 0.038060
vt 0.200272 0.000000
vt 0.299728 0.000000
vt 0.461940 0.108386
vt 0.500000 0.299728
vt 0.038060 0.108386
vt 0.108386 0.038060
vt 0.108386 0.461940
vt 0.200272 0.500000
vt 0.461940 0.391614
vt 0.391614 0.461940
vt 0.299728 0.500000
vt 0.700272 0.000000
vt 0.799728 0.000000
vt 0.891614 0.038060
vt 0.608386 0.461940
vt 0.538060 0.391614
vt 0.961940 0.108386
vt 1.000000 0.200272
vt 1.000000 0.299728
vt 0.961940 0.391614
vt 0.799728 0.500000
vt 0.700272 0.500000
vt 0.891614 0.461940
vn 0.195091 0.000000 -0.980785
vn 0.555571 0.000000 -0.831469
vn 0.831469 0.000000 -0.555571
vn 0.980785 0.000000 -0.195091
vn 0.980785 0.000000 0.195091
vn 0.831469 0.000000 0.555571
vn 0.555571 0.000000 0.831469
vn 0.195090 0.000000 0.980785
vn -0.195090 0.000000 0.980785
vn -0.555570 0.000000 0.831470
vn -0.831469 0.000000 0.555570
vn -0.980785 -0.000001 0.195091
vn -0.980785 -0.000001 -0.195091
vn -0.831469 0.000000 -0.555570
vn -0.195091 0.000000 -0.980785
vn -0.555569 0.000000 -0.831470
vn 0.000001 -1.000000 0.000000
vn 0.000000 1.000000 0.000000
vn 0.195090 0.000000 -0.980785
vn 0.980785 0.000000 -0.195090
vn 0.980785 0.000000 0.195090
vn -0.831470 -0.000000 0.555570
vn -0.980785 0.000000 0.195090
vn -0.980785 0.000000 -0.195090
vn -0.831470 0.000000 -0.555570
vn -0.195090 0.000000 -0.980785
vn -0.555570 0.000000 -0.831470
vn 0.000000 -1.000000 0.000002
vn 0.000000 -1.000000 0.000000
vn 0.000001 -1.000000 -0.000002
vn -0.000000 -1.000000 -0.000001
vn 0.000001 1.000000 0.000000
vn -0.000000 1.000000 0.000001
vn 0.000000 1.000000 0.000003
vn -0.000001 1.000000 0.000004
usemtl None
s off
f 1/1/1 2/2/1 4/3/1
f 4/3/2 3/4/2 6/5/2
f 6/5/3 5/6/3 8/7/3
f 8/8/4 7/9/4 10/10/4
f 10/10/5 9/11/5 12/12/5
f 12/12/6 11/13/6 14/14/6
f 14/14/7 13/15/7 16/16/7
f 16/17/8 15/18/8 18/7/8
f 18/7/9 17/19/9 20/20/9
f 20/20/10 19/21/10 22/22/10
f 22/22/11 21/23/11 24/24/11
f 24/24/12 23/25/12 26/26/12
f 26/27/13 25/6/13 28/28/13
f 28/28/14 27/4/14 30/29/14
f 2/2/15 1/1/15 32/30/15
f 30/29/16 29/2/16 31/31/16
f 6/32/17 8/33/17 4/34/17
f 9/35/18 7/36/18 11/37/18
f 2/2/19 3/4/19 4/3/19
f 3/4/2 5/6/2 6/5/2
f 5/6/3 7/38/3 8/7/3
f 7/9/20 9/11/20 10/10/20
f 9/11/21 11/13/21 12/12/21
f 11/13/6 13/15/6 14/14/6
f 13/15/7 15/19/7 16/16/7
f 15/18/8 17/19/8 18/7/8
f 17/19/9 19/21/9 20/20/9
f 19/21/10 21/23/10 22/22/10
f 21/23/22 23/25/22 24/24/22
f 23/25/23 25/9/23 26/26/23
f 25/6/24 27/4/24 28/28/24
f 27/4/25 29/2/25 30/29/25
f 1/1/26 31/26/26 32/30/26
f 29/2/27 32/30/27 31/31/27
f 18/39/28 14/40/28 16/41/28
f 20/42/29 14/40/29 18/39/29
f 24/43/30 20/42/30 22/37/30
f 24/43/31 14/40/31 20/42/31
f 8/33/29 10/44/29 12/45/29
f 4/34/29 8/33/29 12/45/29
f 1/46/29 4/34/29 31/47/29
f 4/34/29 12/45/29 31/47/29
f 12/45/31 14/40/31 31/47/31
f 14/40/29 24/43/29 31/47/29
f 24/43/29 26/48/29 28/49/29
f 31/47/29 24/43/29 30/50/29
f 24/43/17 28/49/17 30/50/17
f 5/51/18 3/52/18 2/53/18
f 13/43/18 17/54/18 15/55/18
f 7/36/32 5/51/32 11/37/32
f 5/51/33 2/53/33 11/37/33
f 11/37/18 2/53/18 13/43/18
f 13/43/18 2/53/18 17/54/18
f 32/56/32 29/57/32 27/58/32
f 2/53/34 32/56/34 27/58/34
f 17/54/18 2/53/18 27/58/18
f 17/54/18 27/58/18 25/59/18
f 21/60/35 19/61/35 23/62/35
f 19/61/18 17/54/18 23/62/18
f 17/54/18 25/59/18 23/62/18
