# Blender v2.69 (sub 0) OBJ File: ''
# www.blender.org
mtllib energy.mtl
o Box001.001
v -7.409200 -3.933096 -0.653706
v 7.590800 -3.933094 -0.653706
v 7.590800 -3.933094 0.736123
v -7.409200 -3.933096 0.736122
v -7.409204 14.633936 -0.653706
v -7.409204 14.633936 0.736122
v 7.590796 14.633940 0.736123
v 7.590796 14.633940 -0.653706
vt 1.000000 0.000000
vt 1.000000 1.000000
vt 0.000000 1.000000
vt 0.000000 0.000000
vn 0.000000 -1.000000 0.000000
vn -0.000000 1.000000 0.000000
vn -1.000000 -0.000000 0.000000
vn -0.000000 -0.000000 1.000000
vn 1.000000 0.000000 0.000000
vn 0.000000 0.000000 -1.000000
usemtl 01___Default.001
s 1
f 1/1/1 2/2/1 3/3/1 4/4/1
f 5/4/2 6/1/2 7/2/2 8/3/2
f 1/4/3 4/1/3 6/2/3 5/3/3
f 4/4/4 3/1/4 7/2/4 6/3/4
f 3/4/5 2/1/5 8/2/5 7/3/5
f 2/4/6 1/1/6 5/2/6 8/3/6
