# Blender v2.69 (sub 0) OBJ File: 'turret 2 y mina.blend'
# www.blender.org
mtllib mine3.mtl
o Sphere001.006
v -0.777450 -3.706406 -0.845434
v -0.379029 -3.706406 -1.111702
v -0.972793 -3.046510 -2.000496
v -1.371323 -3.046510 -1.734119
v -0.777450 -3.999039 -2.073818
v -1.371323 -3.339143 -2.962503
v -1.513827 -3.999039 -1.581811
v -2.107700 -3.339143 -2.470496
v -1.137304 -3.706406 0.023205
v -1.043718 -3.706406 -0.446904
v -2.092120 -3.046510 -0.655429
v -2.185597 -3.046510 -0.185320
v -2.005834 -3.999039 -0.845434
v -3.054237 -3.339144 -1.053960
v -2.178625 -3.999039 0.023205
v -3.227027 -3.339144 -0.185320
v -0.777450 -3.706406 0.891735
v -1.043718 -3.706406 0.493314
v -1.932512 -3.046512 1.087078
v -1.666244 -3.046512 1.485609
v -2.005834 -3.999039 0.891735
v -2.894628 -3.339145 1.485609
v -1.513827 -3.999041 1.628112
v -2.402621 -3.339145 2.221985
v 0.091080 -3.706407 1.251589
v -0.379029 -3.706406 1.158003
v -0.587554 -3.046512 2.206406
v -0.117445 -3.046512 2.299883
v -0.777450 -3.999041 2.120119
v -0.985976 -3.339145 3.168522
v 0.091080 -3.999041 2.292910
v -0.117445 -3.339145 3.341313
v 0.959719 -3.706406 0.891735
v 0.561189 -3.706406 1.158003
v 1.155062 -3.046512 2.046798
v 1.553593 -3.046512 1.780530
v 0.959719 -3.999041 2.120119
v 1.553593 -3.339145 3.008914
v 1.696096 -3.999041 1.628112
v 2.289860 -3.339145 2.516906
v 1.319464 -3.706406 0.023205
v 1.225987 -3.706406 0.493314
v 2.274390 -3.046512 0.701840
v 2.367867 -3.046510 0.231731
v 2.188103 -3.999039 0.891735
v 3.236397 -3.339145 1.100261
v 2.360894 -3.999039 0.023205
v 3.409188 -3.339144 0.231731
v 0.959719 -3.706406 -0.845434
v 1.225987 -3.706406 -0.446904
v 2.114782 -3.046510 -1.040777
v 1.848405 -3.046510 -1.439307
v 2.188103 -3.999039 -0.845434
v 3.076789 -3.339144 -1.439307
v 1.696096 -3.999039 -1.581811
v 2.584781 -3.339144 -2.175575
v 0.091080 -3.706406 -1.205179
v 0.561189 -3.706406 -1.111702
v 0.769715 -3.046510 -2.160104
v 0.299606 -3.046510 -2.253581
v 0.959719 -3.999039 -2.073818
v 1.168245 -3.339143 -3.122112
v 0.091080 -3.999039 -2.246609
v 0.299606 -3.339143 -3.294903
v -1.043718 -4.436899 -2.716609
v 0.091080 -4.436899 -2.942348
v -0.272369 -4.284045 -4.769944
v -1.407276 -4.284045 -4.544205
v 0.091080 -4.953528 -3.186718
v -0.272369 -4.800675 -5.014314
v -1.137304 -4.953528 -2.942348
v -1.500753 -4.800675 -4.769944
v -2.648734 -4.436900 -1.111702
v -2.005834 -4.436899 -2.073818
v -3.555178 -4.284045 -3.109038
v -4.198078 -4.284045 -2.146922
v -2.178625 -4.953528 -2.246609
v -3.727968 -4.800675 -3.281829
v -2.874473 -4.953529 -1.205179
v -4.423817 -4.800675 -2.240399
v -2.648734 -4.436901 1.158003
v -2.874473 -4.436900 0.023205
v -4.702069 -4.284046 0.386654
v -4.476329 -4.284048 1.521561
v -3.118843 -4.953529 0.023205
v -4.946330 -4.800677 0.386654
v -2.874473 -4.953529 1.251589
v -4.702069 -4.800677 1.615038
v -1.043718 -4.436901 2.763019
v -2.005834 -4.436901 2.120119
v -3.041054 -4.284048 3.669463
v -2.079047 -4.284048 4.312362
v -2.178625 -4.953530 2.292910
v -3.213845 -4.800677 3.842254
v -1.137304 -4.953530 2.988758
v -2.172524 -4.800678 4.538102
v 1.225987 -4.436901 2.763019
v 0.091080 -4.436901 2.988758
v 0.454638 -4.284048 4.816354
v 1.589545 -4.284048 4.590615
v 0.091080 -4.953530 3.233128
v 0.454638 -4.800678 5.060615
v 1.319464 -4.953530 2.988758
v 1.683022 -4.800678 4.816354
v 2.830894 -4.436901 1.158003
v 2.188103 -4.436901 2.120119
v 3.737447 -4.284048 3.155339
v 4.380238 -4.284048 2.193332
v 2.360894 -4.953530 2.292910
v 3.910129 -4.800677 3.328130
v 3.056633 -4.953529 1.251589
v 4.605978 -4.800677 2.286809
v 2.830894 -4.436900 -1.111702
v 3.056633 -4.436900 0.023205
v 4.884229 -4.284046 -0.340353
v 4.658490 -4.284045 -1.475260
v 3.301003 -4.953529 0.023205
v 5.128599 -4.800676 -0.340353
v 3.056633 -4.953529 -1.205179
v 4.884229 -4.800675 -1.568737
v 1.225987 -4.436899 -2.716609
v 2.188103 -4.436899 -2.073818
v 3.223323 -4.284045 -3.623162
v 2.261207 -4.284045 -4.265953
v 2.360894 -4.953528 -2.246609
v 3.396114 -4.800675 -3.795844
v 1.319464 -4.953528 -2.942348
v 2.354684 -4.800675 -4.491692
v 0.091080 -3.603670 0.023205
v 0.091080 -4.953529 0.023205
vt 0.820698 0.257471
vt 0.820701 0.232725
vt 0.878322 0.233647
vt 0.878319 0.258401
vt 0.558832 0.689475
vt 0.517850 0.660595
vt 0.517851 0.602822
vt 0.558832 0.631705
vt 0.148787 0.684763
vt 0.103043 0.684273
vt 0.103043 0.627529
vt 0.148787 0.628020
vt 0.466564 0.553457
vt 0.507718 0.518411
vt 0.507718 0.582350
vt 0.466564 0.617396
vt 0.793788 0.297906
vt 0.811248 0.280360
vt 0.852742 0.320356
vt 0.835279 0.337898
vt 0.569135 0.493701
vt 0.610288 0.528747
vt 0.610288 0.592689
vt 0.569135 0.557643
vt 0.461972 0.628014
vt 0.507718 0.627528
vt 0.507718 0.684276
vt 0.461972 0.684762
vt 0.353865 0.576185
vt 0.312884 0.605068
vt 0.312881 0.547298
vt 0.353865 0.518411
vt 0.746283 0.307483
vt 0.770972 0.307428
vt 0.773530 0.363679
vt 0.748837 0.363737
vt 0.569306 0.602821
vt 0.610288 0.631702
vt 0.610288 0.689476
vt 0.569305 0.660591
vt 0.717224 0.549593
vt 0.671534 0.550841
vt 0.671535 0.494950
vt 0.717224 0.493701
vt 0.517850 0.528748
vt 0.559003 0.493701
vt 0.559003 0.557644
vt 0.517850 0.592690
vt 0.706009 0.280609
vt 0.723473 0.298068
vt 0.687085 0.338245
vt 0.669625 0.320782
vt 0.148787 0.617398
vt 0.107636 0.582353
vt 0.107636 0.518411
vt 0.148787 0.553455
vt 0.148725 0.749481
vt 0.103043 0.750840
vt 0.103043 0.696254
vt 0.148725 0.694895
vt 0.302749 0.576185
vt 0.261768 0.605068
vt 0.261765 0.547298
vt 0.302749 0.518411
vt 0.696561 0.233010
vt 0.696562 0.257761
vt 0.644044 0.258943
vt 0.644043 0.234193
vt 0.158918 0.518411
vt 0.199901 0.547297
vt 0.199901 0.605071
vt 0.158918 0.576185
vt 0.610288 0.753202
vt 0.564545 0.753800
vt 0.564550 0.700209
vt 0.610288 0.699608
vt 0.005066 0.553458
vt 0.046219 0.518411
vt 0.046219 0.582354
vt 0.005069 0.617397
vt 0.723469 0.192583
vt 0.706007 0.210125
vt 0.669620 0.172237
vt 0.687083 0.154696
vt 0.405147 0.617393
vt 0.363997 0.582349
vt 0.363999 0.518411
vt 0.405147 0.553451
vt 0.708922 0.656563
vt 0.754662 0.657164
vt 0.754662 0.710752
vt 0.708922 0.710152
vt 0.620420 0.619378
vt 0.661404 0.590491
vt 0.661404 0.648265
vt 0.620423 0.677147
vt 0.770976 0.182998
vt 0.746283 0.183057
vt 0.748837 0.128911
vt 0.773533 0.128858
vt 0.661403 0.580360
vt 0.620420 0.551474
vt 0.620422 0.493701
vt 0.661403 0.522585
vt 0.708922 0.590491
vt 0.754608 0.591853
vt 0.754608 0.646432
vt 0.708927 0.645073
vt 0.415279 0.553457
vt 0.456433 0.518411
vt 0.456433 0.582350
vt 0.415282 0.617393
vt 0.811249 0.209881
vt 0.793789 0.192418
vt 0.835285 0.154350
vt 0.852745 0.171813
vt 0.097504 0.617395
vt 0.056351 0.582349
vt 0.056353 0.518411
vt 0.097504 0.553453
vt 0.461972 0.694893
vt 0.507663 0.696143
vt 0.507663 0.752029
vt 0.461972 0.750779
vt 0.210033 0.547298
vt 0.251017 0.518411
vt 0.251017 0.576185
vt 0.210036 0.605068
vt 0.905648 0.213850
vt 0.882837 0.158702
vt 0.972120 0.121912
vt 0.994934 0.177065
vt 0.727355 0.493701
vt 0.753332 0.495010
vt 0.753332 0.567890
vt 0.727355 0.566582
vt 0.393772 0.349060
vt 0.418506 0.289309
vt 0.507718 0.326074
vt 0.482984 0.385824
vt 0.661404 0.760155
vt 0.635425 0.761464
vt 0.635427 0.688584
vt 0.661404 0.687279
vt 0.882838 0.328861
vt 0.905651 0.273601
vt 0.994934 0.310463
vt 0.972121 0.365723
vt 0.353865 0.722038
vt 0.326610 0.711770
vt 0.326610 0.615200
vt 0.353865 0.625468
vt 0.418507 0.224619
vt 0.393768 0.164824
vt 0.482979 0.127915
vt 0.507718 0.187710
vt 0.442534 0.724095
vt 0.415279 0.734361
vt 0.415279 0.637791
vt 0.442534 0.627525
vt 0.785611 0.394204
vt 0.840683 0.371212
vt 0.878016 0.460269
vt 0.822939 0.483264
vt 0.763464 0.493707
vt 0.789441 0.495015
vt 0.789441 0.567890
vt 0.763465 0.566587
vt 0.348062 0.119036
vt 0.288343 0.094228
vt 0.325512 0.005184
vt 0.385228 0.029997
vt 0.031045 0.700405
vt 0.005066 0.701714
vt 0.005068 0.628834
vt 0.031045 0.627529
vt 0.670917 0.371603
vt 0.725995 0.394341
vt 0.689848 0.483570
vt 0.634773 0.460837
vt 0.210033 0.615200
vt 0.237288 0.625468
vt 0.237288 0.722038
vt 0.210033 0.711770
vt 0.223707 0.094174
vt 0.163990 0.118877
vt 0.127551 0.029769
vt 0.187268 0.005066
vt 0.289020 0.711769
vt 0.261766 0.722039
vt 0.261765 0.625466
vt 0.289020 0.615199
vt 0.605953 0.274300
vt 0.628767 0.329453
vt 0.540663 0.366726
vt 0.517850 0.311574
vt 0.764793 0.656563
vt 0.790771 0.657871
vt 0.790771 0.730744
vt 0.764794 0.729441
vt 0.118284 0.164583
vt 0.093550 0.224334
vt 0.005066 0.187272
vt 0.029804 0.127525
vt 0.671535 0.708769
vt 0.697512 0.707463
vt 0.697512 0.780343
vt 0.671535 0.781649
vt 0.628770 0.159291
vt 0.605954 0.214546
vt 0.517854 0.178172
vt 0.540666 0.122920
vt 0.377892 0.627525
vt 0.405147 0.637794
vt 0.405147 0.734359
vt 0.377892 0.724095
vt 0.093551 0.289032
vt 0.118288 0.348819
vt 0.029808 0.385426
vt 0.005074 0.325634
vt 0.698791 0.687061
vt 0.671536 0.697331
vt 0.671535 0.600758
vt 0.698791 0.590491
vt 0.725998 0.093948
vt 0.670920 0.116943
vt 0.634775 0.028371
vt 0.689853 0.005376
vt 0.517850 0.699607
vt 0.543827 0.700915
vt 0.543827 0.773793
vt 0.517850 0.772485
vt 0.163994 0.394607
vt 0.223713 0.419415
vt 0.187279 0.508160
vt 0.127560 0.483351
vt 0.031045 0.784726
vt 0.005068 0.786032
vt 0.005068 0.713152
vt 0.031045 0.711846
vt 0.840683 0.116547
vt 0.785610 0.093806
vt 0.822940 0.005066
vt 0.878014 0.027807
vt 0.056351 0.627527
vt 0.083606 0.637795
vt 0.083606 0.734361
vt 0.056351 0.724097
vt 0.288351 0.419476
vt 0.348066 0.394766
vt 0.385236 0.483572
vt 0.325516 0.508279
vt 0.186174 0.711773
vt 0.158918 0.722039
vt 0.158918 0.625469
vt 0.186174 0.615203
vt 0.759026 0.245409
vt 0.872186 0.221640
vt 0.854728 0.179431
vt 0.929807 0.268302
vt 0.929806 0.222569
vt 0.872187 0.267373
vt 0.854725 0.309665
vt 0.863955 0.382077
vt 0.896219 0.349662
vt 0.780310 0.359677
vt 0.822461 0.342080
vt 0.737237 0.416038
vt 0.782863 0.415931
vt 0.692530 0.342379
vt 0.734683 0.359784
vt 0.623881 0.350296
vt 0.656142 0.382556
vt 0.642808 0.267906
vt 0.660269 0.310120
vt 0.590293 0.223361
vt 0.590291 0.269089
vt 0.660269 0.179881
vt 0.642807 0.222173
vt 0.656145 0.109586
vt 0.623886 0.141998
vt 0.734684 0.129870
vt 0.692529 0.147469
vt 0.782863 0.075625
vt 0.737241 0.075729
vt 0.822464 0.147167
vt 0.780311 0.129763
vt 0.896219 0.141367
vt 0.863955 0.109102
vt 0.661404 0.818997
vt 0.632027 0.818314
vt 0.632026 0.774521
vt 0.661404 0.771595
vt 0.491112 0.822312
vt 0.461972 0.821524
vt 0.461972 0.765949
vt 0.491112 0.762161
vt 0.737969 0.785594
vt 0.708923 0.783130
vt 0.708922 0.723347
vt 0.737969 0.720884
vt 0.793933 0.801033
vt 0.764793 0.797240
vt 0.764794 0.741662
vt 0.793933 0.740876
vt 0.830279 0.730744
vt 0.800902 0.727820
vt 0.800904 0.684027
vt 0.830279 0.683342
vt 0.444419 0.804648
vt 0.415279 0.803861
vt 0.415279 0.748282
vt 0.444419 0.744493
vt 0.239079 0.796875
vt 0.210034 0.794411
vt 0.210033 0.734632
vt 0.239079 0.732170
vt 0.188058 0.792328
vt 0.158918 0.788536
vt 0.158919 0.732962
vt 0.188058 0.732171
vt 0.828950 0.541110
vt 0.799573 0.538185
vt 0.799574 0.494392
vt 0.828950 0.493707
vt 0.259880 0.732171
vt 0.289020 0.732958
vt 0.289020 0.788537
vt 0.259881 0.792330
vt 0.353865 0.796876
vt 0.324819 0.794411
vt 0.324820 0.734636
vt 0.353865 0.732170
vt 0.405147 0.804647
vt 0.376007 0.800855
vt 0.376007 0.745282
vt 0.405147 0.744491
vt 0.610288 0.811334
vt 0.580911 0.810652
vt 0.580910 0.766858
vt 0.610288 0.763932
vt 0.148725 0.821127
vt 0.119585 0.820338
vt 0.119586 0.764763
vt 0.148725 0.760972
vt 0.793786 0.646432
vt 0.764740 0.643968
vt 0.764741 0.584187
vt 0.793786 0.581721
vt 0.083606 0.804649
vt 0.054467 0.800856
vt 0.054467 0.745279
vt 0.083606 0.744492
vt 0.256028 0.256822
vn 0.291909 0.850900 0.436759
vn 0.878067 0.213056 -0.428492
vn -0.291849 -0.850897 -0.436804
vn -0.731905 0.212994 0.647262
vn 0.515223 0.850904 0.102507
vn 0.317880 0.213085 -0.923876
vn -0.515207 -0.850916 -0.102486
vn -0.059869 0.213052 0.975205
vn 0.436772 0.850911 -0.291858
vn -0.428472 0.213057 -0.878077
vn -0.436778 -0.850917 0.291830
vn 0.647237 0.213064 0.731907
vn 0.102508 0.850905 -0.515221
vn -0.923919 0.212983 -0.317824
vn -0.102498 -0.850916 0.515205
vn 0.975205 0.213052 0.059869
vn -0.291824 0.850918 -0.436781
vn -0.878057 0.213056 0.428513
vn 0.291852 -0.850910 0.436777
vn 0.731933 0.213063 -0.647208
vn -0.515215 0.850916 -0.102445
vn -0.317839 0.212983 0.923914
vn 0.515242 -0.850893 0.102505
vn 0.059869 0.213052 -0.975205
vn -0.436768 0.850907 0.291875
vn 0.428533 0.213055 0.878047
vn 0.436803 -0.850891 -0.291870
vn -0.647234 0.212993 -0.731931
vn -0.102446 0.850916 0.515216
vn 0.923871 0.213085 0.317895
vn 0.102493 -0.850893 -0.515244
vn -0.975205 0.213052 -0.059869
vn 0.015950 0.996652 0.080185
vn 0.978334 0.088525 -0.187155
vn -0.015951 -0.996652 -0.080184
vn -0.975488 0.088589 0.201431
vn 0.067977 0.996652 0.045423
vn 0.559406 0.088547 -0.824151
vn -0.067978 -0.996652 -0.045421
vn -0.547324 0.088572 0.832221
vn 0.080184 0.996652 -0.015949
vn -0.187162 0.088509 -0.978334
vn -0.080186 -0.996652 0.015948
vn 0.201431 0.088590 0.975488
vn 0.045424 0.996652 -0.067974
vn -0.824151 0.088546 -0.559406
vn -0.045424 -0.996652 0.067976
vn 0.832210 0.088499 0.547353
vn -0.015949 0.996653 -0.080183
vn -0.978321 0.088534 0.187215
vn 0.015948 -0.996652 0.080186
vn 0.975494 0.088479 -0.201452
vn -0.067978 0.996652 -0.045418
vn -0.559420 0.088595 0.824136
vn 0.067979 -0.996652 0.045421
vn 0.547353 0.088500 -0.832209
vn -0.080184 0.996652 0.015949
vn 0.187208 0.088551 0.978321
vn 0.080183 -0.996652 -0.015952
vn -0.201452 0.088478 -0.975494
vn -0.045418 0.996652 0.067980
vn 0.824136 0.088595 0.559420
vn 0.045419 -0.996652 -0.067981
vn -0.832221 0.088573 -0.547324
vn 0.000000 1.000000 0.000000
vn -0.021064 0.987381 -0.156958
vn -0.040605 0.987380 -0.153076
vn -0.125889 0.987380 -0.096090
vn -0.136953 0.987380 -0.079527
vn -0.156975 0.987378 0.021077
vn -0.153072 0.987380 0.040620
vn -0.096098 0.987380 0.125885
vn -0.079540 0.987378 0.136958
vn 0.021075 0.987378 0.156975
vn 0.040614 0.987380 0.153073
vn 0.125883 0.987380 0.096099
vn 0.136959 0.987378 0.079537
vn 0.156958 0.987381 -0.021062
vn 0.153077 0.987380 -0.040601
vn 0.096091 0.987380 -0.125887
vn 0.079523 0.987380 -0.136954
vn -0.162345 0.886933 -0.432427
vn -0.015493 0.886927 -0.461649
vn -0.153033 0.961319 -0.229011
vn -0.337365 0.886940 -0.315471
vn -0.420543 0.886949 -0.190961
vn -0.270130 0.961324 -0.053727
vn -0.432394 0.886948 0.162352
vn -0.461607 0.886949 0.015500
vn -0.229012 0.961322 0.153012
vn -0.190970 0.886946 0.420545
vn -0.315462 0.886943 0.337366
vn -0.053732 0.961323 0.270132
vn 0.162348 0.886947 0.432399
vn 0.015490 0.886950 0.461606
vn 0.153026 0.961320 0.229011
vn 0.420580 0.886928 0.190972
vn 0.337379 0.886938 0.315461
vn 0.270158 0.961315 0.053738
vn 0.432432 0.886932 -0.162342
vn 0.461648 0.886928 -0.015483
vn 0.229011 0.961317 -0.153048
vn 0.190962 0.886932 -0.420578
vn 0.315470 0.886936 -0.337377
vn 0.053732 0.961316 -0.270156
vn -0.328743 0.717179 -0.614477
vn 0.068593 0.717157 -0.693528
vn -0.441861 0.717180 -0.538898
vn -0.666958 0.717185 -0.202022
vn -0.693496 0.717188 -0.068593
vn -0.614442 0.717198 0.328767
vn -0.538868 0.717189 0.441883
vn -0.202027 0.717179 0.666963
vn -0.068603 0.717191 0.693491
vn 0.328770 0.717177 0.614466
vn 0.441893 0.717170 0.538886
vn 0.666984 0.717158 0.202031
vn 0.693523 0.717160 0.068602
vn 0.614501 0.717157 -0.328747
vn 0.538915 0.717161 -0.441872
vn 0.202026 0.717164 -0.666979
vn -0.176984 0.420811 -0.889716
vn -0.297968 -0.843988 -0.445982
vn -0.297987 -0.843966 -0.446010
vn -0.754267 0.420800 -0.503993
vn -0.526055 -0.843988 -0.104643
vn -0.526065 -0.843981 -0.104646
vn -0.889759 0.420734 0.176951
vn -0.445950 -0.843996 0.297994
vn -0.445991 -0.843964 0.298022
vn -0.504031 0.420800 0.754242
vn -0.104648 -0.843988 0.526054
vn -0.104640 -0.844015 0.526013
vn 0.176951 0.420734 0.889759
vn 0.297991 -0.843988 0.445966
vn 0.297978 -0.844002 0.445948
vn 0.754286 0.420734 0.504020
vn 0.526055 -0.843988 0.104648
vn 0.526001 -0.844023 0.104637
vn 0.889716 0.420811 -0.176983
vn 0.445999 -0.843980 -0.297964
vn 0.445969 -0.844003 -0.297943
vn 0.503981 0.420734 -0.754311
vn 0.104643 -0.843988 -0.526055
vn 0.104643 -0.843990 -0.526053
vn 0.000000 -1.000000 0.000000
usemtl wire_141007058.002
s off
f 1/1/1 2/2/1 3/3/1 4/4/1
f 2/5/2 5/6/2 6/7/2 3/8/2
f 5/9/3 7/10/3 8/11/3 6/12/3
f 7/13/4 1/14/4 4/15/4 8/16/4
f 9/17/5 10/18/5 11/19/5 12/20/5
f 10/21/6 13/22/6 14/23/6 11/24/6
f 13/25/7 15/26/7 16/27/7 14/28/7
f 15/29/8 9/30/8 12/31/8 16/32/8
f 17/33/9 18/34/9 19/35/9 20/36/9
f 18/37/10 21/38/10 22/39/10 19/40/10
f 21/41/11 23/42/11 24/43/11 22/44/11
f 23/45/12 17/46/12 20/47/12 24/48/12
f 25/49/13 26/50/13 27/51/13 28/52/13
f 26/53/14 29/54/14 30/55/14 27/56/14
f 29/57/15 31/58/15 32/59/15 30/60/15
f 31/61/16 25/62/16 28/63/16 32/64/16
f 33/65/17 34/66/17 35/67/17 36/68/17
f 34/69/18 37/70/18 38/71/18 35/72/18
f 37/73/19 39/74/19 40/75/19 38/76/19
f 39/77/20 33/78/20 36/79/20 40/80/20
f 41/81/21 42/82/21 43/83/21 44/84/21
f 42/85/22 45/86/22 46/87/22 43/88/22
f 45/89/23 47/90/23 48/91/23 46/92/23
f 47/93/24 41/94/24 44/95/24 48/96/24
f 49/97/25 50/98/25 51/99/25 52/100/25
f 50/101/26 53/102/26 54/103/26 51/104/26
f 53/105/27 55/106/27 56/107/27 54/108/27
f 55/109/28 49/110/28 52/111/28 56/112/28
f 57/113/29 58/114/29 59/115/29 60/116/29
f 58/117/30 61/118/30 62/119/30 59/120/30
f 61/121/31 63/122/31 64/123/31 62/124/31
f 63/125/32 57/126/32 60/127/32 64/128/32
f 65/129/33 66/130/33 67/131/33 68/132/33
f 66/133/34 69/134/34 70/135/34 67/136/34
f 69/137/35 71/138/35 72/139/35 70/140/35
f 71/141/36 65/142/36 68/143/36 72/144/36
f 73/145/37 74/146/37 75/147/37 76/148/37
f 74/149/38 77/150/38 78/151/38 75/152/38
f 77/153/39 79/154/39 80/155/39 78/156/39
f 79/157/40 73/158/40 76/159/40 80/160/40
f 81/161/41 82/162/41 83/163/41 84/164/41
f 82/165/42 85/166/42 86/167/42 83/168/42
f 85/169/43 87/170/43 88/171/43 86/172/43
f 87/173/44 81/174/44 84/175/44 88/176/44
f 89/177/45 90/178/45 91/179/45 92/180/45
f 90/181/46 93/182/46 94/183/46 91/184/46
f 93/185/47 95/186/47 96/187/47 94/188/47
f 95/189/48 89/190/48 92/191/48 96/192/48
f 97/193/49 98/194/49 99/195/49 100/196/49
f 98/197/50 101/198/50 102/199/50 99/200/50
f 101/201/51 103/202/51 104/203/51 102/204/51
f 103/205/52 97/206/52 100/207/52 104/208/52
f 105/209/53 106/210/53 107/211/53 108/212/53
f 106/213/54 109/214/54 110/215/54 107/216/54
f 109/217/55 111/218/55 112/219/55 110/220/55
f 111/221/56 105/222/56 108/223/56 112/224/56
f 113/225/57 114/226/57 115/227/57 116/228/57
f 114/229/58 117/230/58 118/231/58 115/232/58
f 117/233/59 119/234/59 120/235/59 118/236/59
f 119/237/60 113/238/60 116/239/60 120/240/60
f 121/241/61 122/242/61 123/243/61 124/244/61
f 122/245/62 125/246/62 126/247/62 123/248/62
f 125/249/63 127/250/63 128/251/63 126/252/63
f 127/253/64 121/254/64 124/255/64 128/256/64
s 1
f 129/257/65 57/113/66 2/2/67
f 2/2/67 1/1/68 129/257/65
f 129/257/65 1/1/68 10/18/69
f 129/257/65 10/18/69 9/17/70
f 129/257/65 9/17/70 18/34/71
f 129/257/65 18/34/71 17/33/72
f 129/257/65 17/33/72 26/50/73
f 129/257/65 26/50/73 25/49/74
f 129/257/65 25/49/74 34/66/75
f 129/257/65 34/66/75 33/65/76
f 129/257/65 33/65/76 42/82/77
f 129/257/65 42/82/77 41/81/78
f 129/257/65 41/81/78 50/98/79
f 129/257/65 50/98/79 49/97/80
f 129/257/65 49/97/80 58/114/81
f 129/257/65 58/114/81 57/113/66
f 5/258/82 2/2/67 57/113/66 63/259/83
f 8/260/84 4/4/84 3/3/84 6/261/84
f 1/1/68 7/262/85 13/263/86 10/18/69
f 16/264/87 12/20/87 11/19/87 14/265/87
f 21/266/88 18/34/71 9/17/70 15/267/89
f 24/268/90 20/36/90 19/35/90 22/269/90
f 29/270/91 26/50/73 17/33/72 23/271/92
f 32/272/93 28/52/93 27/51/93 30/273/93
f 37/274/94 34/66/75 25/49/74 31/275/95
f 40/276/96 36/68/96 35/67/96 38/277/96
f 45/278/97 42/82/77 33/65/76 39/279/98
f 48/280/99 44/84/99 43/83/99 46/281/99
f 53/282/100 50/98/79 41/81/78 47/283/101
f 56/284/102 52/100/102 51/99/102 54/285/102
f 61/286/103 58/114/81 49/97/80 55/287/104
f 64/288/105 60/116/105 59/115/105 62/289/105
f 65/129/106 5/258/82 63/259/83 66/130/107
f 74/146/108 7/262/85 5/258/82 65/129/106
f 73/145/109 13/263/86 7/262/85 74/146/108
f 82/162/110 15/267/89 13/263/86 73/145/109
f 81/161/111 21/266/88 15/267/89 82/162/110
f 90/178/112 23/271/92 21/266/88 81/161/111
f 89/177/113 29/270/91 23/271/92 90/178/112
f 98/194/114 31/275/95 29/270/91 89/177/113
f 97/193/115 37/274/94 31/275/95 98/194/114
f 106/210/116 39/279/98 37/274/94 97/193/115
f 105/209/117 45/278/97 39/279/98 106/210/116
f 114/226/118 47/283/101 45/278/97 105/209/117
f 113/225/119 53/282/100 47/283/101 114/226/118
f 122/242/120 55/287/104 53/282/100 113/225/119
f 121/241/121 61/286/103 55/287/104 122/242/120
f 66/130/107 63/259/83 61/286/103 121/241/121
f 72/290/122 68/291/122 67/292/122 70/293/122
f 77/294/123 74/295/108 65/296/106 71/297/124
f 80/298/125 76/299/125 75/300/125 78/301/125
f 85/302/126 82/303/110 73/304/109 79/305/127
f 88/306/128 84/307/128 83/308/128 86/309/128
f 93/310/129 90/311/112 81/312/111 87/313/130
f 96/314/131 92/315/131 91/316/131 94/317/131
f 101/318/132 98/319/114 89/320/113 95/321/133
f 104/322/134 100/323/134 99/324/134 102/325/134
f 109/326/135 106/327/116 97/328/115 103/329/136
f 112/330/137 108/331/137 107/332/137 110/333/137
f 117/334/138 114/335/118 105/336/117 111/337/139
f 120/338/140 116/339/140 115/340/140 118/341/140
f 125/342/141 122/343/120 113/344/119 119/345/142
f 128/346/143 124/347/143 123/348/143 126/349/143
f 69/350/144 66/351/107 121/352/121 127/353/145
f 130/354/146 71/138/124 69/137/144
f 130/354/146 77/153/123 71/138/124
f 130/354/146 79/154/127 77/153/123
f 130/354/146 85/169/126 79/154/127
f 130/354/146 87/170/130 85/169/126
f 130/354/146 93/185/129 87/170/130
f 130/354/146 95/186/133 93/185/129
f 130/354/146 101/201/132 95/186/133
f 130/354/146 103/202/136 101/201/132
f 130/354/146 109/217/135 103/202/136
f 130/354/146 111/218/139 109/217/135
f 130/354/146 117/233/138 111/218/139
f 130/354/146 119/234/142 117/233/138
f 130/354/146 125/249/141 119/234/142
f 130/354/146 127/250/145 125/249/141
f 130/354/146 69/137/144 127/250/145
